<?xml version="1.0" encoding="UTF-8" ?>
<!DOCTYPE svg PUBLIC "-//W3C//DTD SVG 1.1//EN" "http://www.w3.org/Graphics/SVG/1.1/DTD/svg11.dtd">
<svg width="1000pt" height="686pt" viewBox="0 0 1000 686" version="1.1" xmlns="http://www.w3.org/2000/svg">
<g id="#ffffffff">
<path fill="#ffffff" opacity="1.00" d=" M 612.40 222.35 C 621.51 219.54 631.44 220.62 640.31 223.81 C 650.88 228.53 659.38 237.58 663.54 248.38 C 667.64 258.28 666.85 269.31 665.05 279.63 C 664.81 281.10 664.56 282.55 664.32 284.02 C 663.18 290.10 662.71 296.30 661.35 302.33 C 660.56 305.40 656.95 305.46 654.37 305.51 C 630.61 302.19 606.95 298.12 583.16 295.06 C 581.35 294.65 579.37 294.29 577.98 292.98 C 576.38 291.02 576.77 288.35 577.06 286.03 C 578.42 276.40 579.92 266.79 581.37 257.17 C 583.83 240.90 596.46 226.56 612.40 222.35 Z" />
<path fill="#ffffff" opacity="1.00" d=" M 236.24 506.31 C 240.80 505.60 245.43 505.99 250.03 505.91 C 264.50 505.92 278.97 505.87 293.43 505.97 C 293.99 507.57 294.47 509.23 294.22 510.96 C 293.87 515.33 294.16 519.72 293.85 524.09 C 274.73 524.18 255.60 524.24 236.48 524.07 C 236.63 518.16 237.04 512.19 236.24 506.31 Z" />
<path fill="#ffffff" opacity="1.00" d=" M 151.19 532.73 C 150.59 531.81 150.58 530.68 150.49 529.64 C 170.65 530.03 190.82 529.71 210.99 529.82 C 215.48 529.93 220.04 529.41 224.48 530.39 C 224.59 530.60 224.82 531.01 224.94 531.21 C 222.61 534.67 224.20 539.08 223.76 542.98 C 224.10 545.96 222.72 549.71 225.02 552.09 C 224.16 552.75 223.19 553.44 222.04 553.33 C 198.27 553.35 174.50 553.32 150.74 553.35 C 149.90 549.60 150.60 545.76 150.38 541.98 C 150.39 538.89 149.76 535.61 151.19 532.73 Z" />
</g>
<g id="#e4eafaff">
<path fill="#e4eafa" opacity="1.00" d=" M 368.31 83.44 C 423.15 78.25 479.29 77.36 533.08 90.80 C 545.26 94.25 557.54 97.54 569.11 102.77 C 579.67 106.03 589.23 111.70 598.79 117.12 C 622.68 130.66 644.04 148.06 666.95 163.09 C 674.11 168.21 681.72 172.79 689.68 176.51 C 712.43 187.49 738.27 187.73 762.98 188.82 C 787.57 189.11 812.73 190.98 835.76 200.28 C 851.64 206.89 866.28 216.39 878.76 228.24 C 890.94 240.05 901.07 253.89 909.20 268.76 C 923.41 294.30 931.26 323.00 934.76 351.90 C 939.60 390.48 930.69 429.69 914.79 464.79 C 901.24 490.28 883.09 513.22 871.74 539.89 C 869.58 544.94 868.24 550.30 867.56 555.74 L 867.02 556.26 C 854.29 556.33 841.54 556.53 828.82 556.13 C 830.60 553.58 833.29 551.06 832.39 547.66 C 832.33 533.18 832.43 518.70 832.35 504.23 L 832.25 503.05 L 831.87 502.09 C 824.02 501.11 816.10 502.67 808.29 502.05 C 808.13 501.45 807.81 500.25 807.66 499.65 C 807.28 499.94 806.52 500.52 806.14 500.82 C 806.50 493.54 806.20 486.24 806.30 478.96 C 806.31 477.58 807.36 476.53 807.93 475.36 C 810.91 475.61 813.99 476.69 816.94 475.67 C 825.79 473.11 832.72 465.87 836.22 457.51 C 837.02 455.34 837.50 452.20 835.37 450.63 C 831.21 449.11 827.07 451.42 823.75 453.75 C 816.44 458.67 809.64 465.66 808.11 474.67 C 807.64 474.66 806.70 474.65 806.23 474.64 C 806.40 468.51 806.28 462.39 806.31 456.27 C 807.63 455.35 808.86 453.81 810.67 454.20 C 817.28 455.22 823.22 450.99 827.60 446.51 C 830.89 442.53 834.63 437.84 833.65 432.32 C 831.54 431.19 829.02 430.76 826.81 431.82 C 819.52 435.13 813.48 440.92 809.47 447.83 C 808.56 450.06 808.98 453.19 806.32 454.22 C 806.31 448.13 806.25 442.03 806.33 435.95 C 806.27 433.97 808.50 433.20 809.72 432.04 C 813.47 433.68 817.58 431.90 820.75 429.79 C 825.09 426.81 828.59 422.50 830.40 417.53 C 830.87 415.85 831.05 413.33 829.01 412.62 C 825.27 411.67 822.03 414.32 819.10 416.22 C 814.27 419.93 809.65 424.65 808.38 430.82 C 807.70 431.51 807.02 432.18 806.34 432.86 C 806.30 427.62 806.25 422.37 806.35 417.13 C 806.29 415.51 808.02 414.76 808.97 413.73 C 810.75 413.96 812.55 413.96 814.36 413.76 C 820.33 411.73 825.15 406.87 827.35 400.98 C 828.14 399.39 827.13 397.84 826.54 396.41 C 822.25 396.21 818.61 398.89 815.49 401.51 C 812.20 404.31 809.54 407.89 808.43 412.11 C 807.70 412.71 806.98 413.31 806.27 413.92 C 806.42 408.71 806.10 403.49 806.41 398.30 C 807.90 394.65 812.26 395.53 815.28 394.32 C 820.10 391.64 825.03 386.71 824.31 380.76 C 818.05 379.90 813.16 385.34 809.81 389.93 C 809.06 392.17 808.11 394.35 806.42 396.04 C 806.29 391.93 806.30 387.82 806.25 383.72 C 809.86 379.80 810.60 373.55 808.12 368.87 C 807.62 367.73 806.33 366.77 805.07 367.17 C 802.91 367.64 802.37 370.15 801.92 371.97 C 800.93 376.18 802.25 380.53 804.81 383.91 C 804.72 387.87 804.70 391.83 804.81 395.80 C 804.10 395.15 803.39 394.50 802.68 393.89 C 801.33 387.89 796.26 383.48 790.93 380.90 C 789.24 379.84 786.63 380.89 786.56 383.00 C 787.85 387.52 790.98 391.66 795.25 393.76 C 797.00 394.64 799.00 395.74 800.98 394.78 C 802.21 395.83 803.83 396.59 804.66 398.05 C 804.97 403.29 804.71 408.56 804.74 413.82 C 804.05 413.23 803.37 412.65 802.70 412.08 C 800.93 405.22 795.06 400.08 788.91 397.05 C 786.57 395.60 782.85 396.77 783.59 399.99 C 785.40 406.31 790.55 411.56 796.74 413.74 C 798.54 413.89 800.36 413.86 802.18 413.69 C 803.10 414.72 804.76 415.49 804.74 417.08 C 804.93 422.09 804.66 427.10 804.74 432.12 C 804.02 431.74 803.32 431.37 802.62 431.00 C 801.89 424.84 797.09 420.23 792.53 416.51 C 789.57 414.50 786.27 411.71 782.44 412.61 C 780.64 413.11 779.99 415.22 780.54 416.88 C 782.93 424.02 788.66 429.91 795.76 432.48 C 797.81 432.90 799.91 432.72 801.95 432.29 C 803.00 433.35 804.85 434.16 804.73 435.92 C 804.86 441.90 804.71 447.89 804.82 453.87 C 804.09 453.53 803.36 453.19 802.65 452.85 C 802.43 447.53 798.86 443.26 795.40 439.57 C 792.00 436.23 788.12 433.14 783.58 431.56 C 781.31 430.88 777.45 430.96 777.37 434.13 C 777.50 439.36 781.14 443.78 784.47 447.53 C 788.66 451.18 794.04 455.46 799.97 453.94 C 802.04 453.32 803.36 455.15 804.76 456.32 C 804.79 462.51 804.72 468.69 804.81 474.88 C 803.99 474.52 803.17 474.17 802.37 473.82 C 802.60 471.28 801.60 468.84 800.27 466.74 C 796.19 460.25 790.24 455.08 783.56 451.41 C 781.20 450.24 778.19 449.53 775.72 450.73 C 773.42 452.41 774.05 455.67 775.06 457.93 C 778.87 466.28 785.95 473.60 795.02 475.96 C 797.49 476.80 799.96 475.75 802.35 475.13 C 803.24 476.31 804.93 477.18 804.76 478.90 C 804.79 486.32 804.79 493.76 804.70 501.18 C 802.05 499.58 802.46 496.38 801.67 493.78 C 797.87 485.68 791.08 479.23 783.47 474.70 C 780.51 472.89 776.91 471.36 773.42 472.48 C 770.64 473.66 770.80 477.16 771.64 479.57 C 775.05 488.36 781.84 495.89 790.59 499.58 C 794.00 501.35 797.95 501.56 801.57 500.30 C 802.07 500.79 803.06 501.77 803.56 502.26 C 797.69 502.31 791.81 502.54 785.97 501.89 C 783.48 501.77 780.67 500.94 778.46 502.52 C 777.62 504.20 777.72 506.16 777.68 508.00 C 777.86 517.68 777.72 527.35 777.78 537.03 C 777.88 540.48 777.11 544.17 778.80 547.37 C 778.95 547.73 779.25 548.44 779.40 548.79 C 780.14 550.72 781.27 552.51 782.81 553.92 C 782.22 555.07 781.66 556.24 781.14 557.43 C 779.08 556.79 776.94 556.58 774.80 556.68 C 769.94 556.89 765.10 555.95 760.24 556.36 C 760.33 552.61 760.28 548.86 759.91 545.14 C 753.41 544.26 746.85 545.22 740.35 544.58 C 738.60 544.49 739.22 542.15 739.08 541.03 C 742.22 500.04 744.71 459.02 747.86 418.03 C 748.71 405.70 749.20 393.33 750.64 381.04 C 751.17 365.25 752.92 349.53 753.44 333.75 C 756.63 330.87 757.74 325.60 754.86 322.14 C 752.96 319.48 749.50 318.79 746.45 319.14 C 728.87 308.01 710.71 297.84 692.98 286.96 C 689.14 284.80 685.63 281.98 681.34 280.75 C 680.05 278.93 678.41 277.09 676.05 276.86 C 673.17 276.36 671.04 278.72 669.21 280.54 C 667.82 280.24 666.43 279.94 665.05 279.63 C 666.85 269.31 667.64 258.28 663.54 248.38 C 659.38 237.58 650.88 228.53 640.31 223.81 C 631.44 220.62 621.51 219.54 612.40 222.35 C 596.46 226.56 583.83 240.90 581.37 257.17 C 579.92 266.79 578.42 276.40 577.06 286.03 C 576.77 288.35 576.38 291.02 577.98 292.98 C 579.37 294.29 581.35 294.65 583.16 295.06 C 583.20 297.26 581.77 301.28 585.06 301.68 C 606.04 304.94 627.08 307.93 648.07 311.21 C 649.75 311.44 651.46 311.45 653.17 311.48 C 653.63 309.50 654.02 307.51 654.37 305.51 C 656.95 305.46 660.56 305.40 661.35 302.33 C 662.71 296.30 663.18 290.10 664.32 284.02 C 665.89 284.26 667.46 284.51 669.05 284.77 C 670.63 287.46 673.21 289.44 676.49 289.23 C 680.64 293.47 686.48 295.34 691.25 298.76 C 705.70 307.23 719.93 316.07 734.41 324.50 C 736.55 325.76 738.72 327.08 740.36 329.00 C 741.24 330.79 742.30 332.53 743.84 333.85 C 743.51 333.94 742.86 334.12 742.54 334.21 C 740.80 366.16 737.94 398.06 735.99 429.99 C 733.08 467.29 730.96 504.65 728.05 541.96 C 728.17 544.13 726.51 545.64 725.24 547.17 C 725.14 546.61 724.96 545.49 724.87 544.93 C 719.01 544.30 713.05 544.61 707.19 545.11 C 707.03 549.04 706.73 553.03 707.80 556.87 C 669.20 556.72 630.61 556.81 592.02 556.81 C 584.18 557.35 576.29 558.15 568.44 557.36 C 566.66 557.21 565.06 556.46 563.56 555.58 C 568.18 551.64 574.38 550.80 579.39 547.54 C 583.43 544.85 588.47 544.35 592.49 541.64 C 596.47 538.98 601.20 537.84 605.35 535.49 C 610.03 532.64 615.29 530.98 620.19 528.56 C 626.05 527.70 632.50 524.87 634.76 518.95 C 637.35 512.57 639.09 505.83 639.99 499.00 C 639.98 497.56 641.08 496.61 641.95 495.62 C 644.93 496.23 648.53 497.36 651.16 495.16 C 657.10 491.01 659.94 483.87 661.25 476.99 C 662.25 471.96 661.08 466.01 656.43 463.16 C 657.36 459.71 659.08 456.02 657.53 452.48 C 655.74 452.05 653.92 451.76 652.10 451.64 C 652.47 447.74 652.59 443.76 654.24 440.13 C 656.66 434.57 656.84 428.40 658.89 422.72 C 660.78 417.55 660.77 411.88 662.93 406.79 C 665.15 401.45 665.07 395.50 667.25 390.14 C 668.59 386.95 668.85 383.39 668.20 380.01 C 667.54 378.03 665.62 376.97 664.08 375.76 C 662.03 376.12 659.97 376.48 657.92 376.83 C 658.52 376.30 659.14 375.81 659.80 375.35 C 657.61 373.79 656.12 368.96 652.88 370.91 C 635.98 379.04 618.97 386.98 602.03 395.03 C 597.83 396.83 593.38 400.82 588.64 398.34 C 581.59 395.40 574.09 393.80 566.99 391.02 C 556.89 387.27 546.54 384.31 536.42 380.64 C 531.68 378.48 527.87 383.00 523.69 384.44 C 518.50 383.39 514.29 386.68 510.35 389.48 C 502.84 381.14 494.49 373.49 484.96 367.52 C 484.87 367.16 484.69 366.45 484.60 366.09 C 494.56 356.45 509.54 358.77 522.01 355.84 C 531.06 354.24 538.85 348.27 543.47 340.43 C 551.26 327.40 553.77 311.99 554.55 297.04 C 555.30 281.18 553.45 265.24 549.50 249.88 C 547.79 243.65 545.20 237.02 539.53 233.36 C 534.15 229.76 527.13 230.68 521.58 227.52 C 513.13 222.11 507.38 213.21 498.31 208.68 C 487.78 203.63 475.52 201.82 464.09 204.57 C 454.36 206.82 445.60 212.52 439.15 220.08 C 430.70 229.57 424.41 241.62 412.86 247.85 C 398.09 255.80 380.67 254.26 364.95 259.02 C 349.54 263.60 336.67 274.58 327.79 287.77 C 316.86 304.02 310.97 323.48 310.23 343.00 C 309.72 357.47 312.12 372.30 318.82 385.25 C 323.01 393.05 328.30 400.20 333.91 407.02 C 342.32 417.03 351.56 426.47 362.17 434.16 C 360.50 438.02 358.59 441.76 357.19 445.73 C 357.08 445.37 356.85 444.64 356.74 444.28 C 356.68 445.80 356.39 447.30 355.70 448.68 C 351.99 456.67 348.54 464.78 344.87 472.80 C 343.94 475.12 342.72 477.43 342.69 479.99 C 342.89 483.05 344.27 485.97 346.30 488.25 C 342.55 500.51 337.23 512.26 333.52 524.55 C 331.03 532.76 328.34 541.31 329.62 549.99 C 329.92 551.87 331.25 553.33 332.20 554.92 C 332.33 555.35 332.58 556.21 332.70 556.64 C 324.52 556.93 316.34 556.51 308.16 556.75 C 308.31 547.48 308.46 538.19 308.22 528.92 C 308.39 527.30 306.29 526.80 305.08 526.61 C 301.12 526.25 297.14 526.55 293.18 526.48 C 293.35 525.88 293.69 524.69 293.85 524.09 C 294.16 519.72 293.87 515.33 294.22 510.96 C 294.47 509.23 293.99 507.57 293.43 505.97 L 294.15 505.54 C 293.00 504.42 291.67 503.39 289.96 503.64 C 270.93 503.59 251.91 503.62 232.88 503.64 C 222.98 503.57 213.08 503.67 203.18 503.58 C 197.06 503.52 190.94 503.51 184.82 503.58 C 180.62 503.70 176.39 503.34 172.21 503.98 C 172.36 511.49 172.14 519.00 172.34 526.51 C 166.53 526.91 160.70 526.41 154.89 526.73 C 152.91 526.65 151.52 528.15 150.49 529.64 C 150.58 530.68 150.59 531.81 151.19 532.73 C 149.76 535.61 150.39 538.89 150.38 541.98 C 150.60 545.76 149.90 549.60 150.74 553.35 C 151.14 554.39 151.56 555.42 151.99 556.46 C 147.00 556.67 142.00 556.53 137.00 556.78 C 136.68 557.22 136.03 558.10 135.70 558.54 L 135.51 558.80 C 131.40 551.54 127.48 544.12 123.10 536.98 C 111.45 515.61 103.49 492.46 97.00 469.07 C 89.73 439.36 87.20 408.59 88.41 378.06 C 90.64 323.77 104.12 269.44 130.94 221.96 C 140.05 206.77 150.01 192.01 161.65 178.63 C 194.09 141.32 237.41 113.88 284.60 99.41 C 311.71 90.66 339.95 85.73 368.31 83.44 M 833.19 472.29 C 827.39 474.07 822.47 477.98 818.04 482.02 C 813.75 486.62 809.04 491.77 808.50 498.35 C 809.62 501.32 813.51 500.96 816.10 501.00 C 825.69 498.85 833.58 491.64 838.01 483.04 C 839.34 480.40 841.08 477.25 839.66 474.30 C 838.67 471.68 835.41 472.06 833.19 472.29 Z" />
</g>
<g id="#000644ff">
<path fill="#000644" opacity="1.00" d=" M 464.09 204.57 C 475.52 201.82 487.78 203.63 498.31 208.68 C 507.38 213.21 513.13 222.11 521.58 227.52 C 527.13 230.68 534.15 229.76 539.53 233.36 C 545.20 237.02 547.79 243.65 549.50 249.88 C 553.45 265.24 555.30 281.18 554.55 297.04 C 553.77 311.99 551.26 327.40 543.47 340.43 C 538.85 348.27 531.06 354.24 522.01 355.84 C 509.54 358.77 494.56 356.45 484.60 366.09 C 484.38 366.26 483.95 366.60 483.74 366.78 C 482.32 366.30 480.99 365.59 479.60 365.07 C 480.51 356.35 482.35 347.75 483.70 339.09 L 484.73 339.25 C 495.10 342.91 507.00 341.76 516.39 336.00 C 523.18 332.08 528.69 325.82 531.61 318.52 C 534.42 312.03 534.65 304.83 536.05 297.98 C 539.56 295.06 538.72 289.39 538.23 285.32 C 538.30 284.49 538.38 283.65 538.48 282.82 C 537.97 282.75 536.96 282.60 536.45 282.52 C 534.72 281.85 533.02 281.13 531.32 280.41 C 531.31 279.87 531.29 278.81 531.28 278.28 C 534.14 278.51 537.02 278.29 539.87 277.96 C 540.18 274.77 540.72 271.36 538.89 268.49 C 538.16 265.48 537.44 262.45 536.04 259.66 C 535.27 257.87 534.38 256.13 533.32 254.50 C 533.16 254.45 532.86 254.34 532.71 254.29 L 531.83 254.50 C 531.19 255.44 530.58 256.39 529.99 257.36 C 521.62 257.86 513.04 256.24 504.89 258.77 C 500.16 259.46 496.04 261.97 491.66 263.69 C 490.09 264.14 489.36 265.66 488.52 266.91 C 485.69 268.93 482.76 270.84 480.26 273.27 C 473.55 279.39 469.74 287.89 463.57 294.48 C 460.37 297.97 456.27 300.41 452.22 302.76 C 452.74 303.26 453.79 304.26 454.32 304.77 C 454.40 312.96 451.94 320.84 451.02 328.92 C 450.40 334.12 448.38 339.31 449.67 344.56 C 449.15 348.92 448.23 353.22 447.60 357.56 C 443.09 358.04 438.72 359.28 434.35 360.45 C 428.76 361.61 423.66 364.26 418.37 366.31 C 417.90 366.35 416.97 366.43 416.50 366.47 L 416.28 367.33 C 410.55 370.61 404.54 373.42 399.01 377.05 C 397.74 377.62 396.62 378.45 395.76 379.55 C 391.47 383.19 387.40 387.13 383.91 391.55 C 382.24 393.51 380.73 395.58 379.42 397.78 C 379.27 398.01 378.97 398.47 378.82 398.69 C 376.74 401.58 375.02 404.71 373.57 407.96 C 369.12 416.40 366.46 425.64 362.17 434.16 C 351.56 426.47 342.32 417.03 333.91 407.02 C 328.30 400.20 323.01 393.05 318.82 385.25 C 312.12 372.30 309.72 357.47 310.23 343.00 C 310.97 323.48 316.86 304.02 327.79 287.77 C 336.67 274.58 349.54 263.60 364.95 259.02 C 380.67 254.26 398.09 255.80 412.86 247.85 C 424.41 241.62 430.70 229.57 439.15 220.08 C 445.60 212.52 454.36 206.82 464.09 204.57 Z" />
</g>
<g id="#2b1134ff">
<path fill="#2b1134" opacity="1.00" d=" M 531.83 254.50 L 532.71 254.29 C 532.77 256.04 532.41 257.77 531.00 258.94 C 527.33 259.64 523.64 258.83 519.97 258.75 C 515.52 258.72 511.07 259.16 506.71 260.02 C 505.30 260.26 503.92 260.59 502.56 260.98 C 498.64 262.00 494.89 263.58 491.34 265.51 C 490.38 265.96 489.44 266.42 488.52 266.91 C 489.36 265.66 490.09 264.14 491.66 263.69 C 496.04 261.97 500.16 259.46 504.89 258.77 C 513.04 256.24 521.62 257.86 529.99 257.36 C 530.58 256.39 531.19 255.44 531.83 254.50 Z" />
</g>
<g id="#ff9885ff">
<path fill="#ff9885" opacity="1.00" d=" M 532.71 254.29 C 532.86 254.34 533.16 254.45 533.32 254.50 C 534.38 256.13 535.27 257.87 536.04 259.66 C 536.27 262.52 536.78 265.33 537.34 268.14 C 537.39 270.71 536.51 273.22 536.84 275.80 C 534.53 275.78 531.40 274.46 529.81 276.81 C 529.00 278.40 528.87 280.61 529.83 282.16 C 531.79 282.86 533.86 283.17 535.85 283.83 C 537.79 284.02 536.92 286.36 536.77 287.58 C 535.43 287.51 534.09 287.46 532.75 287.45 C 530.17 287.02 528.36 289.13 527.35 291.21 C 526.73 292.51 527.04 294.21 528.19 295.14 C 528.42 295.40 528.88 295.90 529.11 296.16 C 531.51 295.91 533.31 294.19 535.18 292.85 C 536.57 296.08 533.53 298.83 533.66 302.04 C 533.57 305.77 533.45 309.57 532.16 313.12 C 531.46 314.85 531.46 316.69 531.61 318.52 C 528.69 325.82 523.18 332.08 516.39 336.00 C 511.54 335.94 507.43 339.05 502.67 339.56 C 496.71 341.24 490.73 339.18 484.73 339.25 L 483.70 339.09 C 482.35 347.75 480.51 356.35 479.60 365.07 C 480.99 365.59 482.32 366.30 483.74 366.78 C 483.95 366.60 484.38 366.26 484.60 366.09 C 484.69 366.45 484.87 367.16 484.96 367.52 C 484.15 367.56 482.53 367.66 481.72 367.71 C 487.50 374.65 491.94 382.99 493.26 392.00 C 494.23 397.92 490.79 403.91 485.61 406.70 C 480.68 409.34 474.77 409.86 469.36 408.59 C 458.13 406.20 448.50 399.39 439.98 391.98 C 434.56 387.11 429.70 380.64 429.64 373.04 C 429.51 368.35 432.49 364.51 434.35 360.45 C 438.72 359.28 443.09 358.04 447.60 357.56 C 448.23 353.22 449.15 348.92 449.67 344.56 C 452.01 332.62 453.66 320.55 455.86 308.57 C 456.40 307.02 455.33 305.78 454.32 304.77 C 453.79 304.26 452.74 303.26 452.22 302.76 C 456.27 300.41 460.37 297.97 463.57 294.48 C 469.74 287.89 473.55 279.39 480.26 273.27 C 482.76 270.84 485.69 268.93 488.52 266.91 C 489.44 266.42 490.38 265.96 491.34 265.51 C 495.44 266.04 500.09 264.37 502.56 260.98 C 503.92 260.59 505.30 260.26 506.71 260.02 C 512.14 260.79 517.57 259.44 523.02 260.02 C 525.26 260.21 527.53 260.33 529.79 260.12 C 530.09 259.82 530.69 259.24 531.00 258.94 C 532.41 257.77 532.77 256.04 532.71 254.29 M 493.52 272.36 C 492.50 273.69 493.73 274.88 494.55 275.87 C 498.07 276.22 501.52 277.09 505.05 277.41 C 506.56 277.56 508.05 275.40 507.23 274.04 C 506.00 271.85 503.06 272.38 500.98 271.85 C 498.61 271.39 495.10 269.69 493.52 272.36 M 495.03 286.95 C 494.84 288.26 495.58 289.92 497.14 289.62 C 500.25 289.54 501.00 285.22 504.34 285.61 C 503.06 284.30 501.85 282.68 499.96 282.29 C 497.41 282.17 495.32 284.56 495.03 286.95 M 509.12 306.05 C 508.21 310.68 513.88 311.40 517.01 309.92 C 519.96 309.57 520.90 306.61 520.88 304.05 C 517.60 306.74 513.10 307.29 509.12 306.05 M 498.93 316.02 C 501.65 320.35 507.15 321.10 511.82 320.52 C 511.78 320.20 511.70 319.54 511.66 319.22 C 507.51 317.84 503.24 316.72 498.93 316.02 Z" />
<path fill="#ff9885" opacity="1.00" d=" M 474.40 504.33 C 481.61 498.29 482.87 488.24 487.96 480.71 C 487.56 486.59 485.04 491.99 483.78 497.69 C 481.65 507.08 479.61 516.50 477.50 525.89 C 475.69 525.39 473.77 525.01 472.03 525.94 C 440.17 537.77 407.59 547.96 374.07 553.85 L 373.30 553.97 C 368.30 554.68 362.78 554.46 358.33 557.10 C 363.18 557.72 368.07 557.38 372.94 557.39 C 367.77 557.98 362.56 557.50 357.37 557.70 C 357.55 557.27 357.91 556.41 358.09 555.98 C 351.78 557.10 345.35 556.75 338.97 556.81 C 336.55 556.94 334.30 556.00 332.20 554.92 C 331.25 553.33 329.92 551.87 329.62 549.99 C 328.34 541.31 331.03 532.76 333.52 524.55 C 337.23 512.26 342.55 500.51 346.30 488.25 C 349.86 491.39 354.63 492.28 358.89 494.08 C 364.31 495.91 369.51 498.47 375.08 499.81 C 377.01 502.71 380.64 503.33 383.52 504.88 C 381.41 509.58 378.77 514.12 377.52 519.14 C 378.07 521.67 380.98 521.55 382.98 521.23 C 408.09 518.55 432.83 513.35 457.55 508.32 C 463.11 506.77 468.89 506.05 474.40 504.33 Z" />
</g>
<g id="#f8b4b3ff">
<path fill="#f8b4b3" opacity="1.00" d=" M 506.71 260.02 C 511.07 259.16 515.52 258.72 519.97 258.75 C 523.64 258.83 527.33 259.64 531.00 258.94 C 530.69 259.24 530.09 259.82 529.79 260.12 C 527.53 260.33 525.26 260.21 523.02 260.02 C 517.57 259.44 512.14 260.79 506.71 260.02 Z" />
<path fill="#f8b4b3" opacity="1.00" d=" M 536.04 259.66 C 537.44 262.45 538.16 265.48 538.89 268.49 C 539.13 271.58 539.12 274.69 539.31 277.78 C 536.29 277.79 530.85 274.68 529.81 279.07 C 529.31 282.77 534.12 282.05 536.45 282.52 C 536.96 282.60 537.97 282.75 538.48 282.82 C 538.38 283.65 538.30 284.49 538.23 285.32 C 537.31 289.51 536.67 293.74 536.05 297.98 C 534.65 304.83 534.42 312.03 531.61 318.52 C 531.46 316.69 531.46 314.85 532.16 313.12 C 533.45 309.57 533.57 305.77 533.66 302.04 C 533.53 298.83 536.57 296.08 535.18 292.85 C 533.31 294.19 531.51 295.91 529.11 296.16 C 528.88 295.90 528.42 295.40 528.19 295.14 C 529.11 295.23 529.99 295.10 530.82 294.75 C 531.98 293.83 532.85 292.61 533.75 291.45 C 534.41 291.24 535.74 290.82 536.40 290.61 C 535.38 289.34 534.15 288.27 532.75 287.45 C 534.09 287.46 535.43 287.51 536.77 287.58 C 536.92 286.36 537.79 284.02 535.85 283.83 C 533.86 283.17 531.79 282.86 529.83 282.16 C 528.87 280.61 529.00 278.40 529.81 276.81 C 531.40 274.46 534.53 275.78 536.84 275.80 C 536.51 273.22 537.39 270.71 537.34 268.14 C 536.78 265.33 536.27 262.52 536.04 259.66 Z" />
<path fill="#f8b4b3" opacity="1.00" d=" M 502.67 339.56 C 507.43 339.05 511.54 335.94 516.39 336.00 C 507.00 341.76 495.10 342.91 484.73 339.25 C 490.73 339.18 496.71 341.24 502.67 339.56 Z" />
<path fill="#f8b4b3" opacity="1.00" d=" M 510.35 389.48 C 514.29 386.68 518.50 383.39 523.69 384.44 C 543.97 391.95 564.50 398.75 584.78 406.26 C 587.49 407.07 589.05 409.55 590.06 412.04 C 590.26 417.86 588.05 423.34 587.05 428.99 C 578.22 467.20 569.30 505.38 560.53 543.61 C 559.83 547.24 557.85 550.53 555.00 552.88 C 551.96 555.20 548.26 557.66 544.24 556.55 C 539.39 555.24 534.91 552.75 529.91 551.95 C 524.12 549.53 518.10 547.69 512.18 545.59 C 511.77 545.43 510.95 545.10 510.54 544.93 C 501.21 541.28 491.54 538.55 482.29 534.71 C 478.63 533.50 477.80 529.24 477.50 525.89 C 479.61 516.50 481.65 507.08 483.78 497.69 C 485.04 491.99 487.56 486.59 487.96 480.71 C 489.02 477.70 489.58 474.56 489.95 471.40 C 490.73 468.71 491.65 466.06 492.13 463.30 C 496.24 445.10 500.60 426.96 504.73 408.76 C 506.42 402.68 506.68 396.02 510.43 390.70 C 510.41 390.40 510.37 389.79 510.35 389.48 Z" />
<path fill="#f8b4b3" opacity="1.00" d=" M 621.77 450.58 C 625.02 445.92 629.98 441.42 636.01 441.65 C 639.52 442.07 640.70 446.04 640.14 449.06 C 639.98 453.03 636.19 455.94 636.62 459.98 C 634.22 459.61 631.73 458.83 629.30 459.40 C 627.64 460.21 627.88 462.42 627.66 463.97 C 628.41 464.52 629.16 465.10 629.90 465.71 C 630.19 466.29 630.76 467.45 631.05 468.03 C 628.37 467.83 624.71 466.03 622.76 468.74 C 621.33 470.54 623.18 472.47 624.29 473.85 C 623.00 476.86 621.01 479.45 618.87 481.89 C 612.47 478.06 605.96 473.29 602.68 466.40 C 599.07 456.01 612.12 444.56 621.77 450.58 Z" />
</g>
<g id="#e09896ff">
<path fill="#e09896" opacity="1.00" d=" M 491.34 265.51 C 494.89 263.58 498.64 262.00 502.56 260.98 C 500.09 264.37 495.44 266.04 491.34 265.51 Z" />
</g>
<g id="#4a243dff">
<path fill="#4a243d" opacity="1.00" d=" M 538.89 268.49 C 540.72 271.36 540.18 274.77 539.87 277.96 C 537.02 278.29 534.14 278.51 531.28 278.28 C 531.29 278.81 531.31 279.87 531.32 280.41 C 533.02 281.13 534.72 281.85 536.45 282.52 C 534.12 282.05 529.31 282.77 529.81 279.07 C 530.85 274.68 536.29 277.79 539.31 277.78 C 539.12 274.69 539.13 271.58 538.89 268.49 Z" />
</g>
<g id="#76424fff">
<path fill="#76424f" opacity="1.00" d=" M 493.52 272.36 C 495.10 269.69 498.61 271.39 500.98 271.85 C 498.62 271.43 496.22 271.53 493.90 272.05 C 494.21 273.30 494.44 274.58 494.55 275.87 C 493.73 274.88 492.50 273.69 493.52 272.36 Z" />
</g>
<g id="#08063bff">
<path fill="#08063b" opacity="1.00" d=" M 493.90 272.05 C 496.22 271.53 498.62 271.43 500.98 271.85 C 503.06 272.38 506.00 271.85 507.23 274.04 C 508.05 275.40 506.56 277.56 505.05 277.41 C 501.52 277.09 498.07 276.22 494.55 275.87 C 494.44 274.58 494.21 273.30 493.90 272.05 Z" />
</g>
<g id="#6f71a0ff">
<path fill="#6f71a0" opacity="1.00" d=" M 669.21 280.54 C 671.04 278.72 673.17 276.36 676.05 276.86 C 678.41 277.09 680.05 278.93 681.34 280.75 C 681.66 282.42 681.45 284.03 680.72 285.59 C 681.51 288.00 683.48 289.61 685.65 290.77 C 704.16 301.51 722.46 312.63 740.82 323.65 C 742.23 321.62 744.14 320.04 746.45 319.14 C 749.50 318.79 752.96 319.48 754.86 322.14 C 757.74 325.60 756.63 330.87 753.44 333.75 C 751.32 334.91 748.93 335.32 746.55 335.39 C 745.96 339.70 746.37 344.06 745.89 348.38 C 744.72 354.51 745.45 360.80 744.25 366.95 C 744.52 374.01 742.86 380.95 743.13 388.01 C 743.12 392.03 741.90 395.96 742.13 400.00 C 742.52 405.72 740.71 411.31 741.12 417.04 C 739.43 434.01 738.86 451.05 737.23 468.02 C 737.29 472.71 736.94 477.36 736.19 481.99 C 736.31 494.03 733.90 505.93 734.07 517.99 C 733.85 521.00 733.15 523.96 733.15 526.99 C 733.28 532.62 731.72 538.13 732.14 543.78 C 730.96 538.96 733.00 533.90 732.87 528.99 C 732.69 524.27 734.10 519.67 733.88 514.96 C 733.55 508.83 735.16 502.82 735.02 496.69 C 736.40 490.19 735.30 483.52 736.63 477.02 C 737.26 461.66 738.82 446.37 739.75 431.01 C 739.79 424.41 741.16 417.91 741.00 411.30 C 742.38 405.26 741.32 399.05 742.47 393.01 C 743.29 388.39 742.47 383.67 743.34 379.07 C 744.25 374.09 743.46 369.00 744.40 364.03 C 745.22 359.72 744.50 355.30 745.31 351.00 C 746.31 345.76 745.47 340.37 746.49 335.13 C 745.82 334.81 744.50 334.17 743.84 333.85 C 742.30 332.53 741.24 330.79 740.36 329.00 C 740.45 327.26 740.59 325.52 740.72 323.79 C 722.05 312.55 703.37 301.32 684.60 290.26 C 682.85 289.39 680.93 288.91 679.25 287.91 C 678.56 288.24 677.18 288.90 676.49 289.23 C 673.21 289.44 670.63 287.46 669.05 284.77 C 667.46 284.51 665.89 284.26 664.32 284.02 C 664.56 282.55 664.81 281.10 665.05 279.63 C 666.43 279.94 667.82 280.24 669.21 280.54 M 674.44 281.54 C 673.58 282.00 672.99 283.30 673.75 284.12 C 674.42 285.73 677.48 284.74 676.97 283.01 C 676.98 281.83 675.43 280.87 674.44 281.54 M 747.25 325.20 C 744.23 326.56 746.95 331.14 749.62 329.32 C 752.02 327.80 749.80 324.00 747.25 325.20 Z" />
</g>
<g id="#f5fdffff">
<path fill="#f5fdff" opacity="1.00" d=" M 674.44 281.54 C 675.43 280.87 676.98 281.83 676.97 283.01 C 677.48 284.74 674.42 285.73 673.75 284.12 C 672.99 283.30 673.58 282.00 674.44 281.54 Z" />
<path fill="#f5fdff" opacity="1.00" d=" M 747.25 325.20 C 749.80 324.00 752.02 327.80 749.62 329.32 C 746.95 331.14 744.23 326.56 747.25 325.20 Z" />
</g>
<g id="#fdfefeff">
<path fill="#fdfefe" opacity="1.00" d=" M 681.34 280.75 C 685.63 281.98 689.14 284.80 692.98 286.96 C 710.71 297.84 728.87 308.01 746.45 319.14 C 744.14 320.04 742.23 321.62 740.82 323.65 C 722.46 312.63 704.16 301.51 685.65 290.77 C 683.48 289.61 681.51 288.00 680.72 285.59 C 681.45 284.03 681.66 282.42 681.34 280.75 Z" />
</g>
<g id="#0c073fff">
<path fill="#0c073f" opacity="1.00" d=" M 495.03 286.95 C 495.32 284.56 497.41 282.17 499.96 282.29 C 501.85 282.68 503.06 284.30 504.34 285.61 C 501.00 285.22 500.25 289.54 497.14 289.62 C 495.58 289.92 494.84 288.26 495.03 286.95 Z" />
</g>
<g id="#2e1334ff">
<path fill="#2e1334" opacity="1.00" d=" M 536.05 297.98 C 536.67 293.74 537.31 289.51 538.23 285.32 C 538.72 289.39 539.56 295.06 536.05 297.98 Z" />
</g>
<g id="#090841ff">
<path fill="#090841" opacity="1.00" d=" M 527.35 291.21 C 528.36 289.13 530.17 287.02 532.75 287.45 C 534.15 288.27 535.38 289.34 536.40 290.61 C 535.74 290.82 534.41 291.24 533.75 291.45 C 532.85 292.61 531.98 293.83 530.82 294.75 C 529.54 293.69 528.37 292.51 527.35 291.21 Z" />
</g>
<g id="#fcfeffff">
<path fill="#fcfeff" opacity="1.00" d=" M 676.49 289.23 C 677.18 288.90 678.56 288.24 679.25 287.91 C 680.93 288.91 682.85 289.39 684.60 290.26 C 703.37 301.32 722.05 312.55 740.72 323.79 C 740.59 325.52 740.45 327.26 740.36 329.00 C 738.72 327.08 736.55 325.76 734.41 324.50 C 719.93 316.07 705.70 307.23 691.25 298.76 C 686.48 295.34 680.64 293.47 676.49 289.23 Z" />
</g>
<g id="#56212dff">
<path fill="#56212d" opacity="1.00" d=" M 528.19 295.14 C 527.04 294.21 526.73 292.51 527.35 291.21 C 528.37 292.51 529.54 293.69 530.82 294.75 C 529.99 295.10 529.11 295.23 528.19 295.14 Z" />
</g>
<g id="#6e71a0ff">
<path fill="#6e71a0" opacity="1.00" d=" M 583.16 295.06 C 606.95 298.12 630.61 302.19 654.37 305.51 C 654.02 307.51 653.63 309.50 653.17 311.48 C 651.46 311.45 649.75 311.44 648.07 311.21 C 627.08 307.93 606.04 304.94 585.06 301.68 C 581.77 301.28 583.20 297.26 583.16 295.06 Z" />
</g>
<g id="#f46a58ff">
<path fill="#f46a58" opacity="1.00" d=" M 509.12 306.05 C 513.10 307.29 517.60 306.74 520.88 304.05 C 520.90 306.61 519.96 309.57 517.01 309.92 C 513.88 311.40 508.21 310.68 509.12 306.05 Z" />
</g>
<g id="#250e34ff">
<path fill="#250e34" opacity="1.00" d=" M 454.32 304.77 C 455.33 305.78 456.40 307.02 455.86 308.57 C 453.66 320.55 452.01 332.62 449.67 344.56 C 448.38 339.31 450.40 334.12 451.02 328.92 C 451.94 320.84 454.40 312.96 454.32 304.77 Z" />
</g>
<g id="#fff9ebff">
<path fill="#fff9eb" opacity="1.00" d=" M 498.93 316.02 C 503.24 316.72 507.51 317.84 511.66 319.22 C 511.70 319.54 511.78 320.20 511.82 320.52 C 507.15 321.10 501.65 320.35 498.93 316.02 Z" />
</g>
<g id="#fdfeffff">
<path fill="#fdfeff" opacity="1.00" d=" M 742.54 334.21 C 742.86 334.12 743.51 333.94 743.84 333.85 C 744.50 334.17 745.82 334.81 746.49 335.13 C 745.47 340.37 746.31 345.76 745.31 351.00 C 744.50 355.30 745.22 359.72 744.40 364.03 C 743.46 369.00 744.25 374.09 743.34 379.07 C 742.47 383.67 743.29 388.39 742.47 393.01 C 741.32 399.05 742.38 405.26 741.00 411.30 C 741.16 417.91 739.79 424.41 739.75 431.01 C 738.82 446.37 737.26 461.66 736.63 477.02 C 735.30 483.52 736.40 490.19 735.02 496.69 C 735.16 502.82 733.55 508.83 733.88 514.96 C 734.10 519.67 732.69 524.27 732.87 528.99 C 733.00 533.90 730.96 538.96 732.14 543.78 C 731.72 538.13 733.28 532.62 733.15 526.99 C 733.15 523.96 733.85 521.00 734.07 517.99 C 733.90 505.93 736.31 494.03 736.19 481.99 C 736.94 477.36 737.29 472.71 737.23 468.02 C 738.86 451.05 739.43 434.01 741.12 417.04 C 740.71 411.31 742.52 405.72 742.13 400.00 C 741.90 395.96 743.12 392.03 743.13 388.01 C 742.86 380.95 744.52 374.01 744.25 366.95 C 745.45 360.80 744.72 354.51 745.89 348.38 C 746.37 344.06 745.96 339.70 746.55 335.39 C 748.93 335.32 751.32 334.91 753.44 333.75 C 752.92 349.53 751.17 365.25 750.64 381.04 C 749.20 393.33 748.71 405.70 747.86 418.03 C 744.71 459.02 742.22 500.04 739.08 541.03 C 739.22 542.15 738.60 544.49 740.35 544.58 C 746.85 545.22 753.41 544.26 759.91 545.14 C 760.28 548.86 760.33 552.61 760.24 556.36 C 752.18 557.24 744.06 556.49 735.97 556.74 C 732.34 556.55 728.29 557.58 725.12 555.29 C 725.28 552.58 725.27 549.87 725.24 547.17 C 726.51 545.64 728.17 544.13 728.05 541.96 C 730.96 504.65 733.08 467.29 735.99 429.99 C 737.94 398.06 740.80 366.16 742.54 334.21 Z" />
</g>
<g id="#f85b38ff">
<path fill="#f85b38" opacity="1.00" d=" M 418.37 366.31 C 423.66 364.26 428.76 361.61 434.35 360.45 C 432.49 364.51 429.51 368.35 429.64 373.04 C 429.70 380.64 434.56 387.11 439.98 391.98 C 448.50 399.39 458.13 406.20 469.36 408.59 C 474.77 409.86 480.68 409.34 485.61 406.70 C 490.79 403.91 494.23 397.92 493.26 392.00 C 491.94 382.99 487.50 374.65 481.72 367.71 C 482.53 367.66 484.15 367.56 484.96 367.52 C 494.49 373.49 502.84 381.14 510.35 389.48 C 510.37 389.79 510.41 390.40 510.43 390.70 C 506.68 396.02 506.42 402.68 504.73 408.76 C 500.60 426.96 496.24 445.10 492.13 463.30 C 485.83 455.77 479.83 447.99 473.61 440.40 C 471.82 437.46 467.56 440.31 467.18 442.89 C 467.81 444.42 468.98 445.64 470.01 446.92 C 476.74 455.01 483.09 463.42 489.95 471.40 C 489.58 474.56 489.02 477.70 487.96 480.71 C 482.87 488.24 481.61 498.29 474.40 504.33 C 468.89 506.05 463.11 506.77 457.55 508.32 C 432.83 513.35 408.09 518.55 382.98 521.23 C 380.98 521.55 378.07 521.67 377.52 519.14 C 378.77 514.12 381.41 509.58 383.52 504.88 C 386.41 506.24 389.59 507.69 392.86 506.89 C 395.77 506.47 396.99 503.46 398.33 501.25 C 407.54 484.37 416.32 467.28 425.44 450.36 C 427.09 447.78 428.39 444.99 428.86 441.95 C 425.62 442.41 424.76 445.83 423.38 448.26 C 413.84 466.15 404.49 484.12 395.02 502.03 C 393.50 505.29 389.33 504.45 386.63 503.42 C 382.74 502.33 379.32 499.10 375.08 499.81 C 369.51 498.47 364.31 495.91 358.89 494.08 C 354.63 492.28 349.86 491.39 346.30 488.25 C 344.27 485.97 342.89 483.05 342.69 479.99 C 342.72 477.43 343.94 475.12 344.87 472.80 C 348.54 464.78 351.99 456.67 355.70 448.68 C 356.39 447.30 356.68 445.80 356.74 444.28 C 356.85 444.64 357.08 445.37 357.19 445.73 C 358.59 441.76 360.50 438.02 362.17 434.16 C 366.46 425.64 369.12 416.40 373.57 407.96 C 376.75 405.98 378.53 402.36 378.82 398.69 C 378.97 398.47 379.27 398.01 379.42 397.78 C 382.37 397.10 383.53 394.26 383.91 391.55 C 387.40 387.13 391.47 383.19 395.76 379.55 C 397.49 380.69 399.72 379.02 399.01 377.05 C 404.54 373.42 410.55 370.61 416.28 367.33 C 416.81 367.07 417.85 366.56 418.37 366.31 Z" />
<path fill="#f85b38" opacity="1.00" d=" M 781.14 504.36 C 798.21 504.31 815.28 504.22 832.35 504.23 C 832.43 518.70 832.33 533.18 832.39 547.66 C 830.62 552.01 827.05 556.28 822.00 556.43 C 811.99 556.63 801.98 556.42 791.98 556.52 C 788.72 556.63 785.38 556.01 782.81 553.92 C 781.27 552.51 780.14 550.72 779.40 548.79 C 780.15 545.90 780.13 542.92 780.01 539.97 C 780.06 529.96 779.73 519.96 780.02 509.96 C 780.00 508.03 780.40 506.14 781.14 504.36 Z" />
</g>
<g id="#3f061cff">
<path fill="#3f061c" opacity="1.00" d=" M 416.50 366.47 C 416.97 366.43 417.90 366.35 418.37 366.31 C 417.85 366.56 416.81 367.07 416.28 367.33 L 416.50 366.47 Z" />
</g>
<g id="#25b8bfff">
<path fill="#25b8bf" opacity="1.00" d=" M 801.92 371.97 C 802.37 370.15 802.91 367.64 805.07 367.17 C 806.33 366.77 807.62 367.73 808.12 368.87 C 810.60 373.55 809.86 379.80 806.25 383.72 L 804.81 383.91 C 802.25 380.53 800.93 376.18 801.92 371.97 Z" />
<path fill="#25b8bf" opacity="1.00" d=" M 773.42 472.48 C 776.91 471.36 780.51 472.89 783.47 474.70 C 791.08 479.23 797.87 485.68 801.67 493.78 C 801.51 495.58 801.33 497.40 801.19 499.22 C 797.65 499.27 794.12 499.57 790.59 499.58 C 781.84 495.89 775.05 488.36 771.64 479.57 C 770.80 477.16 770.64 473.66 773.42 472.48 Z" />
</g>
<g id="#fefefdff">
<path fill="#fefefd" opacity="1.00" d=" M 652.88 370.91 C 656.12 368.96 657.61 373.79 659.80 375.35 C 659.14 375.81 658.52 376.30 657.92 376.83 C 637.71 386.32 617.53 395.84 597.31 405.31 C 594.17 406.64 591.96 409.32 590.06 412.04 C 589.05 409.55 587.49 407.07 584.78 406.26 C 564.50 398.75 543.97 391.95 523.69 384.44 C 527.87 383.00 531.68 378.48 536.42 380.64 C 546.54 384.31 556.89 387.27 566.99 391.02 C 574.09 393.80 581.59 395.40 588.64 398.34 C 593.38 400.82 597.83 396.83 602.03 395.03 C 618.97 386.98 635.98 379.04 652.88 370.91 Z" />
</g>
<g id="#fcd3d1ff">
<path fill="#fcd3d1" opacity="1.00" d=" M 657.92 376.83 C 659.97 376.48 662.03 376.12 664.08 375.76 C 665.62 376.97 667.54 378.03 668.20 380.01 C 668.85 383.39 668.59 386.95 667.25 390.14 C 665.07 395.50 665.15 401.45 662.93 406.79 C 660.77 411.88 660.78 417.55 658.89 422.72 C 656.84 428.40 656.66 434.57 654.24 440.13 C 652.59 443.76 652.47 447.74 652.10 451.64 C 650.84 454.79 650.12 458.11 649.23 461.37 C 648.98 461.59 648.47 462.02 648.21 462.24 C 644.30 461.73 640.50 460.66 636.62 459.98 C 636.19 455.94 639.98 453.03 640.14 449.06 C 640.70 446.04 639.52 442.07 636.01 441.65 C 629.98 441.42 625.02 445.92 621.77 450.58 C 612.12 444.56 599.07 456.01 602.68 466.40 C 605.96 473.29 612.47 478.06 618.87 481.89 C 621.01 479.45 623.00 476.86 624.29 473.85 C 630.00 473.94 635.52 475.67 641.05 476.93 C 640.47 477.80 640.00 478.73 639.66 479.72 C 635.10 478.92 630.63 477.54 626.01 477.15 C 623.47 476.65 621.92 479.93 622.77 482.02 C 626.67 485.73 633.63 483.54 637.26 487.34 C 634.32 487.01 631.36 486.11 628.40 486.44 C 625.78 487.21 626.25 490.28 626.51 492.36 C 631.59 493.76 636.83 494.40 641.95 495.62 C 641.08 496.61 639.98 497.56 639.99 499.00 C 639.09 505.83 637.35 512.57 634.76 518.95 C 632.50 524.87 626.05 527.70 620.19 528.56 C 615.29 530.98 610.03 532.64 605.35 535.49 C 601.20 537.84 596.47 538.98 592.49 541.64 C 588.47 544.35 583.43 544.85 579.39 547.54 C 574.38 550.80 568.18 551.64 563.56 555.58 C 560.34 556.64 557.65 554.30 555.00 552.88 C 557.85 550.53 559.83 547.24 560.53 543.61 C 569.30 505.38 578.22 467.20 587.05 428.99 C 588.05 423.34 590.26 417.86 590.06 412.04 C 591.96 409.32 594.17 406.64 597.31 405.31 C 617.53 395.84 637.71 386.32 657.92 376.83 Z" />
</g>
<g id="#b8535aff">
<path fill="#b8535a" opacity="1.00" d=" M 395.76 379.55 C 396.62 378.45 397.74 377.62 399.01 377.05 C 399.72 379.02 397.49 380.69 395.76 379.55 Z" />
</g>
<g id="#26b7beff">
<path fill="#26b7be" opacity="1.00" d=" M 786.56 383.00 C 786.63 380.89 789.24 379.84 790.93 380.90 C 796.26 383.48 801.33 387.89 802.68 393.89 C 802.25 394.11 801.41 394.56 800.98 394.78 C 799.00 395.74 797.00 394.64 795.25 393.76 C 790.98 391.66 787.85 387.52 786.56 383.00 Z" />
<path fill="#26b7be" opacity="1.00" d=" M 782.44 412.61 C 786.27 411.71 789.57 414.50 792.53 416.51 C 797.09 420.23 801.89 424.84 802.62 431.00 C 800.32 431.41 798.03 431.91 795.76 432.48 C 788.66 429.91 782.93 424.02 780.54 416.88 C 779.99 415.22 780.64 413.11 782.44 412.61 Z" />
</g>
<g id="#26b8bcff">
<path fill="#26b8bc" opacity="1.00" d=" M 809.81 389.93 C 813.16 385.34 818.05 379.90 824.31 380.76 C 825.03 386.71 820.10 391.64 815.28 394.32 C 813.59 394.08 811.91 393.90 810.23 393.78 C 810.08 392.49 809.93 391.21 809.81 389.93 Z" />
</g>
<g id="#57acb2ff">
<path fill="#57acb2" opacity="1.00" d=" M 804.81 383.91 L 806.25 383.72 C 806.30 387.82 806.29 391.93 806.42 396.04 C 808.11 394.35 809.06 392.17 809.81 389.93 C 809.93 391.21 810.08 392.49 810.23 393.78 C 811.91 393.90 813.59 394.08 815.28 394.32 C 812.26 395.53 807.90 394.65 806.41 398.30 C 806.10 403.49 806.42 408.71 806.27 413.92 C 806.98 413.31 807.70 412.71 808.43 412.11 C 810.39 412.70 812.34 413.32 814.36 413.76 C 812.55 413.96 810.75 413.96 808.97 413.73 C 808.02 414.76 806.29 415.51 806.35 417.13 C 806.25 422.37 806.30 427.62 806.34 432.86 C 807.02 432.18 807.70 431.51 808.38 430.82 C 808.72 431.12 809.39 431.73 809.72 432.04 C 808.50 433.20 806.27 433.97 806.33 435.95 C 806.25 442.03 806.31 448.13 806.32 454.22 C 808.98 453.19 808.56 450.06 809.47 447.83 C 809.74 449.97 810.15 452.10 810.67 454.20 C 808.86 453.81 807.63 455.35 806.31 456.27 C 806.28 462.39 806.40 468.51 806.23 474.64 C 806.70 474.65 807.64 474.66 808.11 474.67 L 807.93 475.36 C 807.36 476.53 806.31 477.58 806.30 478.96 C 806.20 486.24 806.50 493.54 806.14 500.82 C 806.52 500.52 807.28 499.94 807.66 499.65 C 807.81 500.25 808.13 501.45 808.29 502.05 L 806.42 502.61 C 805.99 502.63 805.14 502.68 804.71 502.71 L 803.56 502.26 C 803.06 501.77 802.07 500.79 801.57 500.30 C 797.95 501.56 794.00 501.35 790.59 499.58 C 794.12 499.57 797.65 499.27 801.19 499.22 C 801.33 497.40 801.51 495.58 801.67 493.78 C 802.46 496.38 802.05 499.58 804.70 501.18 C 804.79 493.76 804.79 486.32 804.76 478.90 C 804.93 477.18 803.24 476.31 802.35 475.13 L 802.37 473.82 C 803.17 474.17 803.99 474.52 804.81 474.88 C 804.72 468.69 804.79 462.51 804.76 456.32 C 803.36 455.15 802.04 453.32 799.97 453.94 C 800.64 453.67 801.98 453.13 802.65 452.85 C 803.36 453.19 804.09 453.53 804.82 453.87 C 804.71 447.89 804.86 441.90 804.73 435.92 C 804.85 434.16 803.00 433.35 801.95 432.29 C 799.91 432.72 797.81 432.90 795.76 432.48 C 798.03 431.91 800.32 431.41 802.62 431.00 C 803.32 431.37 804.02 431.74 804.74 432.12 C 804.66 427.10 804.93 422.09 804.74 417.08 C 804.76 415.49 803.10 414.72 802.18 413.69 C 800.36 413.86 798.54 413.89 796.74 413.74 C 798.81 413.59 800.77 412.85 802.70 412.08 C 803.37 412.65 804.05 413.23 804.74 413.82 C 804.71 408.56 804.97 403.29 804.66 398.05 C 803.83 396.59 802.21 395.83 800.98 394.78 C 801.41 394.56 802.25 394.11 802.68 393.89 C 803.39 394.50 804.10 395.15 804.81 395.80 C 804.70 391.83 804.72 387.87 804.81 383.91 Z" />
</g>
<g id="#c45b55ff">
<path fill="#c45b55" opacity="1.00" d=" M 379.42 397.78 C 380.73 395.58 382.24 393.51 383.91 391.55 C 383.53 394.26 382.37 397.10 379.42 397.78 Z" />
</g>
<g id="#27b7bfff">
<path fill="#27b7bf" opacity="1.00" d=" M 815.49 401.51 C 818.61 398.89 822.25 396.21 826.54 396.41 C 827.13 397.84 828.14 399.39 827.35 400.98 C 825.15 406.87 820.33 411.73 814.36 413.76 C 812.34 413.32 810.39 412.70 808.43 412.11 C 809.54 407.89 812.20 404.31 815.49 401.51 Z" />
<path fill="#27b7bf" opacity="1.00" d=" M 783.59 399.99 C 782.85 396.77 786.57 395.60 788.91 397.05 C 795.06 400.08 800.93 405.22 802.70 412.08 C 800.77 412.85 798.81 413.59 796.74 413.74 C 790.55 411.56 785.40 406.31 783.59 399.99 Z" />
</g>
<g id="#c55b59ff">
<path fill="#c55b59" opacity="1.00" d=" M 373.57 407.96 C 375.02 404.71 376.74 401.58 378.82 398.69 C 378.53 402.36 376.75 405.98 373.57 407.96 Z" />
</g>
<g id="#26b7bfff">
<path fill="#26b7bf" opacity="1.00" d=" M 819.10 416.22 C 822.03 414.32 825.27 411.67 829.01 412.62 C 831.05 413.33 830.87 415.85 830.40 417.53 C 828.59 422.50 825.09 426.81 820.75 429.79 C 817.58 431.90 813.47 433.68 809.72 432.04 C 809.39 431.73 808.72 431.12 808.38 430.82 C 809.65 424.65 814.27 419.93 819.10 416.22 Z" />
</g>
<g id="#26b8beff">
<path fill="#26b8be" opacity="1.00" d=" M 777.37 434.13 C 777.45 430.96 781.31 430.88 783.58 431.56 C 788.12 433.14 792.00 436.23 795.40 439.57 C 798.86 443.26 802.43 447.53 802.65 452.85 C 801.98 453.13 800.64 453.67 799.97 453.94 C 794.04 455.46 788.66 451.18 784.47 447.53 C 781.14 443.78 777.50 439.36 777.37 434.13 Z" />
</g>
<g id="#25b8beff">
<path fill="#25b8be" opacity="1.00" d=" M 826.81 431.82 C 829.02 430.76 831.54 431.19 833.65 432.32 C 834.63 437.84 830.89 442.53 827.60 446.51 C 823.22 450.99 817.28 455.22 810.67 454.20 C 810.15 452.10 809.74 449.97 809.47 447.83 C 813.48 440.92 819.52 435.13 826.81 431.82 Z" />
</g>
<g id="#fefbfaff">
<path fill="#fefbfa" opacity="1.00" d=" M 467.18 442.89 C 467.56 440.31 471.82 437.46 473.61 440.40 C 479.83 447.99 485.83 455.77 492.13 463.30 C 491.65 466.06 490.73 468.71 489.95 471.40 C 483.09 463.42 476.74 455.01 470.01 446.92 C 468.98 445.64 467.81 444.42 467.18 442.89 Z" />
</g>
<g id="#d5492dff">
<path fill="#d5492d" opacity="1.00" d=" M 423.38 448.26 C 424.76 445.83 425.62 442.41 428.86 441.95 C 428.39 444.99 427.09 447.78 425.44 450.36 C 416.32 467.28 407.54 484.37 398.33 501.25 C 396.99 503.46 395.77 506.47 392.86 506.89 C 389.59 507.69 386.41 506.24 383.52 504.88 C 380.64 503.33 377.01 502.71 375.08 499.81 C 379.32 499.10 382.74 502.33 386.63 503.42 C 389.33 504.45 393.50 505.29 395.02 502.03 C 404.49 484.12 413.84 466.15 423.38 448.26 Z" />
</g>
<g id="#26b8bfff">
<path fill="#26b8bf" opacity="1.00" d=" M 775.72 450.73 C 778.19 449.53 781.20 450.24 783.56 451.41 C 790.24 455.08 796.19 460.25 800.27 466.74 C 801.60 468.84 802.60 471.28 802.37 473.82 L 802.35 475.13 C 799.96 475.75 797.49 476.80 795.02 475.96 C 785.95 473.60 778.87 466.28 775.06 457.93 C 774.05 455.67 773.42 452.41 775.72 450.73 Z" />
<path fill="#26b8bf" opacity="1.00" d=" M 823.75 453.75 C 827.07 451.42 831.21 449.11 835.37 450.63 C 837.50 452.20 837.02 455.34 836.22 457.51 C 832.72 465.87 825.79 473.11 816.94 475.67 C 813.99 476.69 810.91 475.61 807.93 475.36 L 808.11 474.67 C 809.64 465.66 816.44 458.67 823.75 453.75 Z" />
<path fill="#26b8bf" opacity="1.00" d=" M 833.19 472.29 C 835.41 472.06 838.67 471.68 839.66 474.30 C 841.08 477.25 839.34 480.40 838.01 483.04 C 833.58 491.64 825.69 498.85 816.10 501.00 C 813.51 500.96 809.62 501.32 808.50 498.35 C 809.04 491.77 813.75 486.62 818.04 482.02 C 822.47 477.98 827.39 474.07 833.19 472.29 Z" />
</g>
<g id="#fe9885ff">
<path fill="#fe9885" opacity="1.00" d=" M 652.10 451.64 C 653.92 451.76 655.74 452.05 657.53 452.48 C 659.08 456.02 657.36 459.71 656.43 463.16 C 661.08 466.01 662.25 471.96 661.25 476.99 C 659.94 483.87 657.10 491.01 651.16 495.16 C 648.53 497.36 644.93 496.23 641.95 495.62 C 636.83 494.40 631.59 493.76 626.51 492.36 C 626.25 490.28 625.78 487.21 628.40 486.44 C 631.36 486.11 634.32 487.01 637.26 487.34 C 633.63 483.54 626.67 485.73 622.77 482.02 C 621.92 479.93 623.47 476.65 626.01 477.15 C 630.63 477.54 635.10 478.92 639.66 479.72 C 640.00 478.73 640.47 477.80 641.05 476.93 C 635.52 475.67 630.00 473.94 624.29 473.85 C 623.18 472.47 621.33 470.54 622.76 468.74 C 624.71 466.03 628.37 467.83 631.05 468.03 C 635.26 468.80 639.40 469.97 643.66 470.50 C 644.85 470.77 646.61 469.93 645.44 468.62 C 640.37 467.20 635.18 465.95 629.90 465.71 C 629.16 465.10 628.41 464.52 627.66 463.97 C 627.88 462.42 627.64 460.21 629.30 459.40 C 631.73 458.83 634.22 459.61 636.62 459.98 C 640.50 460.66 644.30 461.73 648.21 462.24 C 648.47 462.02 648.98 461.59 649.23 461.37 C 650.12 458.11 650.84 454.79 652.10 451.64 Z" />
</g>
<g id="#fec7bdff">
<path fill="#fec7bd" opacity="1.00" d=" M 629.90 465.71 C 635.18 465.95 640.37 467.20 645.44 468.62 C 646.61 469.93 644.85 470.77 643.66 470.50 C 639.40 469.97 635.26 468.80 631.05 468.03 C 630.76 467.45 630.19 466.29 629.90 465.71 Z" />
</g>
<g id="#fec8c1ff">
<path fill="#fec8c1" opacity="1.00" d=" M 778.46 502.52 C 780.67 500.94 783.48 501.77 785.97 501.89 C 791.81 502.54 797.69 502.31 803.56 502.26 L 804.71 502.71 C 796.17 503.55 787.57 502.77 779.00 503.13 C 778.72 517.87 779.05 532.63 778.80 547.37 C 777.11 544.17 777.88 540.48 777.78 537.03 C 777.72 527.35 777.86 517.68 777.68 508.00 C 777.72 506.16 777.62 504.20 778.46 502.52 Z" />
</g>
<g id="#ce6d59ff">
<path fill="#ce6d59" opacity="1.00" d=" M 804.71 502.71 C 805.14 502.68 805.99 502.63 806.42 502.61 C 814.98 503.57 823.64 502.69 832.25 503.05 L 832.35 504.23 C 815.28 504.22 798.21 504.31 781.14 504.36 C 780.40 506.14 780.00 508.03 780.02 509.96 C 779.73 519.96 780.06 529.96 780.01 539.97 C 780.13 542.92 780.15 545.90 779.40 548.79 C 779.25 548.44 778.95 547.73 778.80 547.37 C 779.05 532.63 778.72 517.87 779.00 503.13 C 787.57 502.77 796.17 503.55 804.71 502.71 Z" />
</g>
<g id="#fdd4cfff">
<path fill="#fdd4cf" opacity="1.00" d=" M 806.42 502.61 L 808.29 502.05 C 816.10 502.67 824.02 501.11 831.87 502.09 L 832.25 503.05 C 823.64 502.69 814.98 503.57 806.42 502.61 Z" />
</g>
<g id="#6e72a1ff">
<path fill="#6e72a1" opacity="1.00" d=" M 172.21 503.98 C 176.39 503.34 180.62 503.70 184.82 503.58 C 185.00 510.89 184.75 518.21 185.07 525.53 C 181.00 525.99 176.83 525.40 172.84 526.48 L 172.34 526.51 C 172.14 519.00 172.36 511.49 172.21 503.98 Z" />
<path fill="#6e72a1" opacity="1.00" d=" M 203.18 503.58 C 213.08 503.67 222.98 503.57 232.88 503.64 C 231.79 511.02 232.30 518.51 232.58 525.93 C 222.68 525.51 212.75 526.22 202.86 525.52 C 203.40 518.22 202.95 510.90 203.18 503.58 Z" />
</g>
<g id="#4c5273ff">
<path fill="#4c5273" opacity="1.00" d=" M 184.82 503.58 C 190.94 503.51 197.06 503.52 203.18 503.58 C 202.95 510.90 203.40 518.22 202.86 525.52 C 196.93 525.37 190.99 525.41 185.07 525.53 C 184.75 518.21 185.00 510.89 184.82 503.58 Z" />
</g>
<g id="#544d6cff">
<path fill="#544d6c" opacity="1.00" d=" M 232.88 503.64 C 251.91 503.62 270.93 503.59 289.96 503.64 C 291.67 503.39 293.00 504.42 294.15 505.54 L 293.43 505.97 C 278.97 505.87 264.50 505.92 250.03 505.91 C 245.43 505.99 240.80 505.60 236.24 506.31 C 237.04 512.19 236.63 518.16 236.48 524.07 C 255.60 524.24 274.73 524.18 293.85 524.09 C 293.69 524.69 293.35 525.88 293.18 526.48 L 292.62 526.48 C 289.79 525.97 286.92 525.78 284.06 525.92 C 267.16 526.05 250.27 525.90 233.38 525.98 L 232.58 525.93 C 232.30 518.51 231.79 511.02 232.88 503.64 Z" />
</g>
<g id="#7e6464ff">
<path fill="#7e6464" opacity="1.00" d=" M 185.07 525.53 C 190.99 525.41 196.93 525.37 202.86 525.52 C 212.75 526.22 222.68 525.51 232.58 525.93 L 233.38 525.98 L 234.25 526.85 C 232.00 526.83 229.76 526.85 227.51 526.85 C 209.28 526.45 191.05 527.95 172.84 526.48 C 176.83 525.40 181.00 525.99 185.07 525.53 Z" />
</g>
<g id="#f75b38ff">
<path fill="#f75b38" opacity="1.00" d=" M 472.03 525.94 C 473.77 525.01 475.69 525.39 477.50 525.89 C 477.80 529.24 478.63 533.50 482.29 534.71 C 491.54 538.55 501.21 541.28 510.54 544.93 C 510.57 548.86 510.66 552.78 510.86 556.70 C 496.27 556.72 481.67 556.67 467.08 556.73 C 436.12 556.72 405.16 556.72 374.20 556.75 C 374.17 556.03 374.10 554.58 374.07 553.85 C 407.59 547.96 440.17 537.77 472.03 525.94 Z" />
</g>
<g id="#e59758ff">
<path fill="#e59758" opacity="1.00" d=" M 172.34 526.51 L 172.84 526.48 C 191.05 527.95 209.28 526.45 227.51 526.85 C 227.96 527.14 228.84 527.74 229.29 528.04 C 230.77 530.79 230.26 534.00 230.33 537.00 C 230.16 543.19 230.81 549.44 229.70 555.57 C 226.08 557.53 221.87 556.72 217.95 556.81 C 202.27 556.73 186.60 556.78 170.92 556.79 C 164.61 556.72 158.29 557.04 151.99 556.46 C 151.56 555.42 151.14 554.39 150.74 553.35 C 174.50 553.32 198.27 553.35 222.04 553.33 C 223.19 553.44 224.16 552.75 225.02 552.09 C 226.46 548.56 226.14 544.71 226.23 540.99 C 226.15 537.71 226.55 534.21 224.94 531.21 C 224.82 531.01 224.59 530.60 224.48 530.39 C 220.04 529.41 215.48 529.93 210.99 529.82 C 190.82 529.71 170.65 530.03 150.49 529.64 C 151.52 528.15 152.91 526.65 154.89 526.73 C 160.70 526.41 166.53 526.91 172.34 526.51 Z" />
</g>
<g id="#6d684dff">
<path fill="#6d684d" opacity="1.00" d=" M 233.38 525.98 C 250.27 525.90 267.16 526.05 284.06 525.92 C 286.92 525.78 289.79 525.97 292.62 526.48 C 290.78 526.82 288.91 527.14 287.04 527.06 C 269.44 526.86 251.84 527.24 234.25 526.85 L 233.38 525.98 Z" />
</g>
<g id="#efe2a3ff">
<path fill="#efe2a3" opacity="1.00" d=" M 292.62 526.48 L 293.18 526.48 C 297.14 526.55 301.12 526.25 305.08 526.61 C 306.29 526.80 308.39 527.30 308.22 528.92 C 308.46 538.19 308.31 547.48 308.16 556.75 C 307.37 556.77 305.79 556.80 305.00 556.82 C 306.18 554.73 307.46 552.55 307.26 550.06 C 307.10 542.80 307.61 535.53 306.88 528.30 C 303.60 527.96 300.31 527.66 297.01 527.87 C 281.37 528.82 265.70 528.11 250.05 528.36 C 243.13 528.12 236.18 528.70 229.29 528.04 C 228.84 527.74 227.96 527.14 227.51 526.85 C 229.76 526.85 232.00 526.83 234.25 526.85 C 251.84 527.24 269.44 526.86 287.04 527.06 C 288.91 527.14 290.78 526.82 292.62 526.48 Z" />
</g>
<g id="#fee67aff">
<path fill="#fee67a" opacity="1.00" d=" M 229.29 528.04 C 236.18 528.70 243.13 528.12 250.05 528.36 C 265.70 528.11 281.37 528.82 297.01 527.87 C 300.31 527.66 303.60 527.96 306.88 528.30 C 307.61 535.53 307.10 542.80 307.26 550.06 C 307.46 552.55 306.18 554.73 305.00 556.82 C 281.67 556.82 258.33 556.72 234.99 556.89 C 233.14 556.90 231.14 556.90 229.70 555.57 C 230.81 549.44 230.16 543.19 230.33 537.00 C 230.26 534.00 230.77 530.79 229.29 528.04 M 256.96 537.04 C 255.00 538.74 253.83 541.20 253.35 543.73 C 257.35 549.20 264.43 551.38 270.97 551.31 C 276.48 551.52 282.06 550.48 286.96 547.92 C 288.65 546.11 292.07 543.65 290.06 540.96 C 288.04 536.08 282.54 535.11 277.97 534.07 C 270.87 533.13 263.40 533.72 256.96 537.04 Z" />
</g>
<g id="#e36f5dff">
<path fill="#e36f5d" opacity="1.00" d=" M 223.76 542.98 C 224.20 539.08 222.61 534.67 224.94 531.21 C 226.55 534.21 226.15 537.71 226.23 540.99 C 226.14 544.71 226.46 548.56 225.02 552.09 C 222.72 549.71 224.10 545.96 223.76 542.98 Z" />
</g>
<g id="#fbc875ff">
<path fill="#fbc875" opacity="1.00" d=" M 256.96 537.04 C 263.40 533.72 270.87 533.13 277.97 534.07 C 282.54 535.11 288.04 536.08 290.06 540.96 C 292.07 543.65 288.65 546.11 286.96 547.92 C 282.06 550.48 276.48 551.52 270.97 551.31 C 264.43 551.38 257.35 549.20 253.35 543.73 C 253.83 541.20 255.00 538.74 256.96 537.04 Z" />
</g>
<g id="#c8d1faff">
<path fill="#c8d1fa" opacity="1.00" d=" M 707.19 545.11 C 713.05 544.61 719.01 544.30 724.87 544.93 C 724.96 545.49 725.14 546.61 725.24 547.17 C 725.27 549.87 725.28 552.58 725.12 555.29 C 724.98 555.60 724.71 556.22 724.57 556.53 C 718.99 557.03 713.38 556.71 707.80 556.87 C 706.73 553.03 707.03 549.04 707.19 545.11 Z" />
</g>
<g id="#ffe5d4ff">
<path fill="#ffe5d4" opacity="1.00" d=" M 510.54 544.93 C 510.95 545.10 511.77 545.43 512.18 545.59 C 512.43 549.06 511.25 553.59 514.01 556.24 C 519.03 556.70 524.12 555.79 529.11 556.85 C 531.87 557.52 534.58 556.53 537.18 555.70 C 534.75 554.45 532.33 553.19 529.91 551.95 C 534.91 552.75 539.39 555.24 544.24 556.55 C 548.26 557.66 551.96 555.20 555.00 552.88 C 557.65 554.30 560.34 556.64 563.56 555.58 C 565.06 556.46 566.66 557.21 568.44 557.36 C 576.29 558.15 584.18 557.35 592.02 556.81 C 630.61 556.81 669.20 556.72 707.80 556.87 C 713.38 556.71 718.99 557.03 724.57 556.53 C 724.71 556.22 724.98 555.60 725.12 555.29 C 728.29 557.58 732.34 556.55 735.97 556.74 C 744.06 556.49 752.18 557.24 760.24 556.36 C 765.10 555.95 769.94 556.89 774.80 556.68 C 776.94 556.58 779.08 556.79 781.14 557.43 C 781.66 556.24 782.22 555.07 782.81 553.92 C 785.38 556.01 788.72 556.63 791.98 556.52 C 801.98 556.42 811.99 556.63 822.00 556.43 C 827.05 556.28 830.62 552.01 832.39 547.66 C 833.29 551.06 830.60 553.58 828.82 556.13 C 841.54 556.53 854.29 556.33 867.02 556.26 C 866.25 572.15 867.06 588.08 866.68 603.97 C 866.84 605.40 865.25 605.91 864.13 605.72 C 731.71 605.70 599.28 605.77 466.86 605.67 C 466.99 589.36 466.50 573.03 467.08 556.73 C 481.67 556.67 496.27 556.72 510.86 556.70 C 510.66 552.78 510.57 548.86 510.54 544.93 Z" />
</g>
<g id="#e3e9f9ff">
<path fill="#e3e9f9" opacity="1.00" d=" M 512.18 545.59 C 518.10 547.69 524.12 549.53 529.91 551.95 C 532.33 553.19 534.75 554.45 537.18 555.70 C 534.58 556.53 531.87 557.52 529.11 556.85 C 524.12 555.79 519.03 556.70 514.01 556.24 C 511.25 553.59 512.43 549.06 512.18 545.59 Z" />
</g>
<g id="#fadacfff">
<path fill="#fadacf" opacity="1.00" d=" M 358.33 557.10 C 362.78 554.46 368.30 554.68 373.30 553.97 C 373.21 554.82 373.03 556.53 372.94 557.39 C 368.07 557.38 363.18 557.72 358.33 557.10 Z" />
</g>
<g id="#fcc49fff">
<path fill="#fcc49f" opacity="1.00" d=" M 373.30 553.97 L 374.07 553.85 C 374.10 554.58 374.17 556.03 374.20 556.75 C 405.16 556.72 436.12 556.72 467.08 556.73 C 466.50 573.03 466.99 589.36 466.86 605.67 C 356.67 605.61 246.47 605.66 136.28 605.64 C 135.18 589.99 137.00 574.21 135.70 558.54 C 136.03 558.10 136.68 557.22 137.00 556.78 C 142.00 556.53 147.00 556.67 151.99 556.46 C 158.29 557.04 164.61 556.72 170.92 556.79 C 186.60 556.78 202.27 556.73 217.95 556.81 C 221.87 556.72 226.08 557.53 229.70 555.57 C 231.14 556.90 233.14 556.90 234.99 556.89 C 258.33 556.72 281.67 556.82 305.00 556.82 C 305.79 556.80 307.37 556.77 308.16 556.75 C 316.34 556.51 324.52 556.93 332.70 556.64 C 332.58 556.21 332.33 555.35 332.20 554.92 C 334.30 556.00 336.55 556.94 338.97 556.81 C 345.35 556.75 351.78 557.10 358.09 555.98 C 357.91 556.41 357.55 557.27 357.37 557.70 C 362.56 557.50 367.77 557.98 372.94 557.39 C 373.03 556.53 373.21 554.82 373.30 553.97 Z" />
</g>
</svg>
