<?xml version="1.0" encoding="UTF-8" ?>
<!DOCTYPE svg PUBLIC "-//W3C//DTD SVG 1.1//EN" "http://www.w3.org/Graphics/SVG/1.1/DTD/svg11.dtd">
<svg width="512pt" height="512pt" viewBox="0 0 512 512" version="1.1" xmlns="http://www.w3.org/2000/svg">
<g id="#1976d2ff">
<path fill="#1976d2" opacity="1.00" d=" M 61.44 0.00 L 449.63 0.00 C 464.66 0.48 479.45 6.27 490.63 16.35 C 503.67 27.90 511.47 44.94 512.00 62.32 L 512.00 449.65 C 511.50 465.17 505.32 480.42 494.65 491.72 C 483.33 503.92 467.13 511.20 450.54 512.00 L 352.00 512.00 C 352.00 453.33 351.99 394.67 352.01 336.00 C 368.00 335.99 384.00 336.01 399.99 335.99 C 410.68 309.34 421.33 282.67 431.99 256.01 C 405.33 255.99 378.67 256.01 352.00 256.00 C 352.00 235.33 352.00 214.65 352.00 193.99 C 352.04 189.20 352.42 183.71 356.25 180.29 C 360.53 176.54 366.59 176.28 372.00 176.05 C 386.66 175.94 401.33 176.03 416.00 176.00 C 416.00 149.33 416.00 122.67 416.00 96.00 C 394.32 96.04 372.64 95.91 350.96 96.07 C 330.68 96.25 310.54 103.04 294.38 115.30 C 271.10 132.59 256.48 160.89 256.10 189.92 C 255.86 211.94 256.07 233.97 256.00 256.00 C 234.67 256.01 213.33 255.99 192.00 256.00 C 192.00 282.67 192.00 309.33 192.00 336.00 C 213.33 336.01 234.66 335.99 255.99 336.00 C 256.01 394.67 256.00 453.33 256.00 512.00 L 61.60 512.00 C 46.84 511.29 32.36 505.57 21.37 495.65 C 8.54 484.30 0.82 467.63 0.00 450.55 L 0.00 61.56 C 0.79 44.44 8.51 27.72 21.38 16.34 C 32.33 6.46 46.74 0.76 61.44 0.00 Z" />
</g>
<g id="#fafafaff">
<path fill="#fafafa" opacity="1.00" d=" M 294.38 115.30 C 310.54 103.04 330.68 96.25 350.96 96.07 C 372.64 95.91 394.32 96.04 416.00 96.00 C 416.00 122.67 416.00 149.33 416.00 176.00 C 401.33 176.03 386.66 175.94 372.00 176.05 C 366.59 176.28 360.53 176.54 356.25 180.29 C 352.42 183.71 352.04 189.20 352.00 193.99 C 352.00 214.65 352.00 235.33 352.00 256.00 C 378.67 256.01 405.33 255.99 431.99 256.01 C 421.33 282.67 410.68 309.34 399.99 335.99 C 384.00 336.01 368.00 335.99 352.01 336.00 C 351.99 394.67 352.00 453.33 352.00 512.00 L 256.00 512.00 C 256.00 453.33 256.01 394.67 255.99 336.00 C 234.66 335.99 213.33 336.01 192.00 336.00 C 192.00 309.33 192.00 282.67 192.00 256.00 C 213.33 255.99 234.67 256.01 256.00 256.00 C 256.07 233.97 255.86 211.94 256.10 189.92 C 256.48 160.89 271.10 132.59 294.38 115.30 Z" />
</g>
</svg>
