<?xml version="1.0" encoding="UTF-8" ?>
<!DOCTYPE svg PUBLIC "-//W3C//DTD SVG 1.1//EN" "http://www.w3.org/Graphics/SVG/1.1/DTD/svg11.dtd">
<svg width="512pt" height="512pt" viewBox="0 0 512 512" version="1.1" xmlns="http://www.w3.org/2000/svg">
<g id="#0077b5ff">
<path fill="#0077b5" opacity="1.00" d=" M 66.15 0.00 L 445.54 0.00 C 462.93 0.93 479.93 8.36 492.07 20.90 C 504.26 33.20 511.39 50.19 512.00 67.47 L 512.00 445.07 C 511.24 460.97 505.12 476.60 494.49 488.49 C 482.16 502.61 463.94 511.11 445.27 512.00 L 66.46 512.00 C 50.74 511.11 35.30 505.05 23.55 494.51 C 9.40 482.20 0.87 463.95 0.00 445.26 L 0.00 66.36 C 0.93 49.48 7.97 32.96 19.90 20.92 C 31.99 8.46 48.85 1.02 66.15 0.00 M 132.50 96.81 C 115.53 99.88 101.29 113.97 98.06 130.92 C 95.36 143.70 98.88 157.60 107.31 167.57 C 114.63 176.43 125.60 182.16 137.05 183.08 C 149.66 184.25 162.65 179.53 171.57 170.54 C 181.09 161.18 185.87 147.26 184.04 134.03 C 182.36 120.12 173.44 107.37 160.99 100.97 C 152.33 96.42 142.11 94.95 132.50 96.81 M 295.09 207.16 C 285.86 212.02 278.41 219.69 272.64 228.29 C 272.58 222.51 272.74 216.73 272.58 210.96 C 272.46 205.99 268.01 201.62 263.03 201.63 C 247.02 201.57 231.01 201.60 215.00 201.61 C 209.51 201.38 204.69 206.45 205.02 211.90 C 205.01 276.63 204.97 341.36 205.04 406.09 C 204.87 411.83 210.37 416.59 216.01 416.00 C 231.38 415.99 246.75 416.02 262.12 415.99 C 265.96 416.13 269.78 413.92 271.44 410.44 C 272.91 407.50 272.42 404.13 272.51 400.97 C 272.51 368.03 272.46 335.09 272.53 302.15 C 273.63 288.65 277.51 274.26 287.73 264.73 C 296.54 256.44 309.84 254.90 321.18 257.89 C 328.74 259.88 335.22 265.18 338.93 272.03 C 344.36 282.07 345.58 293.75 345.66 305.00 C 345.56 338.67 345.59 372.35 345.63 406.03 C 345.44 411.50 350.47 416.28 355.91 415.98 C 372.29 416.00 388.67 416.04 405.05 415.96 C 410.33 416.09 415.04 411.37 414.92 406.10 C 415.00 377.72 414.93 349.35 414.95 320.97 C 414.90 301.00 415.26 280.84 411.41 261.15 C 408.15 244.30 401.37 227.34 388.40 215.60 C 375.91 204.09 358.72 199.20 342.06 198.51 C 326.08 197.89 309.38 199.44 295.09 207.16 M 113.33 202.51 C 109.31 204.25 106.74 208.59 106.95 212.95 C 106.94 276.98 106.91 341.01 106.96 405.03 C 106.72 410.93 112.04 416.20 117.92 415.97 C 133.30 416.00 148.68 416.05 164.05 415.95 C 169.82 415.96 174.76 410.69 174.53 404.95 C 174.56 340.95 174.55 276.94 174.54 212.93 C 174.92 207.06 169.90 201.53 163.97 201.58 C 149.63 201.46 135.29 201.59 120.96 201.52 C 118.40 201.55 115.71 201.39 113.33 202.51 Z" />
</g>
<g id="#ffffffff">
<path fill="#ffffff" opacity="1.00" d=" M 132.50 96.81 C 142.11 94.95 152.33 96.42 160.99 100.97 C 173.44 107.37 182.36 120.12 184.04 134.03 C 185.87 147.26 181.09 161.18 171.57 170.54 C 162.65 179.53 149.66 184.25 137.05 183.08 C 125.60 182.16 114.63 176.43 107.31 167.57 C 98.88 157.60 95.36 143.70 98.06 130.92 C 101.29 113.97 115.53 99.88 132.50 96.81 Z" />
<path fill="#ffffff" opacity="1.00" d=" M 295.09 207.16 C 309.38 199.44 326.08 197.89 342.06 198.51 C 358.72 199.20 375.91 204.09 388.40 215.60 C 401.37 227.34 408.15 244.30 411.41 261.15 C 415.26 280.84 414.90 301.00 414.95 320.97 C 414.93 349.35 415.00 377.72 414.92 406.10 C 415.04 411.37 410.33 416.09 405.05 415.96 C 388.67 416.04 372.29 416.00 355.91 415.98 C 350.47 416.28 345.44 411.50 345.63 406.03 C 345.59 372.35 345.56 338.67 345.66 305.00 C 345.58 293.75 344.36 282.07 338.93 272.03 C 335.22 265.18 328.74 259.88 321.18 257.89 C 309.84 254.90 296.54 256.44 287.73 264.73 C 277.51 274.26 273.63 288.65 272.53 302.15 C 272.46 335.09 272.51 368.03 272.51 400.97 C 272.42 404.13 272.91 407.50 271.44 410.44 C 269.78 413.92 265.96 416.13 262.12 415.99 C 246.75 416.02 231.38 415.99 216.01 416.00 C 210.37 416.59 204.87 411.83 205.04 406.09 C 204.97 341.36 205.01 276.63 205.02 211.90 C 204.69 206.45 209.51 201.38 215.00 201.61 C 231.01 201.60 247.02 201.57 263.03 201.63 C 268.01 201.62 272.46 205.99 272.58 210.96 C 272.74 216.73 272.58 222.51 272.64 228.29 C 278.41 219.69 285.86 212.02 295.09 207.16 Z" />
<path fill="#ffffff" opacity="1.00" d=" M 113.33 202.51 C 115.71 201.39 118.40 201.55 120.96 201.52 C 135.29 201.59 149.63 201.46 163.97 201.58 C 169.90 201.53 174.92 207.06 174.54 212.93 C 174.55 276.94 174.56 340.95 174.53 404.95 C 174.76 410.69 169.82 415.96 164.05 415.95 C 148.68 416.05 133.30 416.00 117.92 415.97 C 112.04 416.20 106.72 410.93 106.96 405.03 C 106.91 341.01 106.94 276.98 106.95 212.95 C 106.74 208.59 109.31 204.25 113.33 202.51 Z" />
</g>
</svg>
