<?xml version="1.0" encoding="UTF-8" ?>
<!DOCTYPE svg PUBLIC "-//W3C//DTD SVG 1.1//EN" "http://www.w3.org/Graphics/SVG/1.1/DTD/svg11.dtd">
<svg width="1000pt" height="794pt" viewBox="0 0 1000 794" version="1.1" xmlns="http://www.w3.org/2000/svg">
<g id="#ffffffff">
<path fill="#ffffff" opacity="1.00" d=" M 337.32 485.41 C 341.85 483.22 347.94 485.51 349.77 490.23 C 352.95 495.95 347.47 503.90 341.01 503.17 C 336.25 502.98 331.75 498.91 331.99 493.98 C 331.66 490.28 333.96 486.85 337.32 485.41 Z" />
<path fill="#ffffff" opacity="1.00" d=" M 449.30 553.59 C 463.57 553.58 477.83 553.60 492.09 553.58 C 492.08 561.41 492.10 569.25 492.09 577.09 C 477.79 577.10 463.50 577.08 449.21 577.09 C 449.46 569.26 449.41 561.42 449.30 553.59 Z" />
</g>
<g id="#0f171aff">
<path fill="#0f171a" opacity="1.00" d=" M 560.25 87.76 C 670.61 87.55 780.98 87.82 891.34 87.63 C 891.42 88.12 891.56 89.12 891.64 89.62 C 781.81 89.68 671.99 89.61 562.17 89.65 C 562.22 91.23 562.61 94.59 560.10 93.34 C 560.17 91.48 560.21 89.62 560.25 87.76 Z" />
<path fill="#0f171a" opacity="1.00" d=" M 420.41 170.44 C 429.73 160.76 444.10 156.82 457.17 159.49 C 458.35 159.72 461.37 159.92 460.17 161.82 C 451.15 160.27 441.53 159.90 433.07 163.99 C 426.74 166.51 422.18 171.66 417.40 176.27 C 416.31 173.70 419.00 172.13 420.41 170.44 Z" />
<path fill="#0f171a" opacity="1.00" d=" M 364.87 205.90 C 368.84 204.91 372.97 205.45 377.01 205.35 C 394.08 205.50 411.18 205.07 428.24 205.56 L 428.86 206.07 L 428.17 207.20 C 407.50 207.30 386.80 207.43 366.15 207.14 C 365.83 206.83 365.19 206.21 364.87 205.90 Z" />
<path fill="#0f171a" opacity="1.00" d=" M 332.36 238.73 C 339.40 231.97 349.23 227.97 359.01 227.93 C 370.03 228.21 379.75 235.22 385.78 244.08 L 385.33 245.88 C 381.03 241.44 377.15 236.40 371.57 233.45 C 363.78 228.95 353.98 228.97 345.83 232.52 C 341.03 234.31 337.06 237.58 332.73 240.20 L 332.36 238.73 Z" />
<path fill="#0f171a" opacity="1.00" d=" M 564.17 268.65 C 564.63 267.83 565.12 267.03 565.64 266.25 C 565.64 266.81 565.64 267.95 565.63 268.51 C 559.98 286.22 555.12 304.18 549.73 321.97 C 547.09 330.55 546.36 339.62 546.66 348.56 C 546.65 358.29 547.75 368.06 550.17 377.50 C 551.85 383.98 556.10 389.30 560.70 393.99 C 565.65 399.50 570.56 405.04 575.61 410.46 C 583.00 418.46 590.19 426.65 597.58 434.65 C 597.59 435.09 597.61 435.97 597.62 436.41 C 595.70 434.27 593.77 432.14 591.84 430.02 C 581.93 418.96 571.92 408.00 561.99 396.97 C 558.23 392.72 554.04 388.74 551.39 383.65 C 546.56 372.56 546.10 360.17 545.52 348.26 C 545.62 340.72 545.94 333.10 547.69 325.74 C 553.00 306.66 559.05 287.78 564.17 268.65 Z" />
<path fill="#0f171a" opacity="1.00" d=" M 244.30 282.94 C 245.82 282.59 247.37 282.44 248.92 282.44 C 262.62 282.50 276.31 282.49 290.00 282.46 C 293.06 282.49 296.21 282.15 299.19 283.03 C 298.88 283.36 298.27 284.02 297.96 284.34 C 280.35 284.39 262.70 284.61 245.10 284.23 L 244.30 282.94 Z" />
<path fill="#0f171a" opacity="1.00" d=" M 149.84 300.37 C 156.53 288.61 170.59 281.97 183.94 283.81 C 184.59 283.88 185.89 284.04 186.54 284.11 L 187.41 284.41 C 187.59 284.78 187.95 285.52 188.13 285.89 C 187.67 285.95 186.74 286.06 186.28 286.12 C 179.72 285.07 172.73 285.26 166.67 288.26 L 166.59 288.29 C 162.30 289.92 158.56 292.75 155.53 296.17 C 154.09 297.63 152.97 299.36 151.74 300.99 L 151.08 301.20 C 150.77 300.99 150.15 300.57 149.84 300.37 Z" />
<path fill="#0f171a" opacity="1.00" d=" M 211.10 313.09 C 212.12 313.76 212.89 314.65 212.57 315.98 C 212.59 325.99 208.14 335.92 200.61 342.54 C 199.79 343.37 198.78 343.80 197.58 343.81 C 197.61 343.46 197.65 342.77 197.67 342.42 C 200.68 339.76 203.59 336.92 205.66 333.45 C 209.67 327.41 210.42 320.10 211.10 313.09 Z" />
<path fill="#0f171a" opacity="1.00" d=" M 504.35 312.98 C 504.90 313.32 505.30 313.79 505.55 314.36 C 506.03 315.97 506.52 317.60 507.06 319.20 C 509.19 320.09 508.06 322.49 508.68 324.17 C 515.17 343.24 523.39 362.04 535.97 377.94 C 540.38 383.88 545.38 389.36 550.58 394.61 C 562.52 406.93 574.52 419.19 586.50 431.47 C 590.16 435.22 593.82 438.95 597.43 442.74 C 597.82 443.35 598.23 443.94 598.67 444.53 C 598.22 454.83 598.17 465.16 598.51 475.47 C 608.30 475.91 618.15 475.14 627.93 475.88 C 618.05 475.51 608.15 475.92 598.26 475.65 C 598.11 466.00 598.16 456.34 598.33 446.69 C 585.80 443.24 572.83 441.65 559.86 441.44 C 558.92 442.22 557.99 442.99 557.04 443.76 L 557.07 443.60 C 557.18 443.07 557.38 441.99 557.48 441.46 C 543.64 441.09 529.78 441.66 516.00 442.93 C 514.03 443.08 512.00 443.48 510.09 442.78 C 526.46 440.38 543.11 440.28 559.64 440.25 C 569.78 440.71 579.96 441.44 589.90 443.56 C 592.54 444.01 595.24 445.58 597.92 444.45 C 590.77 439.80 584.08 434.49 576.99 429.77 C 568.72 423.91 560.30 418.27 551.82 412.71 C 545.33 408.23 538.39 404.38 532.12 399.60 C 528.35 396.56 523.87 394.64 519.56 392.53 C 507.25 386.80 493.61 382.74 479.91 384.15 C 469.78 385.20 460.05 389.64 452.66 396.67 C 447.79 400.96 444.35 406.51 440.65 411.77 L 441.03 410.90 L 441.40 410.10 C 449.33 394.21 459.07 377.66 475.44 369.28 C 476.31 371.84 476.99 374.46 477.68 377.08 C 480.04 373.84 481.98 370.32 484.11 366.94 C 492.25 365.83 500.45 368.38 507.33 372.66 C 517.90 379.20 525.95 388.96 532.94 399.06 C 538.69 403.10 544.78 406.66 550.60 410.62 C 563.24 419.07 576.06 427.31 588.14 436.55 C 588.50 436.07 588.87 435.60 589.25 435.13 C 586.24 433.04 583.89 430.21 581.33 427.64 C 571.23 417.34 561.22 406.97 551.11 396.68 C 544.85 390.45 539.02 383.79 533.59 376.82 C 523.87 363.25 516.25 348.28 510.63 332.57 C 508.61 327.85 507.62 322.71 505.20 318.17 L 504.79 317.53 C 504.57 316.02 504.40 314.50 504.35 312.98 M 590.91 437.91 C 591.32 438.32 591.32 438.32 590.91 437.91 C 590.48 437.48 590.48 437.48 590.91 437.91 Z" />
<path fill="#0f171a" opacity="1.00" d=" M 272.31 386.52 C 272.96 386.22 274.24 385.64 274.89 385.35 C 274.94 385.99 275.05 387.27 275.10 387.91 C 274.47 387.74 273.22 387.42 272.59 387.26 L 272.31 386.52 Z" />
<path fill="#0f171a" opacity="1.00" d=" M 273.70 389.07 C 273.82 388.93 274.06 388.63 274.18 388.48 C 274.55 389.13 275.28 390.42 275.65 391.07 C 276.34 391.65 277.05 392.20 277.79 392.74 C 277.75 393.50 277.67 395.01 277.63 395.77 C 276.86 396.08 276.09 396.39 275.32 396.69 C 275.99 395.79 276.66 394.89 277.27 393.95 C 276.54 393.22 275.79 392.52 275.02 391.85 C 274.69 391.15 274.03 389.77 273.70 389.07 Z" />
<path fill="#0f171a" opacity="1.00" d=" M 105.45 395.15 C 107.63 394.93 109.82 394.84 112.02 394.87 C 153.23 394.99 194.45 394.70 235.65 395.02 C 235.77 395.48 236.01 396.41 236.13 396.87 C 193.20 396.89 150.27 396.76 107.35 396.93 C 107.40 501.95 107.34 606.96 107.38 711.98 C 107.31 714.30 107.65 716.69 107.07 718.97 C 104.99 719.81 105.59 717.07 105.42 716.04 C 105.45 609.08 105.41 502.11 105.45 395.15 Z" />
<path fill="#0f171a" opacity="1.00" d=" M 578.28 407.01 C 578.87 409.34 580.68 411.06 582.08 412.93 C 586.87 419.08 592.09 424.87 597.59 430.37 C 597.58 430.73 597.57 431.45 597.56 431.81 C 590.70 424.91 583.66 417.90 578.64 409.52 L 578.51 409.27 C 578.46 408.70 578.34 407.57 578.28 407.01 Z" />
<path fill="#0f171a" opacity="1.00" d=" M 492.34 444.33 C 497.85 444.15 503.49 442.32 508.90 443.21 C 503.70 444.62 497.57 444.28 492.09 445.58 L 492.34 444.33 Z" />
<path fill="#0f171a" opacity="1.00" d=" M 146.35 553.56 C 146.91 553.55 147.47 553.55 148.03 553.56 C 148.08 561.41 148.04 569.26 148.07 577.12 C 161.53 577.05 174.99 577.21 188.45 577.00 C 188.53 577.44 188.69 578.32 188.77 578.76 C 185.68 578.72 182.60 578.71 179.51 578.67 C 179.37 632.50 179.49 686.32 179.44 740.15 L 177.84 740.15 C 177.85 686.35 177.80 632.54 177.86 578.74 C 167.37 578.67 156.88 578.84 146.39 578.65 C 146.34 570.28 146.38 561.92 146.35 553.56 Z" />
<path fill="#0f171a" opacity="1.00" d=" M 492.09 553.58 C 492.64 553.57 493.19 553.57 493.75 553.58 C 493.72 561.94 493.80 570.30 493.69 578.66 C 478.84 578.84 463.98 578.71 449.13 578.74 C 432.39 578.73 415.65 578.74 398.91 578.73 C 398.46 578.73 397.56 578.73 397.12 578.73 C 386.40 578.70 375.68 578.74 364.97 578.71 C 364.78 578.25 364.42 577.33 364.24 576.87 C 392.55 577.33 420.89 577.01 449.21 577.09 C 463.50 577.08 477.79 577.10 492.09 577.09 C 492.10 569.25 492.08 561.41 492.09 553.58 Z" />
<path fill="#0f171a" opacity="1.00" d=" M 245.74 726.14 C 246.31 726.16 247.44 726.19 248.01 726.21 C 255.01 725.99 262.02 725.57 269.01 725.02 C 268.70 725.35 268.07 725.99 267.76 726.31 C 261.94 727.32 255.85 725.55 250.13 727.10 C 245.87 729.80 248.41 735.86 248.09 740.02 C 247.65 740.03 246.78 740.06 246.34 740.08 C 246.33 735.42 245.58 730.79 245.74 726.14 Z" />
</g>
<g id="#101d44ff">
<path fill="#101d44" opacity="1.00" d=" M 891.34 87.63 C 891.96 87.69 893.20 87.80 893.82 87.86 C 893.76 154.91 893.93 221.97 893.73 289.02 C 893.27 289.12 892.34 289.33 891.88 289.44 C 891.68 229.97 891.85 170.49 891.79 111.02 C 891.67 103.88 892.03 96.73 891.64 89.62 C 891.56 89.12 891.42 88.12 891.34 87.63 Z" />
<path fill="#101d44" opacity="1.00" d=" M 668.92 364.14 C 670.26 363.79 671.63 363.63 673.02 363.64 C 695.02 363.72 717.01 363.66 739.01 363.67 C 740.37 363.66 741.65 364.02 742.82 364.77 C 741.65 365.47 740.39 365.77 739.04 365.69 C 716.71 365.68 694.37 365.65 672.03 365.71 C 671.01 365.50 667.83 366.25 668.92 364.14 Z" />
<path fill="#101d44" opacity="1.00" d=" M 397.12 578.73 C 397.56 578.73 398.46 578.73 398.91 578.73 C 398.90 632.54 398.91 686.34 398.90 740.14 C 415.67 740.18 432.45 740.15 449.22 740.16 C 509.65 740.18 570.08 740.16 630.51 740.17 C 629.86 735.80 629.64 731.38 630.01 726.97 C 630.08 731.37 629.98 735.80 630.85 740.15 C 638.08 740.14 645.31 740.29 652.54 740.06 C 652.64 738.69 652.65 737.33 652.64 735.97 C 653.03 735.89 653.80 735.72 654.19 735.64 C 653.97 731.88 654.78 728.03 653.80 724.34 C 655.14 725.76 657.22 725.19 658.97 725.44 C 715.97 725.61 772.99 725.21 829.99 725.63 C 775.00 725.59 720.02 725.65 665.03 725.61 C 661.83 725.72 658.41 725.16 655.39 726.43 L 655.22 726.95 C 654.34 731.34 653.92 736.02 655.07 740.41 C 672.70 739.84 690.37 740.33 708.02 740.17 C 748.73 740.18 789.45 740.15 830.16 740.18 C 838.70 740.18 847.23 740.18 855.77 740.17 C 874.47 740.22 893.18 740.05 911.87 740.25 C 914.80 740.81 914.11 745.71 911.04 745.25 C 636.63 745.30 362.22 745.20 87.82 745.30 C 86.23 743.91 85.76 741.34 87.94 740.25 C 97.90 740.01 107.87 740.25 117.83 740.15 C 137.83 740.16 157.84 740.17 177.84 740.15 L 179.44 740.15 C 190.68 740.16 201.91 740.17 213.15 740.15 C 213.19 695.97 213.13 651.80 213.18 607.63 C 213.61 607.63 214.48 607.63 214.91 607.63 C 214.93 651.80 214.93 695.97 214.91 740.14 C 221.81 740.18 228.70 740.16 235.59 740.15 L 237.16 740.15 C 240.22 740.17 243.28 740.17 246.34 740.08 C 246.78 740.06 247.65 740.03 248.09 740.02 C 259.75 739.71 271.41 739.92 283.07 739.85 C 289.12 739.76 295.28 740.43 301.23 739.00 C 301.50 739.25 302.03 739.75 302.30 740.00 C 305.83 740.28 309.37 740.15 312.91 740.16 C 312.71 736.04 312.47 731.94 312.08 727.84 C 312.91 727.65 313.75 727.48 314.60 727.33 C 313.31 731.09 313.84 735.07 314.10 738.95 C 318.89 740.28 324.68 741.10 329.07 738.29 C 329.17 738.70 329.37 739.54 329.47 739.96 C 329.83 738.53 330.20 737.12 330.50 735.70 C 330.74 737.06 331.00 738.43 331.28 739.80 C 340.52 740.02 349.76 739.63 358.99 740.12 C 362.16 740.32 365.31 739.89 368.47 739.82 C 377.99 740.59 387.57 739.96 397.12 740.15 C 397.12 686.34 397.13 632.54 397.12 578.73 Z" />
<path fill="#101d44" opacity="1.00" d=" M 695.34 614.76 C 696.86 614.37 698.42 614.08 700.01 614.10 C 723.00 614.13 745.98 614.11 768.97 614.10 C 770.51 614.09 772.06 614.36 773.59 614.72 C 773.19 615.05 772.40 615.72 772.00 616.06 C 748.35 616.35 724.69 616.05 701.04 616.21 C 699.06 616.07 696.63 616.75 695.34 614.76 Z" />
</g>
<g id="#e2e1ffff">
<path fill="#e2e1ff" opacity="1.00" d=" M 550.98 99.83 C 568.64 99.32 586.34 99.72 604.02 99.59 C 696.73 99.71 789.44 99.46 882.15 99.72 C 882.67 145.14 882.18 190.58 882.37 236.01 C 882.17 258.00 882.69 280.01 882.10 301.99 C 821.98 302.27 761.85 301.97 701.72 302.15 C 700.20 301.57 698.65 301.00 697.01 301.09 C 678.68 301.13 660.35 301.11 642.02 301.11 C 638.35 301.16 634.64 300.80 631.02 301.48 C 628.70 301.91 626.35 302.21 624.00 302.17 C 615.26 302.05 606.52 302.09 597.78 302.15 C 597.59 318.39 597.50 334.64 597.82 350.88 C 608.40 350.98 618.99 350.60 629.56 351.21 C 629.52 355.69 629.54 360.18 629.59 364.67 C 618.96 364.71 608.33 364.55 597.71 364.72 C 597.59 379.83 597.68 394.94 597.63 410.04 C 597.87 411.17 597.13 413.71 599.07 413.54 C 609.17 413.75 619.28 413.41 629.39 413.67 C 629.51 418.19 629.52 422.71 629.39 427.24 C 618.96 427.39 608.53 427.32 598.10 427.28 C 597.97 428.06 597.72 429.60 597.59 430.37 C 592.09 424.87 586.87 419.08 582.08 412.93 C 580.68 411.06 578.87 409.34 578.28 407.01 C 574.85 387.28 572.42 366.89 576.08 347.01 C 577.04 342.28 578.32 337.56 580.56 333.27 C 582.78 330.36 585.07 327.50 587.05 324.42 C 582.63 325.61 578.81 328.23 575.61 331.43 C 566.72 339.16 558.55 348.95 556.87 361.00 C 555.55 369.74 558.62 378.18 560.63 386.54 C 561.03 389.01 560.89 391.51 560.70 393.99 C 556.10 389.30 551.85 383.98 550.17 377.50 C 550.60 375.02 550.82 372.52 550.76 370.01 C 550.58 361.59 550.84 353.17 550.77 344.76 C 558.86 335.42 564.52 324.08 567.42 312.09 C 568.84 308.07 564.09 306.08 562.86 302.74 C 565.05 302.43 567.23 302.00 569.38 301.42 C 569.39 298.22 569.45 295.02 569.51 291.82 C 567.30 291.33 565.10 290.83 562.91 290.32 C 564.85 289.53 566.80 288.75 568.77 287.99 C 568.77 281.43 568.76 274.46 565.63 268.51 C 565.64 267.95 565.64 266.81 565.64 266.25 C 565.12 267.03 564.63 267.83 564.17 268.65 C 558.94 271.80 555.14 276.69 551.13 281.18 C 550.39 276.81 550.68 272.38 550.65 267.98 C 550.67 214.30 550.67 160.62 550.66 106.95 C 550.61 104.57 550.74 102.19 550.98 99.83 Z" />
<path fill="#e2e1ff" opacity="1.00" d=" M 433.07 163.99 C 441.53 159.90 451.15 160.27 460.17 161.82 C 464.43 161.90 468.08 164.40 471.62 166.50 C 475.64 169.72 479.63 173.16 482.41 177.55 C 484.34 180.39 485.41 183.68 486.95 186.73 C 493.79 184.04 501.99 184.55 507.86 189.22 C 513.47 192.88 516.53 199.37 516.85 205.95 C 513.25 206.53 509.60 206.33 505.98 206.30 C 482.34 206.37 458.70 206.27 435.05 206.34 C 432.74 206.43 430.49 205.94 428.24 205.56 C 411.18 205.07 394.08 205.50 377.01 205.35 C 372.97 205.45 368.84 204.91 364.87 205.90 C 360.66 207.01 356.27 206.02 351.99 206.38 C 350.55 206.20 348.23 206.84 347.64 205.02 C 347.53 197.27 355.38 190.83 362.95 191.79 C 365.85 191.77 368.54 192.91 371.02 194.31 C 373.87 190.15 376.66 185.76 381.00 182.96 C 390.28 176.28 403.16 176.25 412.97 181.85 C 414.39 179.95 415.52 177.78 417.40 176.27 C 422.18 171.66 426.74 166.51 433.07 163.99 Z" />
<path fill="#e2e1ff" opacity="1.00" d=" M 215.73 256.85 C 223.78 247.77 237.28 244.48 248.72 248.36 C 256.84 250.48 262.37 257.47 267.04 263.85 C 272.36 262.12 277.93 259.94 283.64 261.39 C 290.93 262.34 296.10 268.12 300.10 273.80 C 304.70 271.51 311.18 270.83 314.84 275.16 C 316.66 277.40 319.38 280.25 318.40 283.35 C 312.03 283.62 305.48 284.15 299.19 283.03 C 296.21 282.15 293.06 282.49 290.00 282.46 C 276.31 282.49 262.62 282.50 248.92 282.44 C 247.37 282.44 245.82 282.59 244.30 282.94 C 240.93 283.99 237.40 283.26 233.95 283.34 C 220.30 283.33 206.64 283.43 192.99 283.35 C 190.83 283.41 188.54 283.07 186.54 284.11 C 185.89 284.04 184.59 283.88 183.94 283.81 C 184.35 283.54 185.16 283.01 185.56 282.74 C 186.06 274.37 193.39 266.55 202.02 266.86 C 204.42 266.70 206.92 267.82 209.24 267.24 C 211.34 263.75 212.85 259.83 215.73 256.85 Z" />
<path fill="#e2e1ff" opacity="1.00" d=" M 655.22 351.07 C 699.47 350.64 743.74 350.99 787.99 350.88 C 802.01 350.96 816.03 350.70 830.05 351.03 C 830.21 355.58 830.36 360.15 829.97 364.70 C 800.92 364.66 771.87 364.53 742.82 364.77 C 741.65 364.02 740.37 363.66 739.01 363.67 C 717.01 363.66 695.02 363.72 673.02 363.64 C 671.63 363.63 670.26 363.79 668.92 364.14 C 664.45 365.21 659.81 364.43 655.27 364.69 C 655.13 360.15 655.13 355.60 655.22 351.07 Z" />
<path fill="#e2e1ff" opacity="1.00" d=" M 855.93 351.07 C 864.83 350.73 873.75 350.85 882.67 351.00 C 882.23 355.21 882.32 359.45 882.46 363.69 C 884.12 363.99 885.79 364.31 887.47 364.63 C 876.98 364.77 866.49 364.55 856.00 364.70 C 855.57 360.17 855.63 355.61 855.93 351.07 Z" />
<path fill="#e2e1ff" opacity="1.00" d=" M 117.70 412.98 C 117.59 411.49 117.79 409.16 119.92 409.65 C 153.93 409.63 187.93 409.63 221.94 409.66 C 230.78 409.78 239.64 409.24 248.46 409.92 C 248.82 413.75 247.32 417.30 245.46 420.55 C 243.29 420.97 241.12 421.40 238.96 421.83 C 228.59 424.00 218.37 427.61 209.47 433.44 C 205.44 435.99 202.81 440.12 199.01 442.94 C 189.61 447.41 183.97 456.99 180.63 466.47 C 178.31 473.23 176.72 480.31 176.63 487.49 C 173.70 501.47 173.94 516.01 175.16 530.19 C 157.20 530.20 139.25 530.13 121.29 530.22 C 121.31 538.01 121.29 545.80 121.29 553.60 C 129.64 553.58 138.00 553.61 146.35 553.56 C 146.38 561.92 146.34 570.28 146.39 578.65 C 156.88 578.84 167.37 578.67 177.86 578.74 C 177.80 632.54 177.85 686.35 177.84 740.15 C 157.84 740.17 137.83 740.16 117.83 740.15 C 117.46 686.10 117.83 632.04 117.66 577.98 C 117.76 522.98 117.59 467.98 117.70 412.98 Z" />
<path fill="#e2e1ff" opacity="1.00" d=" M 267.56 410.35 C 271.44 410.93 275.23 409.96 279.07 409.62 C 331.73 409.63 384.39 409.63 437.05 409.66 C 438.50 409.75 439.95 409.90 441.40 410.10 L 441.03 410.90 C 437.50 417.98 434.24 425.23 432.20 432.89 C 437.77 427.05 443.26 421.07 449.79 416.26 C 449.05 421.13 449.40 426.05 449.39 430.95 C 449.46 435.84 449.02 440.75 449.62 445.63 C 446.85 447.59 444.32 449.87 441.63 451.94 C 440.77 452.59 439.96 453.28 439.19 454.02 C 440.09 453.92 441.89 453.73 442.79 453.63 C 444.73 455.02 446.88 456.11 449.19 456.77 C 449.53 470.14 449.29 483.53 449.36 496.91 C 449.28 503.85 449.69 510.80 449.10 517.73 C 436.68 518.11 424.17 516.90 411.81 518.38 C 411.66 518.38 411.35 518.38 411.20 518.38 C 411.36 515.58 411.40 512.78 411.33 509.98 C 396.93 509.76 382.53 509.83 368.13 509.90 L 368.30 509.17 C 372.35 508.45 376.98 509.86 380.65 507.67 C 381.32 503.66 381.41 499.53 382.70 495.64 C 384.42 489.92 384.17 483.81 386.21 478.17 C 387.28 475.23 387.88 471.96 386.26 469.10 C 385.10 467.97 383.51 467.76 381.98 467.80 C 361.77 467.77 341.55 468.00 321.34 467.58 C 316.96 457.31 310.38 448.17 303.30 439.61 C 296.77 430.45 286.36 423.58 274.83 423.68 C 274.33 423.50 273.35 423.12 272.85 422.93 C 271.80 423.17 270.76 423.43 269.72 423.73 C 268.59 420.72 267.45 417.66 267.22 414.43 C 267.17 413.43 267.06 411.43 267.01 410.43 L 267.56 410.35 Z" />
<path fill="#e2e1ff" opacity="1.00" d=" M 655.12 413.87 C 670.39 413.20 685.71 413.77 701.00 413.60 C 744.03 413.65 787.07 413.45 830.10 413.70 C 830.23 418.19 830.20 422.69 830.14 427.19 C 773.76 427.52 717.38 427.19 661.00 427.35 C 659.04 427.37 657.09 427.29 655.15 427.17 C 655.16 422.73 655.20 418.30 655.12 413.87 Z" />
<path fill="#e2e1ff" opacity="1.00" d=" M 855.82 413.67 C 864.58 413.45 873.35 413.67 882.11 413.57 C 882.31 418.14 882.72 422.73 882.27 427.31 C 873.45 427.27 864.64 427.44 855.83 427.24 C 855.68 422.72 855.68 418.19 855.82 413.67 Z" />
<path fill="#e2e1ff" opacity="1.00" d=" M 321.77 553.75 C 364.28 553.37 406.80 553.69 449.30 553.59 C 449.41 561.42 449.46 569.26 449.21 577.09 C 420.89 577.01 392.55 577.33 364.24 576.87 C 360.87 568.49 353.67 561.68 344.89 559.35 C 337.21 557.36 329.48 555.60 321.77 553.75 Z" />
<path fill="#e2e1ff" opacity="1.00" d=" M 148.03 553.56 C 158.49 553.62 168.94 553.56 179.39 553.60 C 181.08 561.28 184.03 568.64 187.58 575.63 C 187.80 575.97 188.23 576.66 188.45 577.00 C 174.99 577.21 161.53 577.05 148.07 577.12 C 148.04 569.26 148.08 561.41 148.03 553.56 Z" />
<path fill="#e2e1ff" opacity="1.00" d=" M 179.44 740.15 C 179.49 686.32 179.37 632.50 179.51 578.67 C 182.60 578.71 185.68 578.72 188.77 578.76 L 189.42 578.77 C 192.35 585.08 196.65 590.63 201.25 595.80 C 201.24 599.75 201.25 603.69 201.21 607.64 C 205.20 607.63 209.19 607.63 213.18 607.63 C 213.13 651.80 213.19 695.97 213.15 740.15 C 201.91 740.17 190.68 740.16 179.44 740.15 Z" />
<path fill="#e2e1ff" opacity="1.00" d=" M 364.97 578.71 C 375.68 578.74 386.40 578.70 397.12 578.73 C 397.13 632.54 397.12 686.34 397.12 740.15 C 387.57 739.96 377.99 740.59 368.47 739.82 C 364.02 734.61 357.44 731.96 350.94 730.36 C 350.98 716.90 350.99 703.44 350.85 689.99 C 351.35 683.11 352.91 676.36 353.79 669.53 C 357.83 643.70 361.87 617.87 365.87 592.03 C 366.64 587.58 366.05 583.05 364.97 578.71 Z" />
<path fill="#e2e1ff" opacity="1.00" d=" M 398.91 578.73 C 415.65 578.74 432.39 578.73 449.13 578.74 C 449.60 586.82 449.19 594.93 449.36 603.02 C 449.25 648.74 449.56 694.45 449.22 740.16 C 432.45 740.15 415.67 740.18 398.90 740.14 C 398.91 686.34 398.90 632.54 398.91 578.73 Z" />
<path fill="#e2e1ff" opacity="1.00" d=" M 214.91 607.63 C 221.81 607.63 228.70 607.63 235.59 607.63 C 235.57 651.80 235.55 695.98 235.59 740.15 C 228.70 740.16 221.81 740.18 214.91 740.14 C 214.93 695.97 214.93 651.80 214.91 607.63 Z" />
<path fill="#e2e1ff" opacity="1.00" d=" M 300.08 607.65 C 303.78 607.61 307.48 607.61 311.18 607.67 C 307.98 644.45 305.30 681.28 302.43 718.08 C 305.48 718.10 308.55 718.14 311.61 718.03 C 311.59 720.81 311.65 723.60 311.93 726.38 C 311.97 726.74 312.04 727.48 312.08 727.84 C 312.47 731.94 312.71 736.04 312.91 740.16 C 309.37 740.15 305.83 740.28 302.30 740.00 C 302.03 739.75 301.50 739.25 301.23 739.00 C 294.49 731.86 284.32 730.13 275.07 728.72 C 272.94 728.55 271.89 726.56 270.78 725.04 C 270.43 721.63 270.07 718.22 269.59 714.83 C 273.28 714.34 276.95 713.71 280.60 712.95 C 287.02 677.84 293.65 642.76 300.08 607.65 Z" />
</g>
<g id="#fe8c85ff">
<path fill="#fe8c85" opacity="1.00" d=" M 345.83 232.52 C 353.98 228.97 363.78 228.95 371.57 233.45 C 377.15 236.40 381.03 241.44 385.33 245.88 C 388.28 249.47 389.09 254.46 389.58 258.98 C 390.60 271.66 383.39 284.44 372.05 290.16 C 366.26 293.39 359.44 294.19 352.93 293.58 C 341.57 292.34 331.42 284.43 326.99 273.97 C 323.00 264.67 323.76 253.57 328.82 244.84 C 329.88 243.12 330.88 241.20 332.73 240.20 C 337.06 237.58 341.03 234.31 345.83 232.52 M 329.28 251.18 C 329.25 258.03 329.25 264.88 329.29 271.73 C 330.68 271.62 332.09 271.51 333.49 271.40 C 333.45 268.97 333.42 266.54 333.37 264.11 C 335.77 263.79 338.19 263.76 340.60 263.48 C 345.98 262.41 346.53 253.33 341.42 251.53 C 337.46 250.50 333.29 250.59 329.28 251.18 M 348.38 251.04 C 348.29 257.89 348.35 264.74 348.34 271.59 C 349.75 271.58 351.17 271.57 352.59 271.57 C 352.56 268.58 352.57 265.59 352.62 262.60 C 355.20 262.55 357.78 262.54 360.36 262.55 C 360.58 265.47 360.60 268.40 360.52 271.33 C 361.92 271.48 363.32 271.57 364.73 271.71 C 364.68 264.82 364.83 257.94 364.70 251.06 C 363.35 250.96 362.00 250.87 360.66 250.78 C 360.59 253.43 360.55 256.07 360.55 258.73 C 357.94 259.06 355.31 259.08 352.69 258.87 C 352.57 256.31 352.56 253.74 352.66 251.18 C 351.24 250.95 349.80 250.97 348.38 251.04 M 369.32 251.32 C 368.95 258.10 369.15 264.92 369.26 271.72 C 370.53 271.45 372.16 272.02 373.19 271.05 C 373.47 268.73 373.33 266.39 373.29 264.06 C 375.94 263.74 378.67 263.94 381.26 263.26 C 386.53 261.21 385.83 251.93 380.05 251.14 C 376.55 250.78 372.63 250.23 369.32 251.32 Z" />
<path fill="#fe8c85" opacity="1.00" d=" M 452.66 396.67 C 460.05 389.64 469.78 385.20 479.91 384.15 C 493.61 382.74 507.25 386.80 519.56 392.53 C 523.87 394.64 528.35 396.56 532.12 399.60 C 503.96 395.40 473.37 399.38 449.79 416.26 C 443.26 421.07 437.77 427.05 432.20 432.89 C 434.24 425.23 437.50 417.98 441.03 410.90 L 440.65 411.77 C 444.35 406.51 447.79 400.96 452.66 396.67 Z" />
</g>
<g id="#fff9f6ff">
<path fill="#fff9f6" opacity="1.00" d=" M 329.28 251.18 C 333.29 250.59 337.46 250.50 341.42 251.53 C 346.53 253.33 345.98 262.41 340.60 263.48 C 338.19 263.76 335.77 263.79 333.37 264.11 C 333.42 266.54 333.45 268.97 333.49 271.40 C 332.09 271.51 330.68 271.62 329.29 271.73 C 329.25 264.88 329.25 258.03 329.28 251.18 M 333.46 254.44 C 333.42 256.26 333.39 258.09 333.35 259.92 C 335.92 260.62 340.92 260.70 340.61 256.88 C 339.75 253.74 335.90 254.62 333.46 254.44 Z" />
<path fill="#fff9f6" opacity="1.00" d=" M 348.38 251.04 C 349.80 250.97 351.24 250.95 352.66 251.18 C 352.56 253.74 352.57 256.31 352.69 258.87 C 355.31 259.08 357.94 259.06 360.55 258.73 C 360.55 256.07 360.59 253.43 360.66 250.78 C 362.00 250.87 363.35 250.96 364.70 251.06 C 364.83 257.94 364.68 264.82 364.73 271.71 C 363.32 271.57 361.92 271.48 360.52 271.33 C 360.60 268.40 360.58 265.47 360.36 262.55 C 357.78 262.54 355.20 262.55 352.62 262.60 C 352.57 265.59 352.56 268.58 352.59 271.57 C 351.17 271.57 349.75 271.58 348.34 271.59 C 348.35 264.74 348.29 257.89 348.38 251.04 Z" />
<path fill="#fff9f6" opacity="1.00" d=" M 264.07 385.85 C 265.88 384.22 267.96 382.97 269.93 381.58 C 269.39 382.28 268.86 382.99 268.33 383.71 C 267.89 383.85 267.01 384.13 266.58 384.27 L 266.39 385.03 C 265.35 386.76 263.45 388.94 264.85 390.97 C 265.99 393.43 269.52 394.19 271.31 391.96 C 272.41 389.29 271.42 386.52 270.18 384.11 C 270.89 384.90 271.62 385.69 272.31 386.52 L 272.59 387.26 C 273.22 387.42 274.47 387.74 275.10 387.91 C 275.05 387.27 274.94 385.99 274.89 385.35 L 275.81 385.35 C 275.82 386.31 275.82 387.28 275.83 388.26 L 274.18 388.48 C 274.06 388.63 273.82 388.93 273.70 389.07 C 272.51 390.53 271.44 392.07 270.40 393.63 C 268.86 393.49 267.33 393.35 265.80 393.18 C 264.76 391.80 263.82 390.15 261.98 389.80 C 262.55 389.64 263.70 389.31 264.28 389.14 C 264.23 388.32 264.12 386.67 264.07 385.85 Z" />
</g>
<g id="#fffaf8ff">
<path fill="#fffaf8" opacity="1.00" d=" M 369.32 251.32 C 372.63 250.23 376.55 250.78 380.05 251.14 C 385.83 251.93 386.53 261.21 381.26 263.26 C 378.67 263.94 375.94 263.74 373.29 264.06 C 373.33 266.39 373.47 268.73 373.19 271.05 C 372.16 272.02 370.53 271.45 369.26 271.72 C 369.15 264.92 368.95 258.10 369.32 251.32 M 373.35 254.36 C 373.31 256.27 373.28 258.18 373.24 260.09 C 375.65 260.25 379.33 260.93 380.46 258.09 C 381.09 254.00 376.00 254.40 373.35 254.36 Z" />
</g>
<g id="#fd8c88ff">
<path fill="#fd8c88" opacity="1.00" d=" M 333.46 254.44 C 335.90 254.62 339.75 253.74 340.61 256.88 C 340.92 260.70 335.92 260.62 333.35 259.92 C 333.39 258.09 333.42 256.26 333.46 254.44 Z" />
</g>
<g id="#f78c85ff">
<path fill="#f78c85" opacity="1.00" d=" M 373.35 254.36 C 376.00 254.40 381.09 254.00 380.46 258.09 C 379.33 260.93 375.65 260.25 373.24 260.09 C 373.28 258.18 373.31 256.27 373.35 254.36 Z" />
</g>
<g id="#fd8d85ff">
<path fill="#fd8d85" opacity="1.00" d=" M 551.13 281.18 C 555.14 276.69 558.94 271.80 564.17 268.65 C 559.05 287.78 553.00 306.66 547.69 325.74 C 545.94 333.10 545.62 340.72 545.52 348.26 C 538.16 337.55 535.75 323.80 537.55 311.04 C 539.02 300.01 544.28 289.83 551.13 281.18 Z" />
</g>
<g id="#fd8c85ff">
<path fill="#fd8c85" opacity="1.00" d=" M 549.73 321.97 C 555.12 304.18 559.98 286.22 565.63 268.51 C 568.76 274.46 568.77 281.43 568.77 287.99 C 566.80 288.75 564.85 289.53 562.91 290.32 C 565.10 290.83 567.30 291.33 569.51 291.82 C 569.45 295.02 569.39 298.22 569.38 301.42 C 567.23 302.00 565.05 302.43 562.86 302.74 C 564.09 306.08 568.84 308.07 567.42 312.09 C 564.52 324.08 558.86 335.42 550.77 344.76 C 549.48 346.11 548.07 347.34 546.66 348.56 C 546.36 339.62 547.09 330.55 549.73 321.97 Z" />
</g>
<g id="#fda88eff">
<path fill="#fda88e" opacity="1.00" d=" M 166.67 288.26 C 172.73 285.26 179.72 285.07 186.28 286.12 C 181.67 287.08 176.87 285.90 172.35 287.36 C 170.49 287.87 168.58 288.07 166.67 288.26 Z" />
<path fill="#fda88e" opacity="1.00" d=" M 155.53 296.17 C 158.56 292.75 162.30 289.92 166.59 288.29 C 163.28 291.38 159.54 294.06 155.53 296.17 Z" />
<path fill="#fda88e" opacity="1.00" d=" M 234.50 499.83 L 235.19 500.31 C 237.40 500.29 239.64 500.33 241.73 501.13 C 248.35 503.37 255.10 505.23 261.78 507.30 C 268.64 510.05 275.96 511.27 283.14 512.87 C 282.02 517.37 281.67 522.03 280.34 526.50 C 271.78 527.12 263.47 524.64 254.94 524.52 C 246.53 523.79 238.09 523.44 229.65 523.15 C 229.33 522.86 228.68 522.29 228.36 522.00 C 228.18 517.66 228.40 513.19 230.16 509.16 C 231.29 505.89 234.07 503.36 234.50 499.83 Z" />
</g>
<g id="#fab54fff">
<path fill="#fab54f" opacity="1.00" d=" M 186.28 286.12 C 186.74 286.06 187.67 285.95 188.13 285.89 C 192.40 286.13 196.23 288.85 199.55 291.40 C 204.39 295.47 208.28 300.75 210.15 306.84 C 210.74 308.85 211.70 310.95 211.10 313.09 C 210.42 320.10 209.67 327.41 205.66 333.45 C 203.59 336.92 200.68 339.76 197.67 342.42 C 197.65 342.77 197.61 343.46 197.58 343.81 C 192.30 347.07 186.32 349.43 180.04 349.45 C 169.94 350.06 160.03 345.01 153.69 337.30 C 147.43 329.45 144.74 318.72 147.42 308.94 C 147.88 305.82 149.42 303.09 151.74 300.99 C 152.97 299.36 154.09 297.63 155.53 296.17 C 159.54 294.06 163.28 291.38 166.59 288.29 L 166.67 288.26 C 168.58 288.07 170.49 287.87 172.35 287.36 C 176.87 285.90 181.67 287.08 186.28 286.12 M 180.66 301.46 C 177.99 311.41 176.05 321.54 173.29 331.47 C 174.45 332.02 176.87 333.41 177.48 331.52 C 179.23 326.25 180.19 320.76 181.58 315.40 C 182.63 310.80 184.14 306.28 184.61 301.56 C 183.62 301.54 181.65 301.49 180.66 301.46 M 162.61 309.48 C 158.73 311.39 154.66 312.87 150.76 314.73 C 150.73 316.24 150.70 317.77 150.67 319.30 C 157.64 321.97 164.21 325.78 171.40 327.80 C 171.45 326.09 171.51 324.39 171.58 322.69 C 167.23 320.74 162.77 319.06 158.35 317.29 C 158.34 317.15 158.31 316.85 158.30 316.71 C 162.50 314.56 167.24 313.63 171.29 311.19 C 171.48 309.58 171.54 307.96 171.48 306.34 C 168.30 306.64 165.47 308.20 162.61 309.48 M 187.41 311.59 C 191.46 313.68 195.90 314.85 200.11 316.56 C 196.83 319.56 191.94 319.94 188.09 322.06 C 185.54 322.92 186.85 326.09 186.83 328.06 C 193.82 325.53 200.50 322.22 207.36 319.36 C 207.35 317.82 207.35 316.28 207.35 314.74 C 200.81 311.65 194.12 308.90 187.50 305.99 C 186.83 307.71 185.78 310.06 187.41 311.59 Z" />
</g>
<g id="#9794ffff">
<path fill="#9794ff" opacity="1.00" d=" M 624.00 302.17 C 626.35 302.21 628.70 301.91 631.02 301.48 C 630.92 301.88 630.73 302.69 630.63 303.10 C 652.45 303.35 674.27 303.10 696.09 303.22 C 698.03 303.30 699.89 302.73 701.72 302.15 C 761.85 301.97 821.98 302.27 882.10 301.99 C 883.94 301.99 885.79 302.13 887.65 302.27 C 887.53 318.44 887.50 334.63 887.67 350.80 C 886.00 350.90 884.32 350.99 882.67 351.00 C 873.75 350.85 864.83 350.73 855.93 351.07 C 855.63 355.61 855.57 360.17 856.00 364.70 C 866.49 364.55 876.98 364.77 887.47 364.63 C 887.74 380.94 887.45 397.25 887.61 413.56 C 885.76 413.55 883.93 413.55 882.11 413.57 C 873.35 413.67 864.58 413.45 855.82 413.67 C 855.68 418.19 855.68 422.72 855.83 427.24 C 864.64 427.44 873.45 427.27 882.27 427.31 C 884.05 427.30 885.84 427.32 887.64 427.35 C 887.54 443.56 887.52 459.78 887.64 475.99 C 877.07 476.43 866.49 476.07 855.91 476.16 C 855.65 480.71 855.66 485.28 855.88 489.84 C 866.47 490.00 877.08 489.49 887.65 490.08 C 887.50 506.28 887.55 522.49 887.63 538.69 C 877.02 538.74 866.40 538.61 855.80 538.76 C 855.83 543.36 855.43 547.99 856.09 552.58 C 866.50 552.31 876.91 552.66 887.32 552.36 C 887.85 568.65 887.52 585.00 887.49 601.31 C 887.15 600.02 886.87 598.77 886.57 597.50 C 885.21 598.54 883.84 599.84 881.99 599.72 C 874.10 599.91 866.19 600.08 858.31 599.55 C 857.06 599.21 856.28 600.19 855.79 601.18 C 855.66 605.78 855.72 610.39 855.82 615.00 C 866.42 615.34 877.04 614.98 887.65 615.18 C 887.50 631.38 887.57 647.59 887.62 663.79 C 877.02 664.08 866.41 663.67 855.81 664.02 C 855.77 668.58 855.54 673.16 855.96 677.73 C 866.48 677.63 877.00 677.68 887.53 677.70 C 887.60 693.96 887.54 710.22 887.56 726.48 C 877.17 726.62 866.78 726.40 856.41 726.56 C 854.90 730.59 856.13 735.72 855.77 740.17 C 847.23 740.18 838.70 740.18 830.16 740.18 C 830.17 735.73 830.29 731.28 830.08 726.85 L 829.99 725.63 C 772.99 725.21 715.97 725.61 658.97 725.44 C 657.22 725.19 655.14 725.76 653.80 724.34 C 654.78 728.03 653.97 731.88 654.19 735.64 C 653.80 735.72 653.03 735.89 652.64 735.97 C 652.65 737.33 652.64 738.69 652.54 740.06 C 645.31 740.29 638.08 740.14 630.85 740.15 C 629.98 735.80 630.08 731.37 630.01 726.97 L 629.99 726.38 L 629.45 725.66 C 619.89 725.49 610.32 725.98 600.78 725.58 C 598.81 725.81 599.09 723.26 598.83 722.05 C 598.13 710.38 599.11 698.66 598.35 686.99 C 598.18 684.33 598.48 681.68 598.83 679.06 C 600.62 678.73 602.42 678.42 604.23 678.10 C 605.70 677.84 607.19 677.56 608.66 677.19 L 608.97 678.58 C 616.31 678.77 623.65 678.61 631.00 678.64 C 656.15 678.65 681.31 678.74 706.47 678.63 L 706.23 677.20 C 710.42 678.05 714.73 677.61 718.98 677.68 C 755.99 677.71 792.99 677.63 830.00 677.72 C 830.29 673.14 830.24 668.56 830.11 663.99 C 771.80 663.82 713.49 663.83 655.18 663.98 C 655.21 668.08 655.19 672.18 655.08 676.28 C 646.59 676.60 638.09 676.39 629.60 676.42 C 629.49 672.31 629.49 668.20 629.58 664.10 C 619.46 663.63 609.32 663.99 599.19 663.92 C 599.05 648.33 598.76 632.72 599.26 617.15 C 608.52 616.73 617.86 616.39 627.09 617.50 C 629.07 617.73 631.25 616.15 631.06 614.03 C 631.26 609.50 631.45 604.96 631.12 600.44 C 630.72 600.48 629.92 600.57 629.52 600.61 L 629.20 600.62 C 619.12 599.81 608.99 600.74 598.90 600.10 C 598.48 597.09 598.16 594.06 598.38 591.03 C 599.25 578.91 597.72 566.77 598.88 554.66 C 600.90 553.34 603.14 553.19 605.29 554.37 C 605.43 553.92 605.73 553.02 605.88 552.57 C 607.61 552.51 609.36 552.61 611.10 552.71 C 613.36 553.24 615.69 553.54 618.02 553.49 C 642.11 553.44 666.20 553.54 690.28 553.40 L 690.49 551.98 C 692.29 552.35 694.11 552.53 695.96 552.54 C 740.70 552.34 785.45 552.70 830.19 552.36 C 830.22 547.81 830.21 543.26 830.11 538.71 C 771.79 538.75 713.47 538.54 655.16 538.82 C 655.20 543.06 655.18 547.30 655.09 551.55 C 646.61 551.55 638.12 551.59 629.64 551.54 C 629.49 547.33 629.48 543.13 629.59 538.92 C 618.93 538.26 608.24 539.13 597.58 538.49 C 597.79 522.27 597.50 506.06 597.73 489.85 C 608.27 489.83 618.80 489.79 629.34 489.88 C 629.60 485.41 629.46 480.94 629.60 476.47 C 629.18 476.32 628.34 476.03 627.93 475.88 C 618.15 475.14 608.30 475.91 598.51 475.47 C 598.17 465.16 598.22 454.83 598.67 444.53 C 598.23 443.94 597.82 443.35 597.43 442.74 C 597.52 440.63 597.64 438.52 597.62 436.41 C 597.61 435.97 597.59 435.09 597.58 434.65 C 597.55 433.77 597.54 432.90 597.55 432.04 L 597.56 431.81 C 597.57 431.45 597.58 430.73 597.59 430.37 C 597.72 429.60 597.97 428.06 598.10 427.28 C 608.53 427.32 618.96 427.39 629.39 427.24 C 629.52 422.71 629.51 418.19 629.39 413.67 C 619.28 413.41 609.17 413.75 599.07 413.54 C 597.13 413.71 597.87 411.17 597.63 410.04 C 597.68 394.94 597.59 379.83 597.71 364.72 C 608.33 364.55 618.96 364.71 629.59 364.67 C 629.54 360.18 629.52 355.69 629.56 351.21 C 618.99 350.60 608.40 350.98 597.82 350.88 C 597.50 334.64 597.59 318.39 597.78 302.15 C 606.52 302.09 615.26 302.05 624.00 302.17 M 617.89 320.88 C 617.83 324.64 617.74 328.41 617.98 332.18 C 680.27 332.20 742.57 332.28 804.86 332.14 C 805.20 328.41 805.20 324.67 804.88 320.94 C 798.93 320.65 792.98 320.86 787.03 320.80 C 730.65 320.85 674.27 320.70 617.89 320.88 M 816.63 320.90 C 816.53 324.65 816.55 328.40 816.62 332.16 C 820.35 332.22 824.09 332.24 827.83 332.13 C 827.86 328.42 827.85 324.71 827.79 321.01 C 824.07 320.68 820.34 320.77 816.63 320.90 M 836.31 321.04 C 836.33 324.69 836.34 328.34 836.33 331.99 C 840.10 332.31 843.90 332.33 847.67 331.99 C 847.59 328.34 847.60 324.69 847.70 321.04 C 843.91 320.66 840.09 320.71 836.31 321.04 M 856.12 320.97 C 856.14 324.67 856.14 328.38 856.12 332.09 C 859.71 332.08 863.40 332.63 866.94 331.85 C 868.01 328.39 867.06 324.48 867.30 320.85 C 863.56 320.78 859.83 320.74 856.12 320.97 M 655.22 351.07 C 655.13 355.60 655.13 360.15 655.27 364.69 C 659.81 364.43 664.45 365.21 668.92 364.14 C 667.83 366.25 671.01 365.50 672.03 365.71 C 694.37 365.65 716.71 365.68 739.04 365.69 C 740.39 365.77 741.65 365.47 742.82 364.77 C 771.87 364.53 800.92 364.66 829.97 364.70 C 830.36 360.15 830.21 355.58 830.05 351.03 C 816.03 350.70 802.01 350.96 787.99 350.88 C 743.74 350.99 699.47 350.64 655.22 351.07 M 618.20 383.41 C 617.60 387.15 617.77 390.95 618.13 394.71 C 680.37 394.74 742.60 394.72 804.84 394.72 C 805.22 390.96 805.21 387.18 804.74 383.43 C 742.56 383.46 680.38 383.51 618.20 383.41 M 836.42 383.49 C 836.20 387.26 836.41 391.04 836.21 394.81 L 836.67 395.71 C 840.37 396.79 844.35 396.46 848.12 395.88 L 847.50 394.85 C 847.72 391.05 847.59 387.24 847.62 383.44 C 843.88 383.45 840.15 383.46 836.42 383.49 M 816.59 383.58 C 816.57 387.21 816.57 390.83 816.47 394.46 C 820.22 394.94 824.00 394.67 827.77 394.72 C 827.84 391.03 827.84 387.34 827.86 383.66 C 824.11 383.36 820.34 383.45 816.59 383.58 M 856.07 383.67 C 856.14 387.36 856.13 391.06 856.17 394.76 C 859.83 394.71 863.50 394.69 867.17 394.75 C 867.48 391.04 867.36 387.32 867.30 383.61 C 863.56 383.40 859.80 383.35 856.07 383.67 M 655.12 413.87 C 655.20 418.30 655.16 422.73 655.15 427.17 C 657.09 427.29 659.04 427.37 661.00 427.35 C 717.38 427.19 773.76 427.52 830.14 427.19 C 830.20 422.69 830.23 418.19 830.10 413.70 C 787.07 413.45 744.03 413.65 701.00 413.60 C 685.71 413.77 670.39 413.20 655.12 413.87 M 618.04 446.13 C 617.71 449.84 617.82 453.56 617.88 457.28 C 680.25 457.39 742.61 457.44 804.97 457.26 C 805.14 453.55 805.13 449.83 804.87 446.13 C 742.60 446.12 680.32 446.12 618.04 446.13 M 816.67 446.17 C 816.50 449.86 816.51 453.56 816.64 457.25 C 820.37 457.41 824.10 457.40 827.84 457.23 C 827.82 453.55 827.83 449.87 827.82 446.20 C 824.11 445.88 820.38 445.95 816.67 446.17 M 836.31 446.19 C 836.29 449.94 836.29 453.69 836.34 457.44 C 840.08 457.33 843.83 457.34 847.58 457.45 C 847.61 453.70 847.61 449.96 847.67 446.21 C 843.88 446.06 840.09 446.06 836.31 446.19 M 856.14 446.15 C 856.13 449.86 856.13 453.57 856.12 457.29 C 859.82 457.40 863.52 457.39 867.23 457.31 C 867.38 453.57 867.49 449.83 867.18 446.10 C 863.49 446.11 859.81 446.10 856.14 446.15 M 798.93 475.18 L 798.40 475.98 L 799.08 476.78 C 796.43 476.04 793.68 476.11 790.97 476.18 C 745.71 476.21 700.45 476.13 655.19 476.21 C 655.15 480.74 655.15 485.26 655.18 489.78 C 713.47 489.89 771.77 489.84 830.06 489.80 C 830.25 485.59 830.21 481.37 830.15 477.16 C 836.16 477.15 842.18 477.34 848.18 477.08 L 848.74 475.94 L 848.17 475.20 C 831.76 475.08 815.34 475.07 798.93 475.18 M 617.89 508.71 C 617.79 512.42 617.80 516.14 617.88 519.86 C 680.25 519.85 742.61 519.89 804.97 519.84 C 805.19 516.15 805.01 512.46 804.85 508.77 C 742.53 508.57 680.20 508.69 617.89 508.71 M 816.65 508.72 C 816.52 512.43 816.45 516.15 816.70 519.87 C 820.41 519.86 824.12 519.87 827.83 519.85 C 827.83 516.16 827.83 512.47 827.81 508.78 C 824.09 508.55 820.36 508.62 816.65 508.72 M 836.29 519.77 C 840.01 519.88 843.73 519.88 847.46 519.88 C 847.65 516.16 847.65 512.42 847.54 508.70 C 843.88 508.65 840.23 508.66 836.58 508.60 C 836.11 512.30 836.36 516.04 836.29 519.77 M 856.12 508.76 C 856.12 512.45 856.12 516.14 856.15 519.84 C 859.83 519.87 863.53 519.87 867.22 519.88 C 867.43 516.16 867.42 512.44 867.30 508.73 C 863.57 508.58 859.84 508.58 856.12 508.76 M 618.57 570.49 C 617.41 574.73 617.60 579.22 618.56 583.47 L 617.94 583.61 C 634.96 583.16 651.99 583.40 669.02 583.35 C 714.40 583.19 759.78 583.52 805.15 583.20 L 804.46 583.08 C 805.34 578.98 805.49 574.67 804.40 570.60 C 800.32 569.74 796.14 570.28 792.02 570.20 C 734.68 570.14 677.33 570.21 620.01 570.18 C 619.65 570.25 618.93 570.41 618.57 570.49 M 816.76 571.22 C 816.41 574.96 816.58 578.72 816.61 582.48 C 820.36 582.58 824.12 582.61 827.89 582.45 C 827.81 578.72 827.82 574.99 827.81 571.27 C 824.12 571.28 820.44 571.31 816.76 571.22 M 836.30 571.32 C 836.31 575.07 836.32 578.83 836.35 582.60 C 840.11 582.56 843.86 582.56 847.63 582.57 C 847.58 578.81 847.61 575.06 847.64 571.31 C 843.86 571.26 840.08 571.26 836.30 571.32 M 856.17 571.27 C 856.13 574.98 856.13 578.70 856.09 582.42 C 859.82 582.62 863.56 582.57 867.31 582.48 C 867.36 578.84 867.36 575.20 867.47 571.57 C 863.72 571.05 859.93 571.35 856.17 571.27 M 654.93 600.55 L 655.48 600.59 C 654.95 605.33 655.19 610.10 655.19 614.87 C 662.43 615.45 669.71 615.00 676.98 615.14 C 683.09 614.88 689.28 615.67 695.34 614.76 C 696.63 616.75 699.06 616.07 701.04 616.21 C 724.69 616.05 748.35 616.35 772.00 616.06 C 772.40 615.72 773.19 615.05 773.59 614.72 C 777.65 615.57 781.84 614.98 785.97 615.14 C 800.67 614.99 815.39 615.43 830.09 614.91 C 830.09 610.12 830.73 605.21 829.47 600.52 L 830.06 600.46 C 793.04 600.12 756.00 600.43 718.98 600.32 C 697.63 600.49 676.26 600.02 654.93 600.55 M 618.04 633.89 C 617.75 637.64 617.70 641.41 618.08 645.17 C 680.33 645.16 742.59 645.38 804.84 645.06 C 804.97 642.35 805.18 639.65 805.14 636.95 C 805.22 635.60 805.05 633.33 803.08 633.81 C 741.40 633.85 679.72 633.69 618.04 633.89 M 816.61 633.85 C 816.52 637.63 816.52 641.42 816.66 645.21 C 820.33 645.23 824.01 645.21 827.68 645.35 C 827.86 641.56 827.83 637.77 827.80 633.98 C 824.08 633.69 820.34 633.79 816.61 633.85 M 836.45 633.85 C 836.27 637.63 836.27 641.41 836.44 645.19 C 840.13 645.23 843.82 645.22 847.52 645.18 C 847.65 641.40 847.63 637.61 847.50 633.83 C 843.81 633.78 840.13 633.79 836.45 633.85 M 856.13 633.90 C 856.14 637.65 856.13 641.39 856.15 645.15 C 859.85 645.25 863.55 645.24 867.27 645.17 C 867.41 641.39 867.41 637.62 867.29 633.85 C 863.56 633.77 859.84 633.74 856.13 633.90 M 618.08 696.35 C 617.68 700.34 617.79 704.36 617.91 708.37 C 618.25 708.60 618.93 709.07 619.27 709.30 C 624.44 708.33 629.72 708.76 634.96 708.72 C 688.31 708.69 741.67 708.73 795.03 708.70 C 798.15 708.74 801.32 709.05 804.42 708.44 C 805.58 704.51 805.11 700.39 804.80 696.39 C 742.56 696.45 680.32 696.53 618.08 696.35 M 816.56 696.51 C 816.54 700.21 816.55 703.92 816.48 707.64 C 820.26 707.70 824.04 707.72 827.83 707.72 C 827.85 703.94 827.86 700.15 827.80 696.37 C 824.05 696.41 820.31 696.38 816.56 696.51 M 836.31 696.41 C 836.30 700.17 836.32 703.94 836.33 707.71 C 840.11 707.73 843.88 707.71 847.66 707.66 C 847.61 703.91 847.61 700.16 847.61 696.42 C 843.84 696.42 840.07 696.43 836.31 696.41 M 856.24 696.38 C 856.08 700.15 856.08 703.93 856.18 707.72 C 859.83 707.70 863.49 707.70 867.15 707.74 C 867.50 703.95 867.52 700.13 867.07 696.35 C 863.45 696.46 859.84 696.45 856.24 696.38 Z" />
</g>
<g id="#181b4aff">
<path fill="#181b4a" opacity="1.00" d=" M 631.02 301.48 C 634.64 300.80 638.35 301.16 642.02 301.11 C 660.35 301.11 678.68 301.13 697.01 301.09 C 698.65 301.00 700.20 301.57 701.72 302.15 C 699.89 302.73 698.03 303.30 696.09 303.22 C 674.27 303.10 652.45 303.35 630.63 303.10 C 630.73 302.69 630.92 301.88 631.02 301.48 Z" />
<path fill="#181b4a" opacity="1.00" d=" M 238.96 421.83 C 241.12 421.40 243.29 420.97 245.46 420.55 L 245.03 421.43 C 247.79 423.23 250.82 424.54 253.93 425.58 C 259.08 424.05 264.62 425.56 269.72 423.73 C 270.76 423.43 271.80 423.17 272.85 422.93 C 273.35 423.12 274.33 423.50 274.83 423.68 C 268.80 427.13 261.16 427.89 254.50 426.18 C 249.13 425.04 244.76 419.87 238.96 421.83 Z" />
<path fill="#181b4a" opacity="1.00" d=" M 221.17 475.94 C 220.39 472.95 219.82 469.75 220.90 466.75 C 222.64 470.26 222.72 474.25 223.82 477.96 C 226.10 486.18 230.85 493.55 236.85 499.56 C 242.41 500.64 247.62 502.92 253.09 504.33 C 256.06 505.08 258.99 506.03 261.78 507.30 C 255.10 505.23 248.35 503.37 241.73 501.13 C 239.64 500.33 237.40 500.29 235.19 500.31 L 234.50 499.83 C 227.76 493.50 223.23 484.92 221.17 475.94 Z" />
<path fill="#181b4a" opacity="1.00" d=" M 798.93 475.18 C 815.34 475.07 831.76 475.08 848.17 475.20 L 848.74 475.94 L 848.18 477.08 C 842.18 477.34 836.16 477.15 830.15 477.16 C 819.80 476.85 809.39 477.64 799.08 476.78 L 798.40 475.98 L 798.93 475.18 Z" />
<path fill="#181b4a" opacity="1.00" d=" M 228.63 507.54 C 230.08 504.67 231.38 501.28 234.50 499.83 C 234.07 503.36 231.29 505.89 230.16 509.16 C 228.40 513.19 228.18 517.66 228.36 522.00 C 228.37 522.59 228.40 523.77 228.42 524.36 C 227.94 524.12 227.00 523.64 226.52 523.40 C 225.89 518.04 226.22 512.45 228.63 507.54 Z" />
<path fill="#181b4a" opacity="1.00" d=" M 188.45 577.00 C 207.41 577.34 226.34 576.46 245.30 576.55 C 245.39 577.18 245.57 578.44 245.67 579.07 C 238.29 578.88 230.92 578.82 223.56 579.13 C 212.20 578.32 200.79 578.98 189.42 578.77 L 188.77 578.76 C 188.69 578.32 188.53 577.44 188.45 577.00 Z" />
<path fill="#181b4a" opacity="1.00" d=" M 201.25 595.80 C 213.42 595.88 225.59 596.31 237.76 596.31 C 240.17 596.46 242.57 596.73 244.98 596.97 C 244.94 600.53 244.85 604.08 244.58 607.64 C 242.09 607.62 239.61 607.62 237.13 607.63 L 235.59 607.63 C 228.70 607.63 221.81 607.63 214.91 607.63 C 214.48 607.63 213.61 607.63 213.18 607.63 C 209.19 607.63 205.20 607.63 201.21 607.64 C 201.25 603.69 201.24 599.75 201.25 595.80 Z" />
</g>
<g id="#fffcf5ff">
<path fill="#fffcf5" opacity="1.00" d=" M 180.66 301.46 C 181.65 301.49 183.62 301.54 184.61 301.56 C 184.14 306.28 182.63 310.80 181.58 315.40 C 180.19 320.76 179.23 326.25 177.48 331.52 C 176.87 333.41 174.45 332.02 173.29 331.47 C 176.05 321.54 177.99 311.41 180.66 301.46 Z" />
</g>
<g id="#fefcf5ff">
<path fill="#fefcf5" opacity="1.00" d=" M 162.61 309.48 C 165.47 308.20 168.30 306.64 171.48 306.34 C 171.54 307.96 171.48 309.58 171.29 311.19 C 167.24 313.63 162.50 314.56 158.30 316.71 C 158.31 316.85 158.34 317.15 158.35 317.29 C 162.77 319.06 167.23 320.74 171.58 322.69 C 171.51 324.39 171.45 326.09 171.40 327.80 C 164.21 325.78 157.64 321.97 150.67 319.30 C 150.70 317.77 150.73 316.24 150.76 314.73 C 154.66 312.87 158.73 311.39 162.61 309.48 Z" />
</g>
<g id="#fefcf6ff">
<path fill="#fefcf6" opacity="1.00" d=" M 187.41 311.59 C 185.78 310.06 186.83 307.71 187.50 305.99 C 194.12 308.90 200.81 311.65 207.35 314.74 C 207.35 316.28 207.35 317.82 207.36 319.36 C 200.50 322.22 193.82 325.53 186.83 328.06 C 186.85 326.09 185.54 322.92 188.09 322.06 C 191.94 319.94 196.83 319.56 200.11 316.56 C 195.90 314.85 191.46 313.68 187.41 311.59 Z" />
</g>
<g id="#f9b54fff">
<path fill="#f9b54f" opacity="1.00" d=" M 505.55 314.36 C 510.57 316.51 514.24 320.88 517.93 324.76 C 517.15 326.42 516.50 328.13 516.11 329.93 C 517.71 329.29 519.23 328.19 521.02 328.16 C 528.88 337.20 534.85 348.32 536.44 360.32 C 537.39 366.10 538.35 372.37 535.97 377.94 C 523.39 362.04 515.17 343.24 508.68 324.17 C 508.06 322.49 509.19 320.09 507.06 319.20 C 506.52 317.60 506.03 315.97 505.55 314.36 Z" />
<path fill="#f9b54f" opacity="1.00" d=" M 502.85 318.53 C 503.44 318.44 504.61 318.26 505.20 318.17 C 507.62 322.71 508.61 327.85 510.63 332.57 C 516.25 348.28 523.87 363.25 533.59 376.82 C 530.85 376.43 528.81 374.43 526.59 372.98 C 515.52 363.97 505.43 352.45 502.42 338.11 C 500.93 331.62 501.82 324.99 502.85 318.53 Z" />
</g>
<g id="#fefefcff">
<path fill="#fefefc" opacity="1.00" d=" M 617.89 320.88 C 674.27 320.70 730.65 320.85 787.03 320.80 C 792.98 320.86 798.93 320.65 804.88 320.94 C 805.20 324.67 805.20 328.41 804.86 332.14 C 742.57 332.28 680.27 332.20 617.98 332.18 C 617.74 328.41 617.83 324.64 617.89 320.88 Z" />
</g>
<g id="#fcfdfdff">
<path fill="#fcfdfd" opacity="1.00" d=" M 816.63 320.90 C 820.34 320.77 824.07 320.68 827.79 321.01 C 827.85 324.71 827.86 328.42 827.83 332.13 C 824.09 332.24 820.35 332.22 816.62 332.16 C 816.55 328.40 816.53 324.65 816.63 320.90 Z" />
<path fill="#fcfdfd" opacity="1.00" d=" M 546.66 348.56 C 548.07 347.34 549.48 346.11 550.77 344.76 C 550.84 353.17 550.58 361.59 550.76 370.01 C 550.82 372.52 550.60 375.02 550.17 377.50 C 547.75 368.06 546.65 358.29 546.66 348.56 Z" />
</g>
<g id="#fcfdfeff">
<path fill="#fcfdfe" opacity="1.00" d=" M 836.31 321.04 C 840.09 320.71 843.91 320.66 847.70 321.04 C 847.60 324.69 847.59 328.34 847.67 331.99 C 843.90 332.33 840.10 332.31 836.33 331.99 C 836.34 328.34 836.33 324.69 836.31 321.04 Z" />
</g>
<g id="#fdfeffff">
<path fill="#fdfeff" opacity="1.00" d=" M 856.12 320.97 C 859.83 320.74 863.56 320.78 867.30 320.85 C 867.06 324.48 868.01 328.39 866.94 331.85 C 863.40 332.63 859.71 332.08 856.12 332.09 C 856.14 328.38 856.14 324.67 856.12 320.97 Z" />
<path fill="#fdfeff" opacity="1.00" d=" M 816.59 383.58 C 820.34 383.45 824.11 383.36 827.86 383.66 C 827.84 387.34 827.84 391.03 827.77 394.72 C 824.00 394.67 820.22 394.94 816.47 394.46 C 816.57 390.83 816.57 387.21 816.59 383.58 Z" />
<path fill="#fdfeff" opacity="1.00" d=" M 856.07 383.67 C 859.80 383.35 863.56 383.40 867.30 383.61 C 867.36 387.32 867.48 391.04 867.17 394.75 C 863.50 394.69 859.83 394.71 856.17 394.76 C 856.13 391.06 856.14 387.36 856.07 383.67 Z" />
<path fill="#fdfeff" opacity="1.00" d=" M 816.67 446.17 C 820.38 445.95 824.11 445.88 827.82 446.20 C 827.83 449.87 827.82 453.55 827.84 457.23 C 824.10 457.40 820.37 457.41 816.64 457.25 C 816.51 453.56 816.50 449.86 816.67 446.17 Z" />
<path fill="#fdfeff" opacity="1.00" d=" M 856.14 446.15 C 859.81 446.10 863.49 446.11 867.18 446.10 C 867.49 449.83 867.38 453.57 867.23 457.31 C 863.52 457.39 859.82 457.40 856.12 457.29 C 856.13 453.57 856.13 449.86 856.14 446.15 Z" />
<path fill="#fdfeff" opacity="1.00" d=" M 836.29 519.77 C 836.36 516.04 836.11 512.30 836.58 508.60 C 840.23 508.66 843.88 508.65 847.54 508.70 C 847.65 512.42 847.65 516.16 847.46 519.88 C 843.73 519.88 840.01 519.88 836.29 519.77 Z" />
<path fill="#fdfeff" opacity="1.00" d=" M 618.08 696.35 C 680.32 696.53 742.56 696.45 804.80 696.39 C 805.11 700.39 805.58 704.51 804.42 708.44 C 766.95 708.00 729.46 708.38 691.99 708.24 C 667.29 708.34 642.60 708.09 617.91 708.37 C 617.79 704.36 617.68 700.34 618.08 696.35 Z" />
</g>
<g id="#e6bb8cff">
<path fill="#e6bb8c" opacity="1.00" d=" M 575.61 331.43 C 578.81 328.23 582.63 325.61 587.05 324.42 C 585.07 327.50 582.78 330.36 580.56 333.27 C 580.39 332.78 580.05 331.79 579.87 331.29 C 578.45 331.30 577.02 331.36 575.61 331.43 Z" />
</g>
<g id="#fab54eff">
<path fill="#fab54e" opacity="1.00" d=" M 575.61 331.43 C 577.02 331.36 578.45 331.30 579.87 331.29 C 580.05 331.79 580.39 332.78 580.56 333.27 C 578.32 337.56 577.04 342.28 576.08 347.01 C 572.42 366.89 574.85 387.28 578.28 407.01 C 578.34 407.57 578.46 408.70 578.51 409.27 C 569.17 405.08 565.40 394.84 560.63 386.54 C 558.62 378.18 555.55 369.74 556.87 361.00 C 558.55 348.95 566.72 339.16 575.61 331.43 Z" />
<path fill="#fab54e" opacity="1.00" d=" M 488.90 427.58 C 497.99 424.84 507.58 425.02 516.97 425.21 C 526.22 425.41 535.36 427.65 543.85 431.28 C 549.41 433.66 555.15 436.07 559.64 440.25 C 543.11 440.28 526.46 440.38 510.09 442.78 C 512.00 443.48 514.03 443.08 516.00 442.93 C 529.78 441.66 543.64 441.09 557.48 441.46 C 557.38 441.99 557.18 443.07 557.07 443.60 C 549.95 450.64 540.84 455.36 531.55 458.88 C 528.07 460.11 524.57 461.51 520.86 461.81 C 518.28 459.16 516.57 455.83 514.33 452.91 C 513.57 456.35 513.32 459.87 513.31 463.40 C 506.37 465.18 499.13 464.59 492.04 464.67 C 477.40 464.71 463.10 461.00 449.19 456.77 C 446.88 456.11 444.73 455.02 442.79 453.63 C 459.08 450.42 475.50 447.70 492.00 445.85 L 492.02 444.13 C 475.14 446.21 458.40 449.26 441.63 451.94 C 444.32 449.87 446.85 447.59 449.62 445.63 C 454.24 442.38 459.16 439.59 464.11 436.91 C 468.30 434.57 472.31 438.47 476.09 439.93 C 476.15 437.12 476.00 434.28 476.41 431.49 C 480.37 429.62 484.74 428.87 488.90 427.58 M 492.34 444.33 L 492.09 445.58 C 497.57 444.28 503.70 444.62 508.90 443.21 C 503.49 442.32 497.85 444.15 492.34 444.33 Z" />
</g>
<g id="#1b1c4bff">
<path fill="#1b1c4b" opacity="1.00" d=" M 239.13 371.98 C 244.15 363.17 255.36 358.35 265.17 361.09 C 258.10 361.97 250.83 364.65 246.28 370.39 C 243.08 374.18 241.74 379.08 241.00 383.90 C 239.26 385.55 237.56 387.27 236.29 389.33 C 235.14 383.45 235.98 377.12 239.13 371.98 Z" />
</g>
<g id="#aaa5f7ff">
<path fill="#aaa5f7" opacity="1.00" d=" M 265.17 361.09 C 266.83 361.02 268.50 361.58 269.19 363.23 C 263.00 364.14 256.60 366.50 252.67 371.61 C 249.73 375.21 248.49 379.79 247.50 384.24 C 248.82 385.63 250.14 387.03 251.39 388.49 C 253.66 393.51 251.23 399.05 248.10 403.10 C 247.69 403.10 246.88 403.12 246.48 403.12 L 246.26 403.93 C 241.66 404.33 237.26 401.38 236.13 396.87 C 236.01 396.41 235.77 395.48 235.65 395.02 C 235.70 393.10 235.92 391.20 236.29 389.33 C 237.56 387.27 239.26 385.55 241.00 383.90 C 241.74 379.08 243.08 374.18 246.28 370.39 C 250.83 364.65 258.10 361.97 265.17 361.09 M 239.38 390.42 C 239.30 392.79 239.30 395.18 239.38 397.56 C 240.83 398.29 242.19 399.33 243.80 399.68 C 245.53 399.44 247.07 398.41 248.35 397.27 C 249.00 395.02 248.56 392.62 248.59 390.32 C 247.45 389.40 246.37 388.39 245.06 387.72 C 242.62 386.74 241.09 389.17 239.38 390.42 Z" />
</g>
<g id="#191b4bff">
<path fill="#191b4b" opacity="1.00" d=" M 252.67 371.61 C 256.60 366.50 263.00 364.14 269.19 363.23 C 274.15 363.48 277.47 368.39 280.12 372.10 C 279.03 372.73 277.88 373.24 276.71 373.69 L 276.63 373.89 C 275.41 377.21 272.74 379.58 269.93 381.58 C 267.96 382.97 265.88 384.22 264.07 385.85 C 263.52 385.67 262.41 385.31 261.86 385.13 C 258.37 386.24 254.86 387.32 251.39 388.49 C 250.14 387.03 248.82 385.63 247.50 384.24 C 248.49 379.79 249.73 375.21 252.67 371.61 Z" />
<path fill="#191b4b" opacity="1.00" d=" M 121.29 530.22 C 139.25 530.13 157.20 530.20 175.16 530.19 C 179.93 530.19 184.70 530.26 189.47 530.18 C 199.29 530.09 209.11 530.03 218.92 530.19 C 233.00 530.24 247.09 530.23 261.18 530.17 C 268.42 530.19 275.67 530.19 282.92 530.19 C 310.04 530.19 337.16 530.18 364.28 530.19 C 394.30 530.23 424.33 530.23 454.36 530.19 C 473.41 530.16 492.46 530.25 511.51 530.14 C 511.54 537.95 511.48 545.75 511.55 553.56 C 505.61 553.61 499.68 553.59 493.75 553.58 C 493.19 553.57 492.64 553.57 492.09 553.58 C 477.83 553.60 463.57 553.58 449.30 553.59 C 406.80 553.69 364.28 553.37 321.77 553.75 C 307.44 553.57 293.09 553.63 278.75 553.74 L 278.18 553.73 C 271.16 552.74 264.08 553.46 257.03 553.29 C 238.89 553.14 220.76 553.31 202.63 553.72 C 194.89 553.46 187.14 553.59 179.39 553.60 C 168.94 553.56 158.49 553.62 148.03 553.56 C 147.47 553.55 146.91 553.55 146.35 553.56 C 138.00 553.61 129.64 553.58 121.29 553.60 C 121.29 545.80 121.31 538.01 121.29 530.22 Z" />
</g>
<g id="#1b1a42ff">
<path fill="#1b1a42" opacity="1.00" d=" M 280.12 372.10 C 282.32 375.93 283.21 380.29 283.59 384.65 C 282.18 383.46 280.73 382.26 278.84 382.05 C 280.00 382.83 281.22 383.49 282.46 384.16 C 282.54 384.79 282.69 386.05 282.77 386.68 C 282.65 387.51 282.51 388.34 282.39 389.18 C 281.99 389.83 281.18 391.13 280.78 391.79 C 280.31 389.08 280.08 386.35 279.94 383.61 C 278.22 383.57 276.50 383.56 274.78 383.56 C 276.17 381.93 278.01 380.84 280.07 380.23 C 279.08 378.03 277.89 375.94 276.63 373.89 L 276.71 373.69 C 277.88 373.24 279.03 372.73 280.12 372.10 Z" />
</g>
<g id="#f4a58cff">
<path fill="#f4a58c" opacity="1.00" d=" M 276.63 373.89 C 277.89 375.94 279.08 378.03 280.07 380.23 C 278.01 380.84 276.17 381.93 274.78 383.56 C 276.50 383.56 278.22 383.57 279.94 383.61 C 280.08 386.35 280.31 389.08 280.78 391.79 L 280.80 391.86 C 279.80 391.84 278.80 391.83 277.82 391.83 C 277.43 391.44 276.67 390.66 276.29 390.27 L 275.65 391.07 C 275.28 390.42 274.55 389.13 274.18 388.48 L 275.83 388.26 C 275.82 387.28 275.82 386.31 275.81 385.35 L 274.89 385.35 C 274.24 385.64 272.96 386.22 272.31 386.52 C 271.62 385.69 270.89 384.90 270.18 384.11 C 271.42 386.52 272.41 389.29 271.31 391.96 C 269.52 394.19 265.99 393.43 264.85 390.97 C 263.45 388.94 265.35 386.76 266.39 385.03 C 266.86 384.90 267.78 384.66 268.25 384.54 L 268.33 383.71 C 268.86 382.99 269.39 382.28 269.93 381.58 C 272.74 379.58 275.41 377.21 276.63 373.89 M 277.09 387.34 C 276.60 388.97 277.17 389.53 278.80 389.02 C 279.26 387.39 278.69 386.83 277.09 387.34 M 267.21 388.17 C 266.77 389.80 267.35 390.35 268.95 389.82 C 269.39 388.17 268.81 387.62 267.21 388.17 Z" />
</g>
<g id="#fefeffff">
<path fill="#fefeff" opacity="1.00" d=" M 618.20 383.41 C 680.38 383.51 742.56 383.46 804.74 383.43 C 805.21 387.18 805.22 390.96 804.84 394.72 C 742.60 394.72 680.37 394.74 618.13 394.71 C 617.77 390.95 617.60 387.15 618.20 383.41 Z" />
<path fill="#fefeff" opacity="1.00" d=" M 618.04 446.13 C 680.32 446.12 742.60 446.12 804.87 446.13 C 805.13 449.83 805.14 453.55 804.97 457.26 C 742.61 457.44 680.25 457.39 617.88 457.28 C 617.82 453.56 617.71 449.84 618.04 446.13 Z" />
<path fill="#fefeff" opacity="1.00" d=" M 655.19 476.21 C 700.45 476.13 745.71 476.21 790.97 476.18 C 793.68 476.11 796.43 476.04 799.08 476.78 C 809.39 477.64 819.80 476.85 830.15 477.16 C 830.21 481.37 830.25 485.59 830.06 489.80 C 771.77 489.84 713.47 489.89 655.18 489.78 C 655.15 485.26 655.15 480.74 655.19 476.21 Z" />
<path fill="#fefeff" opacity="1.00" d=" M 617.89 508.71 C 680.20 508.69 742.53 508.57 804.85 508.77 C 805.01 512.46 805.19 516.15 804.97 519.84 C 742.61 519.89 680.25 519.85 617.88 519.86 C 617.80 516.14 617.79 512.42 617.89 508.71 Z" />
<path fill="#fefeff" opacity="1.00" d=" M 816.65 508.72 C 820.36 508.62 824.09 508.55 827.81 508.78 C 827.83 512.47 827.83 516.16 827.83 519.85 C 824.12 519.87 820.41 519.86 816.70 519.87 C 816.45 516.15 816.52 512.43 816.65 508.72 Z" />
</g>
<g id="#fdfdffff">
<path fill="#fdfdff" opacity="1.00" d=" M 836.42 383.49 C 840.15 383.46 843.88 383.45 847.62 383.44 C 847.59 387.24 847.72 391.05 847.50 394.85 C 843.74 394.61 839.97 394.74 836.21 394.81 C 836.41 391.04 836.20 387.26 836.42 383.49 Z" />
<path fill="#fdfdff" opacity="1.00" d=" M 836.31 446.19 C 840.09 446.06 843.88 446.06 847.67 446.21 C 847.61 449.96 847.61 453.70 847.58 457.45 C 843.83 457.34 840.08 457.33 836.34 457.44 C 836.29 453.69 836.29 449.94 836.31 446.19 Z" />
<path fill="#fdfdff" opacity="1.00" d=" M 816.56 696.51 C 820.31 696.38 824.05 696.41 827.80 696.37 C 827.86 700.15 827.85 703.94 827.83 707.72 C 824.04 707.72 820.26 707.70 816.48 707.64 C 816.55 703.92 816.54 700.21 816.56 696.51 Z" />
<path fill="#fdfdff" opacity="1.00" d=" M 836.31 696.41 C 840.07 696.43 843.84 696.42 847.61 696.42 C 847.61 700.16 847.61 703.91 847.66 707.66 C 843.88 707.71 840.11 707.73 836.33 707.71 C 836.32 703.94 836.30 700.17 836.31 696.41 Z" />
</g>
<g id="#573a39ff">
<path fill="#573a39" opacity="1.00" d=" M 266.58 384.27 C 267.01 384.13 267.89 383.85 268.33 383.71 L 268.25 384.54 C 267.78 384.66 266.86 384.90 266.39 385.03 L 266.58 384.27 Z" />
</g>
<g id="#e0e1faff">
<path fill="#e0e1fa" opacity="1.00" d=" M 551.39 383.65 C 554.04 388.74 558.23 392.72 561.99 396.97 C 571.92 408.00 581.93 418.96 591.84 430.02 C 590.06 430.50 588.27 430.98 586.50 431.47 C 574.52 419.19 562.52 406.93 550.58 394.61 C 551.29 390.99 549.72 387.05 551.39 383.65 Z" />
</g>
<g id="#fba388ff">
<path fill="#fba388" opacity="1.00" d=" M 251.39 388.49 C 254.86 387.32 258.37 386.24 261.86 385.13 C 262.41 385.31 263.52 385.67 264.07 385.85 C 264.12 386.67 264.23 388.32 264.28 389.14 C 263.70 389.31 262.55 389.64 261.98 389.80 C 259.74 390.56 255.87 390.68 256.08 393.96 C 255.49 397.85 260.92 400.31 263.58 397.60 C 264.49 396.22 265.08 394.66 265.80 393.18 C 267.33 393.35 268.86 393.49 270.40 393.63 C 271.44 392.07 272.51 390.53 273.70 389.07 C 274.03 389.77 274.69 391.15 275.02 391.85 C 275.79 392.52 276.54 393.22 277.27 393.95 C 276.66 394.89 275.99 395.79 275.32 396.69 C 276.09 396.39 276.86 396.08 277.63 395.77 C 277.67 395.01 277.75 393.50 277.79 392.74 C 278.74 392.62 280.63 392.38 281.58 392.27 C 281.88 394.50 282.39 396.72 282.47 398.99 C 281.67 402.71 279.38 406.38 275.85 408.03 C 273.27 409.35 270.34 409.65 267.56 410.35 L 267.01 410.43 L 266.95 409.77 C 261.53 408.69 256.57 406.22 252.13 402.98 C 255.63 408.42 260.82 412.88 267.22 414.43 C 267.45 417.66 268.59 420.72 269.72 423.73 C 264.62 425.56 259.08 424.05 253.93 425.58 C 250.82 424.54 247.79 423.23 245.03 421.43 L 245.46 420.55 C 247.32 417.30 248.82 413.75 248.46 409.92 C 248.44 407.95 248.31 405.90 247.02 404.32 C 247.29 404.02 247.83 403.40 248.10 403.10 C 251.23 399.05 253.66 393.51 251.39 388.49 M 266.93 399.16 C 267.09 402.72 273.32 403.70 275.46 401.11 C 272.47 401.15 269.43 400.97 266.93 399.16 Z" />
</g>
<g id="#3b3f94ff">
<path fill="#3b3f94" opacity="1.00" d=" M 282.77 386.68 L 282.87 385.98 C 284.45 388.84 285.05 392.28 283.40 395.27 C 283.24 395.56 282.92 396.14 282.75 396.43 C 282.36 394.03 282.36 391.60 282.39 389.18 C 282.51 388.34 282.65 387.51 282.77 386.68 Z" />
<path fill="#3b3f94" opacity="1.00" d=" M 223.56 579.13 C 230.92 578.82 238.29 578.88 245.67 579.07 C 246.17 584.03 245.93 589.02 245.83 594.00 C 245.47 605.99 246.18 617.98 245.97 629.97 C 245.82 659.27 246.13 688.56 245.82 717.86 C 242.83 718.01 239.84 718.12 236.85 718.23 C 235.86 711.66 237.28 705.05 237.16 698.46 C 238.56 689.39 238.82 680.20 239.56 671.06 C 241.28 649.92 242.87 628.77 244.58 607.64 C 244.85 604.08 244.94 600.53 244.98 596.97 C 242.57 596.73 240.17 596.46 237.76 596.31 C 239.88 596.23 242.01 596.07 244.13 595.93 C 236.65 591.17 229.44 585.80 223.56 579.13 Z" />
</g>
<g id="#873a32ff">
<path fill="#873a32" opacity="1.00" d=" M 277.09 387.34 C 278.69 386.83 279.26 387.39 278.80 389.02 C 277.17 389.53 276.60 388.97 277.09 387.34 Z" />
</g>
<g id="#f3d7c9ff">
<path fill="#f3d7c9" opacity="1.00" d=" M 560.63 386.54 C 565.40 394.84 569.17 405.08 578.51 409.27 L 578.64 409.52 C 577.89 409.75 576.37 410.23 575.61 410.46 C 570.56 405.04 565.65 399.50 560.70 393.99 C 560.89 391.51 561.03 389.01 560.63 386.54 Z" />
</g>
<g id="#d1adacff">
<path fill="#d1adac" opacity="1.00" d=" M 239.38 390.42 C 241.09 389.17 242.62 386.74 245.06 387.72 C 246.37 388.39 247.45 389.40 248.59 390.32 C 248.56 392.62 249.00 395.02 248.35 397.27 C 247.07 398.41 245.53 399.44 243.80 399.68 C 242.19 399.33 240.83 398.29 239.38 397.56 C 239.30 395.18 239.30 392.79 239.38 390.42 M 243.36 389.36 C 240.27 390.24 239.78 394.29 241.40 396.65 C 243.09 398.55 247.24 398.15 247.27 395.10 C 248.04 392.61 246.34 388.80 243.36 389.36 Z" />
</g>
<g id="#6f3b2dff">
<path fill="#6f3b2d" opacity="1.00" d=" M 267.21 388.17 C 268.81 387.62 269.39 388.17 268.95 389.82 C 267.35 390.35 266.77 389.80 267.21 388.17 Z" />
</g>
<g id="#d39247ff">
<path fill="#d39247" opacity="1.00" d=" M 243.36 389.36 C 246.34 388.80 248.04 392.61 247.27 395.10 C 247.24 398.15 243.09 398.55 241.40 396.65 C 239.78 394.29 240.27 390.24 243.36 389.36 Z" />
</g>
<g id="#f96d4eff">
<path fill="#f96d4e" opacity="1.00" d=" M 256.08 393.96 C 255.87 390.68 259.74 390.56 261.98 389.80 C 263.82 390.15 264.76 391.80 265.80 393.18 C 265.08 394.66 264.49 396.22 263.58 397.60 C 260.92 400.31 255.49 397.85 256.08 393.96 Z" />
</g>
<g id="#20263bff">
<path fill="#20263b" opacity="1.00" d=" M 283.40 395.27 C 285.51 394.57 287.76 394.93 289.94 394.86 C 339.66 394.91 389.38 394.82 439.11 394.90 C 439.19 397.28 439.19 399.67 438.98 402.04 C 436.03 402.27 437.42 398.83 437.08 397.04 C 385.52 396.92 333.96 396.88 282.40 397.08 L 282.75 396.43 C 282.92 396.14 283.24 395.56 283.40 395.27 Z" />
</g>
<g id="#9694dcff">
<path fill="#9694dc" opacity="1.00" d=" M 836.21 394.81 C 839.97 394.74 843.74 394.61 847.50 394.85 L 848.12 395.88 C 844.35 396.46 840.37 396.79 836.67 395.71 L 836.21 394.81 Z" />
</g>
<g id="#e1e1f8ff">
<path fill="#e1e1f8" opacity="1.00" d=" M 551.11 396.68 C 561.22 406.97 571.23 417.34 581.33 427.64 C 583.89 430.21 586.24 433.04 589.25 435.13 C 588.87 435.60 588.50 436.07 588.14 436.55 C 576.06 427.31 563.24 419.07 550.60 410.62 C 550.87 405.98 549.99 401.24 551.11 396.68 Z" />
</g>
<g id="#9a5941ff">
<path fill="#9a5941" opacity="1.00" d=" M 266.93 399.16 C 269.43 400.97 272.47 401.15 275.46 401.11 C 273.32 403.70 267.09 402.72 266.93 399.16 Z" />
</g>
<g id="#4b3f5eff">
<path fill="#4b3f5e" opacity="1.00" d=" M 246.48 403.12 C 246.88 403.12 247.69 403.10 248.10 403.10 C 247.83 403.40 247.29 404.02 247.02 404.32 L 246.26 403.93 L 246.48 403.12 Z" />
</g>
<g id="#211f4bff">
<path fill="#211f4b" opacity="1.00" d=" M 252.13 402.98 C 256.57 406.22 261.53 408.69 266.95 409.77 L 267.01 410.43 C 267.06 411.43 267.17 413.43 267.22 414.43 C 260.82 412.88 255.63 408.42 252.13 402.98 Z" />
</g>
<g id="#fcfdffff">
<path fill="#fcfdff" opacity="1.00" d=" M 575.61 410.46 C 576.37 410.23 577.89 409.75 578.64 409.52 C 583.66 417.90 590.70 424.91 597.56 431.81 L 597.55 432.04 C 597.54 432.90 597.55 433.77 597.58 434.65 C 590.19 426.65 583.00 418.46 575.61 410.46 Z" />
<path fill="#fcfdff" opacity="1.00" d=" M 816.76 571.22 C 820.44 571.31 824.12 571.28 827.81 571.27 C 827.82 574.99 827.81 578.72 827.89 582.45 C 824.12 582.61 820.36 582.58 816.61 582.48 C 816.58 578.72 816.41 574.96 816.76 571.22 Z" />
<path fill="#fcfdff" opacity="1.00" d=" M 836.30 571.32 C 840.08 571.26 843.86 571.26 847.64 571.31 C 847.61 575.06 847.58 578.81 847.63 582.57 C 843.86 582.56 840.11 582.56 836.35 582.60 C 836.32 578.83 836.31 575.07 836.30 571.32 Z" />
</g>
<g id="#e2e1fdff">
<path fill="#e2e1fd" opacity="1.00" d=" M 551.82 412.71 C 560.30 418.27 568.72 423.91 576.99 429.77 C 575.16 430.40 573.26 430.86 571.32 430.90 C 564.52 431.08 557.71 431.18 550.91 430.88 C 550.88 424.85 549.58 418.49 551.82 412.71 Z" />
<path fill="#e2e1fd" opacity="1.00" d=" M 236.85 718.23 C 239.84 718.12 242.83 718.01 245.82 717.86 C 245.85 720.61 245.85 723.37 245.74 726.14 C 245.58 730.79 246.33 735.42 246.34 740.08 C 243.28 740.17 240.22 740.17 237.16 740.15 C 237.00 732.85 237.57 725.51 236.85 718.23 Z" />
</g>
<g id="#535acfff">
<path fill="#535acf" opacity="1.00" d=" M 209.47 433.44 C 218.37 427.61 228.59 424.00 238.96 421.83 C 244.76 419.87 249.13 425.04 254.50 426.18 C 261.16 427.89 268.80 427.13 274.83 423.68 C 286.36 423.58 296.77 430.45 303.30 439.61 C 310.38 448.17 316.96 457.31 321.34 467.58 C 312.91 467.63 304.47 467.47 296.04 467.61 C 293.84 467.38 291.89 468.95 291.67 471.15 C 288.65 485.01 286.27 499.02 283.14 512.87 C 275.96 511.27 268.64 510.05 261.78 507.30 C 258.99 506.03 256.06 505.08 253.09 504.33 C 247.62 502.92 242.41 500.64 236.85 499.56 C 230.85 493.55 226.10 486.18 223.82 477.96 C 222.72 474.25 222.64 470.26 220.90 466.75 C 219.82 469.75 220.39 472.95 221.17 475.94 C 223.23 484.92 227.76 493.50 234.50 499.83 C 231.38 501.28 230.08 504.67 228.63 507.54 C 226.22 512.45 225.89 518.04 226.52 523.40 C 227.00 523.64 227.94 524.12 228.42 524.36 C 233.28 524.68 238.18 524.12 243.02 524.83 C 249.04 525.81 255.21 525.20 261.18 526.59 C 261.18 527.49 261.18 529.28 261.18 530.17 C 247.09 530.23 233.00 530.24 218.92 530.19 C 218.73 528.06 218.76 525.90 218.24 523.83 C 216.81 521.83 214.13 521.67 211.98 520.97 C 206.91 519.94 202.48 516.49 200.04 511.96 C 197.64 507.48 195.87 502.69 194.10 497.93 C 187.86 479.92 188.60 458.51 200.17 442.74 L 199.01 442.94 C 202.81 440.12 205.44 435.99 209.47 433.44 Z" />
<path fill="#535acf" opacity="1.00" d=" M 598.28 552.82 C 600.80 552.72 603.34 552.63 605.88 552.57 C 605.73 553.02 605.43 553.92 605.29 554.37 C 603.14 553.19 600.90 553.34 598.88 554.66 C 597.72 566.77 599.25 578.91 598.38 591.03 C 598.16 594.06 598.48 597.09 598.90 600.10 C 608.99 600.74 619.12 599.81 629.20 600.62 C 618.92 600.92 608.62 600.69 598.33 600.74 C 597.29 591.51 598.75 582.23 598.16 572.97 C 597.47 566.25 598.48 559.54 598.28 552.82 Z" />
<path fill="#535acf" opacity="1.00" d=" M 618.57 570.49 C 618.93 570.41 619.65 570.25 620.01 570.18 C 677.33 570.21 734.68 570.14 792.02 570.20 C 796.14 570.28 800.32 569.74 804.40 570.60 C 750.59 570.82 696.79 570.62 642.98 570.70 C 634.84 570.60 626.70 570.89 618.57 570.49 Z" />
<path fill="#535acf" opacity="1.00" d=" M 618.56 583.47 C 624.29 582.02 630.21 583.29 636.03 582.76 C 688.69 582.70 741.35 582.74 794.01 582.72 C 797.49 582.73 801.00 582.51 804.46 583.08 L 805.15 583.20 C 759.78 583.52 714.40 583.19 669.02 583.35 C 651.99 583.40 634.96 583.16 617.94 583.61 L 618.56 583.47 Z" />
<path fill="#535acf" opacity="1.00" d=" M 654.93 600.55 C 676.26 600.02 697.63 600.49 718.98 600.32 C 756.00 600.43 793.04 600.12 830.06 600.46 L 829.47 600.52 C 813.00 601.07 796.49 600.60 780.00 600.77 C 738.50 600.64 696.98 601.00 655.48 600.59 L 654.93 600.55 Z" />
<path fill="#535acf" opacity="1.00" d=" M 598.32 678.31 C 600.28 678.26 602.25 678.21 604.23 678.10 C 602.42 678.42 600.62 678.73 598.83 679.06 C 598.48 681.68 598.18 684.33 598.35 686.99 C 599.11 698.66 598.13 710.38 598.83 722.05 C 599.09 723.26 598.81 725.81 600.78 725.58 C 610.32 725.98 619.89 725.49 629.45 725.66 L 629.99 726.38 C 619.49 726.35 608.98 726.17 598.47 726.46 C 597.73 712.99 598.73 699.49 597.87 686.04 C 597.78 683.45 598.08 680.87 598.32 678.31 Z" />
<path fill="#535acf" opacity="1.00" d=" M 617.91 708.37 C 642.60 708.09 667.29 708.34 691.99 708.24 C 729.46 708.38 766.95 708.00 804.42 708.44 C 801.32 709.05 798.15 708.74 795.03 708.70 C 741.67 708.73 688.31 708.69 634.96 708.72 C 629.72 708.76 624.44 708.33 619.27 709.30 C 618.93 709.07 618.25 708.60 617.91 708.37 Z" />
</g>
<g id="#fbfcffff">
<path fill="#fbfcff" opacity="1.00" d=" M 591.84 430.02 C 593.77 432.14 595.70 434.27 597.62 436.41 C 597.64 438.52 597.52 440.63 597.43 442.74 C 593.82 438.95 590.16 435.22 586.50 431.47 C 588.27 430.98 590.06 430.50 591.84 430.02 Z" />
</g>
<g id="#d2d4d3ff">
<path fill="#d2d4d3" opacity="1.00" d=" M 590.91 437.91 C 590.48 437.48 590.48 437.48 590.91 437.91 Z" />
</g>
<g id="#a2a4a3ff">
<path fill="#a2a4a3" opacity="1.00" d=" M 590.91 437.91 C 591.32 438.32 591.32 438.32 590.91 437.91 Z" />
</g>
<g id="#262a71ff">
<path fill="#262a71" opacity="1.00" d=" M 180.63 466.47 C 183.97 456.99 189.61 447.41 199.01 442.94 L 200.17 442.74 C 188.60 458.51 187.86 479.92 194.10 497.93 C 195.87 502.69 197.64 507.48 200.04 511.96 C 202.48 516.49 206.91 519.94 211.98 520.97 C 214.13 521.67 216.81 521.83 218.24 523.83 C 218.76 525.90 218.73 528.06 218.92 530.19 C 209.11 530.03 199.29 530.09 189.47 530.18 C 185.82 521.32 182.51 512.29 180.27 502.95 C 178.91 497.83 178.35 492.51 176.63 487.49 C 176.72 480.31 178.31 473.23 180.63 466.47 Z" />
</g>
<g id="#7d5416ff">
<path fill="#7d5416" opacity="1.00" d=" M 441.63 451.94 C 458.40 449.26 475.14 446.21 492.02 444.13 L 492.00 445.85 C 475.50 447.70 459.08 450.42 442.79 453.63 C 441.89 453.73 440.09 453.92 439.19 454.02 C 439.96 453.28 440.77 452.59 441.63 451.94 Z" />
</g>
<g id="#f3f0efff">
<path fill="#f3f0ef" opacity="1.00" d=" M 321.34 467.58 C 341.55 468.00 361.77 467.77 381.98 467.80 C 383.51 467.76 385.10 467.97 386.26 469.10 C 365.84 469.86 345.38 468.98 324.95 469.50 C 315.10 469.25 305.24 469.44 295.38 469.34 C 293.81 471.58 293.27 474.24 293.02 476.91 C 289.56 494.64 285.64 512.31 282.92 530.19 C 275.67 530.19 268.42 530.19 261.18 530.17 C 261.18 529.28 261.18 527.49 261.18 526.59 C 267.55 527.17 273.95 526.21 280.34 526.50 C 281.67 522.03 282.02 517.37 283.14 512.87 C 286.27 499.02 288.65 485.01 291.67 471.15 C 291.89 468.95 293.84 467.38 296.04 467.61 C 304.47 467.47 312.91 467.63 321.34 467.58 Z" />
</g>
<g id="#dededeff">
<path fill="#dedede" opacity="1.00" d=" M 295.38 469.34 C 305.24 469.44 315.10 469.25 324.95 469.50 C 345.38 468.98 365.84 469.86 386.26 469.10 C 387.88 471.96 387.28 475.23 386.21 478.17 C 384.17 483.81 384.42 489.92 382.70 495.64 C 381.41 499.53 381.32 503.66 380.65 507.67 C 376.98 509.86 372.35 508.45 368.30 509.17 L 368.13 509.90 C 367.85 512.38 367.82 514.88 367.62 517.38 C 367.51 517.96 367.27 519.10 367.15 519.67 C 366.43 519.54 364.98 519.26 364.25 519.13 C 363.63 522.79 363.76 526.52 364.28 530.19 C 337.16 530.18 310.04 530.19 282.92 530.19 C 285.64 512.31 289.56 494.64 293.02 476.91 C 293.27 474.24 293.81 471.58 295.38 469.34 M 337.32 485.41 C 333.96 486.85 331.66 490.28 331.99 493.98 C 331.75 498.91 336.25 502.98 341.01 503.17 C 347.47 503.90 352.95 495.95 349.77 490.23 C 347.94 485.51 341.85 483.22 337.32 485.41 Z" />
</g>
<g id="#887febff">
<path fill="#887feb" opacity="1.00" d=" M 175.16 530.19 C 173.94 516.01 173.70 501.47 176.63 487.49 C 178.35 492.51 178.91 497.83 180.27 502.95 C 182.51 512.29 185.82 521.32 189.47 530.18 C 184.70 530.26 179.93 530.19 175.16 530.19 Z" />
</g>
<g id="#fcfeffff">
<path fill="#fcfeff" opacity="1.00" d=" M 856.12 508.76 C 859.84 508.58 863.57 508.58 867.30 508.73 C 867.42 512.44 867.43 516.16 867.22 519.88 C 863.53 519.87 859.83 519.87 856.15 519.84 C 856.12 516.14 856.12 512.45 856.12 508.76 Z" />
<path fill="#fcfeff" opacity="1.00" d=" M 816.61 633.85 C 820.34 633.79 824.08 633.69 827.80 633.98 C 827.83 637.77 827.86 641.56 827.68 645.35 C 824.01 645.21 820.33 645.23 816.66 645.21 C 816.52 641.42 816.52 637.63 816.61 633.85 Z" />
<path fill="#fcfeff" opacity="1.00" d=" M 856.24 696.38 C 859.84 696.45 863.45 696.46 867.07 696.35 C 867.52 700.13 867.50 703.95 867.15 707.74 C 863.49 707.70 859.83 707.70 856.18 707.72 C 856.08 703.93 856.08 700.15 856.24 696.38 Z" />
</g>
<g id="#a2a1feff">
<path fill="#a2a1fe" opacity="1.00" d=" M 368.13 509.90 C 382.53 509.83 396.93 509.76 411.33 509.98 C 411.40 512.78 411.36 515.58 411.20 518.38 C 398.80 518.34 386.41 518.44 374.01 518.45 C 371.83 518.49 369.71 517.96 367.62 517.38 C 367.82 514.88 367.85 512.38 368.13 509.90 Z" />
</g>
<g id="#d09ac2ff">
<path fill="#d09ac2" opacity="1.00" d=" M 367.62 517.38 C 369.71 517.96 371.83 518.49 374.01 518.45 C 386.41 518.44 398.80 518.34 411.20 518.38 C 411.35 518.38 411.66 518.38 411.81 518.38 C 425.92 519.18 440.08 518.05 454.19 519.02 L 454.35 519.74 C 441.58 519.57 428.80 519.64 416.03 519.70 C 405.72 520.66 395.37 520.16 385.04 520.28 C 379.08 520.12 373.05 520.78 367.15 519.67 C 367.27 519.10 367.51 517.96 367.62 517.38 Z" />
</g>
<g id="#fe8c84ff">
<path fill="#fe8c84" opacity="1.00" d=" M 364.25 519.13 C 364.98 519.26 366.43 519.54 367.15 519.67 C 373.05 520.78 379.08 520.12 385.04 520.28 C 395.37 520.16 405.72 520.66 416.03 519.70 C 428.80 519.64 441.58 519.57 454.35 519.74 C 454.55 523.22 454.41 526.71 454.36 530.19 C 424.33 530.23 394.30 530.23 364.28 530.19 C 363.76 526.52 363.63 522.79 364.25 519.13 Z" />
</g>
<g id="#9278aaff">
<path fill="#9278aa" opacity="1.00" d=" M 228.36 522.00 C 228.68 522.29 229.33 522.86 229.65 523.15 C 238.09 523.44 246.53 523.79 254.94 524.52 C 263.47 524.64 271.78 527.12 280.34 526.50 C 273.95 526.21 267.55 527.17 261.18 526.59 C 255.21 525.20 249.04 525.81 243.02 524.83 C 238.18 524.12 233.28 524.68 228.42 524.36 C 228.40 523.77 228.37 522.59 228.36 522.00 Z" />
</g>
<g id="#fefefeff">
<path fill="#fefefe" opacity="1.00" d=" M 655.16 538.82 C 713.47 538.54 771.79 538.75 830.11 538.71 C 830.21 543.26 830.22 547.81 830.19 552.36 C 785.45 552.70 740.70 552.34 695.96 552.54 C 694.11 552.53 692.29 552.35 690.49 551.98 C 678.75 550.96 666.88 551.80 655.09 551.55 C 655.18 547.30 655.20 543.06 655.16 538.82 Z" />
<path fill="#fefefe" opacity="1.00" d=" M 618.56 583.47 C 617.60 579.22 617.41 574.73 618.57 570.49 C 626.70 570.89 634.84 570.60 642.98 570.70 C 696.79 570.62 750.59 570.82 804.40 570.60 C 805.49 574.67 805.34 578.98 804.46 583.08 C 801.00 582.51 797.49 582.73 794.01 582.72 C 741.35 582.74 688.69 582.70 636.03 582.76 C 630.21 583.29 624.29 582.02 618.56 583.47 Z" />
<path fill="#fefefe" opacity="1.00" d=" M 655.48 600.59 C 696.98 601.00 738.50 600.64 780.00 600.77 C 796.49 600.60 813.00 601.07 829.47 600.52 C 830.73 605.21 830.09 610.12 830.09 614.91 C 815.39 615.43 800.67 614.99 785.97 615.14 C 781.84 614.98 777.65 615.57 773.59 614.72 C 772.06 614.36 770.51 614.09 768.97 614.10 C 745.98 614.11 723.00 614.13 700.01 614.10 C 698.42 614.08 696.86 614.37 695.34 614.76 C 689.28 615.67 683.09 614.88 676.98 615.14 C 669.71 615.00 662.43 615.45 655.19 614.87 C 655.19 610.10 654.95 605.33 655.48 600.59 Z" />
</g>
<g id="#010435ff">
<path fill="#010435" opacity="1.00" d=" M 611.10 552.71 C 616.87 550.20 623.50 552.10 629.64 551.54 C 638.12 551.59 646.61 551.55 655.09 551.55 C 666.88 551.80 678.75 550.96 690.49 551.98 L 690.28 553.40 C 666.20 553.54 642.11 553.44 618.02 553.49 C 615.69 553.54 613.36 553.24 611.10 552.71 Z" />
</g>
<g id="#252a71ff">
<path fill="#252a71" opacity="1.00" d=" M 202.63 553.72 C 220.76 553.31 238.89 553.14 257.03 553.29 C 264.08 553.46 271.16 552.74 278.18 553.73 C 258.79 554.23 239.37 553.49 219.99 554.16 C 218.29 559.84 217.00 565.64 216.05 571.50 C 211.14 565.92 206.46 560.09 202.63 553.72 Z" />
</g>
<g id="#262a73ff">
<path fill="#262a73" opacity="1.00" d=" M 278.75 553.74 C 293.09 553.63 307.44 553.57 321.77 553.75 C 329.48 555.60 337.21 557.36 344.89 559.35 C 353.67 561.68 360.87 568.49 364.24 576.87 C 342.83 576.46 321.40 576.78 299.99 576.72 C 298.61 574.26 297.21 571.75 295.10 569.84 C 289.44 564.70 283.44 559.82 278.75 553.74 Z" />
<path fill="#262a73" opacity="1.00" d=" M 300.77 578.96 C 310.05 579.47 319.35 578.57 328.62 579.23 C 328.59 602.50 328.54 625.77 328.59 649.04 C 328.71 671.45 328.29 693.87 328.81 716.28 C 323.08 716.89 317.39 717.90 311.61 718.03 C 308.55 718.14 305.48 718.10 302.43 718.08 C 305.30 681.28 307.98 644.45 311.18 607.67 C 311.65 603.95 311.64 600.18 311.63 596.44 C 308.45 595.88 305.21 595.81 302.08 596.66 C 302.91 590.73 301.93 584.77 300.77 578.96 Z" />
<path fill="#262a73" opacity="1.00" d=" M 330.36 579.14 C 341.89 578.61 353.45 579.51 364.97 578.71 C 366.05 583.05 366.64 587.58 365.87 592.03 C 361.87 617.87 357.83 643.70 353.79 669.53 C 352.91 676.36 351.35 683.11 350.85 689.99 C 350.99 703.44 350.98 716.90 350.94 730.36 C 350.46 730.26 349.48 730.05 349.00 729.95 C 348.82 720.51 349.41 711.03 348.55 701.62 C 348.05 705.43 347.64 709.25 347.08 713.06 C 343.42 713.60 339.77 714.27 336.13 714.93 C 334.24 715.22 332.34 715.37 330.44 715.48 C 330.40 670.03 330.52 624.59 330.36 579.14 Z" />
</g>
<g id="#8980edff">
<path fill="#8980ed" opacity="1.00" d=" M 179.39 553.60 C 187.14 553.59 194.89 553.46 202.63 553.72 C 206.46 560.09 211.14 565.92 216.05 571.50 C 217.24 572.87 218.44 574.22 219.69 575.56 C 215.71 577.34 211.22 576.23 207.02 576.53 C 200.54 576.25 193.92 577.36 187.58 575.63 C 184.03 568.64 181.08 561.28 179.39 553.60 Z" />
<path fill="#8980ed" opacity="1.00" d=" M 189.42 578.77 C 200.79 578.98 212.20 578.32 223.56 579.13 C 229.44 585.80 236.65 591.17 244.13 595.93 C 242.01 596.07 239.88 596.23 237.76 596.31 C 225.59 596.31 213.42 595.88 201.25 595.80 C 196.65 590.63 192.35 585.08 189.42 578.77 Z" />
</g>
<g id="#3b4094ff">
<path fill="#3b4094" opacity="1.00" d=" M 219.99 554.16 C 239.37 553.49 258.79 554.23 278.18 553.73 L 278.75 553.74 C 283.44 559.82 289.44 564.70 295.10 569.84 C 297.21 571.75 298.61 574.26 299.99 576.72 C 283.10 576.70 266.19 576.99 249.31 576.59 C 239.48 575.25 229.42 577.32 219.69 575.56 C 218.44 574.22 217.24 572.87 216.05 571.50 C 217.00 565.64 218.29 559.84 219.99 554.16 Z" />
<path fill="#3b4094" opacity="1.00" d=" M 248.08 578.78 C 265.64 578.90 283.21 578.58 300.77 578.96 C 301.93 584.77 302.91 590.73 302.08 596.66 C 301.53 600.34 300.74 603.98 300.08 607.65 C 293.65 642.76 287.02 677.84 280.60 712.95 C 276.95 713.71 273.28 714.34 269.59 714.83 C 267.82 715.06 266.06 715.30 264.29 715.51 C 258.81 715.11 253.47 716.65 248.02 716.54 C 248.32 670.62 248.15 624.70 248.08 578.78 Z" />
</g>
<g id="#fcfefeff">
<path fill="#fcfefe" opacity="1.00" d=" M 856.17 571.27 C 859.93 571.35 863.72 571.05 867.47 571.57 C 867.36 575.20 867.36 578.84 867.31 582.48 C 863.56 582.57 859.82 582.62 856.09 582.42 C 856.13 578.70 856.13 574.98 856.17 571.27 Z" />
</g>
<g id="#6465a4ff">
<path fill="#6465a4" opacity="1.00" d=" M 187.58 575.63 C 193.92 577.36 200.54 576.25 207.02 576.53 C 211.22 576.23 215.71 577.34 219.69 575.56 C 229.42 577.32 239.48 575.25 249.31 576.59 L 248.04 576.56 C 247.35 576.56 245.98 576.56 245.30 576.55 C 226.34 576.46 207.41 577.34 188.45 577.00 C 188.23 576.66 187.80 575.97 187.58 575.63 Z" />
</g>
<g id="#151e40ff">
<path fill="#151e40" opacity="1.00" d=" M 245.30 576.55 C 245.98 576.56 247.35 576.56 248.04 576.56 C 248.05 577.12 248.07 578.22 248.08 578.78 C 248.15 624.70 248.32 670.62 248.02 716.54 C 253.47 716.65 258.81 715.11 264.29 715.51 C 258.87 716.29 253.45 717.09 248.00 717.64 C 247.45 717.69 246.36 717.80 245.82 717.86 C 246.13 688.56 245.82 659.27 245.97 629.97 C 246.18 617.98 245.47 605.99 245.83 594.00 C 245.93 589.02 246.17 584.03 245.67 579.07 C 245.57 578.44 245.39 577.18 245.30 576.55 Z" />
</g>
<g id="#0e153fff">
<path fill="#0e153f" opacity="1.00" d=" M 248.04 576.56 L 249.31 576.59 C 266.19 576.99 283.10 576.70 299.99 576.72 C 321.40 576.78 342.83 576.46 364.24 576.87 C 364.42 577.33 364.78 578.25 364.97 578.71 C 353.45 579.51 341.89 578.61 330.36 579.14 C 330.52 624.59 330.40 670.03 330.44 715.48 L 330.44 715.80 L 328.81 716.28 C 328.29 693.87 328.71 671.45 328.59 649.04 C 328.54 625.77 328.59 602.50 328.62 579.23 C 319.35 578.57 310.05 579.47 300.77 578.96 C 283.21 578.58 265.64 578.90 248.08 578.78 C 248.07 578.22 248.05 577.12 248.04 576.56 Z" />
</g>
<g id="#191a4bff">
<path fill="#191a4b" opacity="1.00" d=" M 302.08 596.66 C 305.21 595.81 308.45 595.88 311.63 596.44 C 311.64 600.18 311.65 603.95 311.18 607.67 C 307.48 607.61 303.78 607.61 300.08 607.65 C 300.74 603.98 301.53 600.34 302.08 596.66 Z" />
</g>
<g id="#9692e3ff">
<path fill="#9692e3" opacity="1.00" d=" M 886.57 597.50 C 886.87 598.77 887.15 600.02 887.49 601.31 C 876.92 601.26 866.35 601.49 855.79 601.18 C 856.28 600.19 857.06 599.21 858.31 599.55 C 866.19 600.08 874.10 599.91 881.99 599.72 C 883.84 599.84 885.21 598.54 886.57 597.50 Z" />
</g>
<g id="#9a96e7ff">
<path fill="#9a96e7" opacity="1.00" d=" M 629.52 600.61 C 629.92 600.57 630.72 600.48 631.12 600.44 C 631.45 604.96 631.26 609.50 631.06 614.03 C 631.25 616.15 629.07 617.73 627.09 617.50 C 617.86 616.39 608.52 616.73 599.26 617.15 C 598.76 632.72 599.05 648.33 599.19 663.92 L 597.80 663.88 C 597.48 647.62 597.68 631.35 597.71 615.09 C 608.33 614.94 618.98 615.49 629.59 614.78 C 629.53 610.05 629.41 605.33 629.52 600.61 Z" />
</g>
<g id="#05071cff">
<path fill="#05071c" opacity="1.00" d=" M 235.59 607.63 L 237.13 607.63 C 237.25 637.91 237.12 668.18 237.16 698.46 C 237.28 705.05 235.86 711.66 236.85 718.23 C 237.57 725.51 237.00 732.85 237.16 740.15 L 235.59 740.15 C 235.55 695.98 235.57 651.80 235.59 607.63 Z" />
</g>
<g id="#e1e3fdff">
<path fill="#e1e3fd" opacity="1.00" d=" M 237.13 607.63 C 239.61 607.62 242.09 607.62 244.58 607.64 C 242.87 628.77 241.28 649.92 239.56 671.06 C 238.82 680.20 238.56 689.39 237.16 698.46 C 237.12 668.18 237.25 637.91 237.13 607.63 Z" />
</g>
<g id="#fefefdff">
<path fill="#fefefd" opacity="1.00" d=" M 618.04 633.89 C 679.72 633.69 741.40 633.85 803.08 633.81 C 805.05 633.33 805.22 635.60 805.14 636.95 C 805.18 639.65 804.97 642.35 804.84 645.06 C 742.59 645.38 680.33 645.16 618.08 645.17 C 617.70 641.41 617.75 637.64 618.04 633.89 Z" />
</g>
<g id="#fefdfeff">
<path fill="#fefdfe" opacity="1.00" d=" M 836.45 633.85 C 840.13 633.79 843.81 633.78 847.50 633.83 C 847.63 637.61 847.65 641.40 847.52 645.18 C 843.82 645.22 840.13 645.23 836.44 645.19 C 836.27 641.41 836.27 637.63 836.45 633.85 Z" />
</g>
<g id="#fdfefeff">
<path fill="#fdfefe" opacity="1.00" d=" M 856.13 633.90 C 859.84 633.74 863.56 633.77 867.29 633.85 C 867.41 637.62 867.41 641.39 867.27 645.17 C 863.55 645.24 859.85 645.25 856.15 645.15 C 856.13 641.39 856.14 637.65 856.13 633.90 Z" />
</g>
<g id="#040a33ff">
<path fill="#040a33" opacity="1.00" d=" M 608.66 677.19 L 609.80 676.89 C 616.83 676.52 623.88 676.91 630.92 676.65 L 631.00 678.64 C 623.65 678.61 616.31 678.77 608.97 678.58 L 608.66 677.19 Z" />
</g>
<g id="#040b3bff">
<path fill="#040b3b" opacity="1.00" d=" M 630.92 676.65 C 651.96 676.57 673.00 676.83 694.05 676.74 C 698.10 676.84 702.22 676.35 706.23 677.20 L 706.47 678.63 C 681.31 678.74 656.15 678.65 631.00 678.64 L 630.92 676.65 Z" />
</g>
<g id="#e4e1faff">
<path fill="#e4e1fa" opacity="1.00" d=" M 348.55 701.62 C 349.41 711.03 348.82 720.51 349.00 729.95 C 345.99 729.30 342.81 729.31 339.93 728.19 C 338.76 727.24 337.99 725.92 337.04 724.79 L 336.89 724.79 C 334.77 724.89 332.68 725.18 330.58 725.37 L 330.52 724.70 C 332.70 724.74 334.92 724.64 336.89 723.56 C 336.60 720.68 336.37 717.81 336.13 714.93 C 339.77 714.27 343.42 713.60 347.08 713.06 C 347.64 709.25 348.05 705.43 348.55 701.62 Z" />
</g>
<g id="#c995a1ff">
<path fill="#c995a1" opacity="1.00" d=" M 264.29 715.51 C 266.06 715.30 267.82 715.06 269.59 714.83 C 270.07 718.22 270.43 721.63 270.78 725.04 C 270.42 725.03 269.69 725.00 269.33 724.98 C 266.92 724.80 264.51 724.65 262.10 724.60 C 264.22 724.31 266.47 724.33 268.46 723.43 C 269.91 721.53 269.99 718.39 268.51 716.50 C 261.57 716.17 254.76 718.46 248.00 719.83 C 248.00 719.28 248.00 718.19 248.00 717.64 C 253.45 717.09 258.87 716.29 264.29 715.51 Z" />
</g>
<g id="#f7a68bff">
<path fill="#f7a68b" opacity="1.00" d=" M 330.44 715.48 C 332.34 715.37 334.24 715.22 336.13 714.93 C 336.37 717.81 336.60 720.68 336.89 723.56 C 334.92 724.64 332.70 724.74 330.52 724.70 C 330.37 721.73 330.31 718.76 330.44 715.80 L 330.44 715.48 Z" />
</g>
<g id="#fba489ff">
<path fill="#fba489" opacity="1.00" d=" M 248.00 719.83 C 254.76 718.46 261.57 716.17 268.51 716.50 C 269.99 718.39 269.91 721.53 268.46 723.43 C 266.47 724.33 264.22 724.31 262.10 724.60 C 264.51 724.65 266.92 724.80 269.33 724.98 L 269.01 725.02 C 262.02 725.57 255.01 725.99 248.01 726.21 C 248.00 724.07 248.00 721.95 248.00 719.83 Z" />
</g>
<g id="#e9b4acff">
<path fill="#e9b4ac" opacity="1.00" d=" M 311.61 718.03 C 317.39 717.90 323.08 716.89 328.81 716.28 C 328.70 719.32 328.79 722.37 328.84 725.42 C 327.13 725.51 325.43 725.61 323.73 725.72 C 324.99 724.76 326.26 723.83 327.54 722.92 C 327.11 721.57 327.77 719.28 326.05 718.76 C 321.53 718.33 316.85 718.26 312.48 719.63 C 312.67 721.36 312.85 723.11 313.04 724.86 C 315.19 725.24 317.34 725.63 319.51 725.95 C 316.99 726.13 314.46 726.27 311.93 726.38 C 311.65 723.60 311.59 720.81 311.61 718.03 Z" />
</g>
<g id="#11102fff">
<path fill="#11102f" opacity="1.00" d=" M 328.81 716.28 L 330.44 715.80 C 330.31 718.76 330.37 721.73 330.52 724.70 L 330.58 725.37 C 332.68 725.18 334.77 724.89 336.89 724.79 C 335.29 726.49 332.97 726.80 330.81 727.20 C 330.64 730.03 330.54 732.86 330.50 735.70 C 330.20 737.12 329.83 738.53 329.47 739.96 C 329.37 739.54 329.17 738.70 329.07 738.29 C 328.07 734.58 328.40 730.72 328.68 726.96 C 323.99 726.40 319.24 726.46 314.60 727.33 C 313.75 727.48 312.91 727.65 312.08 727.84 C 312.04 727.48 311.97 726.74 311.93 726.38 C 314.46 726.27 316.99 726.13 319.51 725.95 C 320.92 725.88 322.32 725.79 323.73 725.72 C 325.43 725.61 327.13 725.51 328.84 725.42 C 328.79 722.37 328.70 719.32 328.81 716.28 Z" />
</g>
<g id="#432824ff">
<path fill="#432824" opacity="1.00" d=" M 245.82 717.86 C 246.36 717.80 247.45 717.69 248.00 717.64 C 248.00 718.19 248.00 719.28 248.00 719.83 C 248.00 721.95 248.00 724.07 248.01 726.21 C 247.44 726.19 246.31 726.16 245.74 726.14 C 245.85 723.37 245.85 720.61 245.82 717.86 Z" />
</g>
<g id="#fea389ff">
<path fill="#fea389" opacity="1.00" d=" M 312.48 719.63 C 316.85 718.26 321.53 718.33 326.05 718.76 C 327.77 719.28 327.11 721.57 327.54 722.92 C 326.26 723.83 324.99 724.76 323.73 725.72 C 322.32 725.79 320.92 725.88 319.51 725.95 C 317.34 725.63 315.19 725.24 313.04 724.86 C 312.85 723.11 312.67 721.36 312.48 719.63 Z" />
</g>
<g id="#202159ff">
<path fill="#202159" opacity="1.00" d=" M 269.33 724.98 C 269.69 725.00 270.42 725.03 270.78 725.04 C 271.89 726.56 272.94 728.55 275.07 728.72 C 284.32 730.13 294.49 731.86 301.23 739.00 C 295.28 740.43 289.12 739.76 283.07 739.85 C 271.41 739.92 259.75 739.71 248.09 740.02 C 248.41 735.86 245.87 729.80 250.13 727.10 C 255.85 725.55 261.94 727.32 267.76 726.31 C 268.07 725.99 268.70 725.35 269.01 725.02 L 269.33 724.98 Z" />
<path fill="#202159" opacity="1.00" d=" M 336.89 724.79 L 337.04 724.79 C 337.99 725.92 338.76 727.24 339.93 728.19 C 342.81 729.31 345.99 729.30 349.00 729.95 C 349.48 730.05 350.46 730.26 350.94 730.36 C 357.44 731.96 364.02 734.61 368.47 739.82 C 365.31 739.89 362.16 740.32 358.99 740.12 C 349.76 739.63 340.52 740.02 331.28 739.80 C 331.00 738.43 330.74 737.06 330.50 735.70 C 330.54 732.86 330.64 730.03 330.81 727.20 C 332.97 726.80 335.29 726.49 336.89 724.79 Z" />
</g>
<g id="#c6c9f6ff">
<path fill="#c6c9f6" opacity="1.00" d=" M 655.39 726.43 C 658.41 725.16 661.83 725.72 665.03 725.61 C 720.02 725.65 775.00 725.59 829.99 725.63 L 830.08 726.85 C 771.80 727.05 713.51 726.82 655.22 726.95 L 655.39 726.43 Z" />
</g>
<g id="#1f2259ff">
<path fill="#1f2259" opacity="1.00" d=" M 314.60 727.33 C 319.24 726.46 323.99 726.40 328.68 726.96 C 328.40 730.72 328.07 734.58 329.07 738.29 C 324.68 741.10 318.89 740.28 314.10 738.95 C 313.84 735.07 313.31 731.09 314.60 727.33 Z" />
</g>
<g id="#fffeffff">
</g>
</svg>
