<?xml version="1.0" encoding="UTF-8" ?>
<!DOCTYPE svg PUBLIC "-//W3C//DTD SVG 1.1//EN" "http://www.w3.org/Graphics/SVG/1.1/DTD/svg11.dtd">
<svg width="1000pt" height="834pt" viewBox="0 0 1000 834" version="1.1" xmlns="http://www.w3.org/2000/svg">
<g id="#ffffffff">
<path fill="#ffffff" opacity="1.00" d=" M 47.99 199.01 C 47.76 195.77 50.74 192.76 53.99 192.97 C 67.65 192.67 81.32 192.90 94.98 192.65 C 97.51 192.66 100.55 192.44 102.33 194.61 C 105.00 197.18 104.19 202.25 100.90 203.91 C 99.39 204.73 97.61 204.62 95.95 204.70 C 82.97 204.82 69.99 204.77 57.01 204.88 C 54.78 204.64 52.88 205.79 51.12 206.99 C 49.78 204.47 48.18 201.93 47.99 199.01 M 52.99 197.51 C 53.00 198.24 53.00 199.68 53.00 200.41 C 68.31 200.45 83.62 200.26 98.92 200.24 C 98.92 199.51 98.91 198.06 98.90 197.33 C 83.60 197.32 68.30 197.51 52.99 197.51 Z" />
<path fill="#ffffff" opacity="1.00" d=" M 806.58 203.47 C 855.17 208.86 903.73 214.44 952.32 219.81 C 938.25 220.90 924.09 220.86 909.99 221.52 C 887.05 222.21 864.09 223.31 841.16 223.73 C 829.60 217.05 818.01 210.37 806.58 203.47 Z" />
<path fill="#ffffff" opacity="1.00" d=" M 155.96 220.03 C 155.55 216.65 158.51 213.32 161.94 213.46 C 176.31 213.42 190.68 213.40 205.05 213.31 C 208.36 212.88 211.83 215.54 211.86 218.96 C 211.88 222.17 210.03 224.96 208.72 227.78 C 207.29 226.74 206.03 225.01 204.05 225.32 C 190.05 225.37 176.05 225.50 162.05 225.43 C 159.00 225.64 156.03 223.13 155.96 220.03 M 161.37 218.33 C 161.34 218.98 161.28 220.27 161.25 220.91 C 176.80 221.29 192.37 220.80 207.93 220.89 C 207.92 220.19 207.91 218.78 207.90 218.07 C 192.39 218.24 176.88 218.25 161.37 218.33 Z" />
<path fill="#ffffff" opacity="1.00" d=" M 842.60 226.46 C 882.13 225.09 921.66 223.66 961.20 222.41 C 929.49 231.95 897.77 241.46 866.03 250.91 C 860.90 255.30 856.62 260.70 851.62 265.29 C 848.58 252.35 845.62 239.40 842.60 226.46 Z" />
<path fill="#ffffff" opacity="1.00" d=" M 869.59 252.63 C 901.48 243.05 933.36 233.46 965.27 224.00 C 944.52 240.81 923.62 257.44 902.82 274.19 C 891.74 267.01 880.48 260.08 869.59 252.63 Z" />
<path fill="#ffffff" opacity="1.00" d=" M 50.51 256.28 C 49.69 252.57 53.17 248.70 56.97 249.18 C 63.68 249.27 70.40 248.88 77.11 249.19 C 80.77 249.37 83.14 253.66 81.98 256.99 C 81.21 259.05 79.31 260.89 77.01 260.96 C 70.11 261.36 63.19 260.92 56.30 261.29 C 55.61 262.10 54.92 262.91 54.23 263.72 C 52.29 261.66 51.23 258.96 50.51 256.28 M 58.60 253.62 C 56.19 254.96 58.81 258.68 60.85 256.84 C 62.71 255.45 60.60 252.34 58.60 253.62 M 65.36 253.62 C 63.00 255.13 65.89 258.82 67.92 256.95 C 70.22 255.44 67.32 251.74 65.36 253.62 M 72.57 253.43 C 70.24 254.98 72.75 258.55 74.92 257.04 C 77.40 255.70 74.89 251.89 72.57 253.43 Z" />
<path fill="#ffffff" opacity="1.00" d=" M 535.58 415.05 C 536.24 412.91 536.97 410.79 537.79 408.71 C 537.93 409.28 538.22 410.43 538.37 411.01 C 538.05 412.28 537.70 413.56 537.34 414.83 C 536.90 414.89 536.02 415.00 535.58 415.05 Z" />
<path fill="#ffffff" opacity="1.00" d=" M 815.82 617.48 C 817.95 612.06 819.45 606.43 821.46 600.98 C 822.52 603.96 823.75 606.89 825.22 609.71 C 821.34 611.30 818.55 614.45 815.82 617.48 Z" />
</g>
<g id="#f0cbdfff">
<path fill="#f0cbdf" opacity="1.00" d=" M 186.94 181.63 C 221.98 173.31 259.89 175.45 292.99 190.08 C 303.21 194.82 313.30 199.81 323.57 204.44 C 326.30 205.70 329.19 206.71 331.56 208.62 C 320.41 212.76 312.02 221.94 305.80 231.78 C 301.38 238.86 298.48 247.97 302.01 256.02 C 305.73 264.40 314.13 269.38 322.27 272.74 C 328.07 275.10 334.16 276.68 340.31 277.82 C 334.28 285.91 335.00 297.62 340.06 305.97 C 341.56 308.40 342.69 311.02 343.92 313.59 C 340.68 315.16 337.61 317.03 334.41 318.67 C 318.75 319.04 302.73 324.24 291.48 335.50 C 277.20 349.58 270.98 369.64 268.20 389.02 C 264.43 416.77 266.70 445.00 271.70 472.44 C 271.19 493.25 276.18 514.68 288.23 531.89 C 297.34 544.98 310.81 554.74 325.77 560.08 C 347.48 567.90 371.13 567.85 393.77 565.05 C 390.95 575.55 388.13 586.07 384.51 596.34 C 383.83 598.25 383.52 600.53 384.75 602.31 C 386.12 604.39 388.68 605.03 390.93 605.69 C 392.02 615.51 393.32 625.31 394.47 635.13 C 387.30 637.89 379.52 637.72 371.97 638.14 C 364.35 638.54 356.66 638.27 349.12 639.59 C 349.67 640.91 351.21 641.01 352.43 641.30 C 361.55 642.78 370.81 642.42 380.01 642.62 C 397.01 642.79 414.01 642.94 431.01 642.92 C 433.68 642.97 436.41 642.57 439.03 643.31 C 353.94 643.43 268.84 643.11 183.75 643.04 C 187.60 632.43 191.81 621.93 195.02 611.09 C 199.54 596.69 203.03 581.99 205.99 567.20 C 211.73 567.10 217.48 567.24 223.23 567.11 C 223.19 536.19 222.94 505.26 222.82 474.34 C 218.21 474.33 213.60 474.30 209.00 474.37 C 205.85 454.83 200.26 435.58 191.15 417.96 C 178.20 392.35 157.92 370.75 133.90 355.18 C 115.09 342.75 97.40 326.81 88.42 305.67 C 85.09 298.07 83.56 289.83 83.03 281.58 C 78.30 281.22 73.56 281.68 68.83 281.21 C 119.82 280.96 170.82 280.68 221.81 280.50 C 221.80 248.14 221.50 215.79 221.41 183.44 C 208.57 183.32 195.74 183.61 182.90 183.51 C 183.48 181.85 185.60 182.18 186.94 181.63 M 172.40 288.33 C 172.17 288.69 171.72 289.40 171.49 289.76 C 175.98 297.71 183.56 303.71 192.06 306.89 C 193.66 308.32 195.23 304.95 193.34 304.67 C 186.19 301.80 179.51 297.24 175.22 290.74 C 174.37 289.83 173.99 287.94 172.40 288.33 M 198.22 308.79 C 207.47 311.13 217.17 311.54 226.65 310.93 C 226.76 310.41 226.98 309.37 227.08 308.84 C 218.36 308.30 209.48 308.88 200.88 306.79 C 199.28 305.95 197.66 306.94 198.22 308.79 M 235.99 308.33 C 234.32 307.81 233.31 309.31 233.90 310.85 C 250.58 310.86 267.23 309.60 283.92 309.75 C 283.94 309.15 283.97 307.95 283.98 307.35 C 267.99 306.81 251.99 308.15 235.99 308.33 M 296.02 309.73 C 306.27 309.63 316.54 309.65 326.80 309.43 C 326.83 308.85 326.90 307.69 326.94 307.11 C 316.63 306.71 306.30 307.11 295.98 307.22 C 294.08 306.49 294.06 310.47 296.02 309.73 M 234.54 376.24 C 233.84 403.17 234.08 430.14 235.39 457.05 C 236.39 475.77 237.85 494.50 241.03 512.99 C 242.73 522.37 244.77 531.78 248.47 540.60 C 250.65 545.72 253.60 550.83 258.43 553.87 C 238.28 582.14 217.95 610.28 197.91 638.62 C 198.30 638.91 199.10 639.50 199.49 639.79 C 219.90 611.60 239.98 583.17 260.33 554.94 L 260.82 554.76 C 274.12 559.41 287.80 562.81 301.40 566.45 C 312.58 590.66 323.90 614.81 335.22 638.96 C 335.68 638.72 336.60 638.24 337.05 638.00 C 326.05 614.32 314.97 590.68 303.94 567.01 C 325.68 572.22 347.46 577.31 369.41 581.56 L 369.63 579.59 C 348.49 575.16 327.39 570.56 306.42 565.42 C 291.25 561.64 276.05 557.84 261.29 552.64 C 257.05 551.27 254.32 547.45 252.29 543.71 C 248.49 536.47 246.41 528.50 244.65 520.56 C 241.27 504.58 239.63 488.28 238.41 472.00 C 236.17 440.15 235.91 408.19 236.58 376.27 C 236.07 376.26 235.05 376.24 234.54 376.24 M 257.14 419.30 C 250.63 420.58 244.07 421.87 237.85 424.23 L 237.19 425.11 L 237.72 426.41 L 238.77 426.54 C 246.62 423.89 254.79 422.45 262.89 420.80 C 264.33 417.02 259.02 419.12 257.14 419.30 M 202.40 438.29 C 200.78 438.52 199.87 441.13 202.04 441.39 C 209.48 437.40 217.17 433.91 225.04 430.88 C 225.08 430.38 225.16 429.39 225.19 428.90 L 223.91 428.78 C 216.42 431.12 209.33 434.64 202.40 438.29 Z" />
<path fill="#f0cbdf" opacity="1.00" d=" M 368.87 224.86 C 373.23 225.82 377.16 228.04 381.29 229.65 C 399.41 237.19 417.41 245.00 435.58 252.40 C 435.68 259.98 435.55 267.56 435.78 275.13 C 452.08 275.09 468.39 274.89 484.70 274.95 C 501.73 284.15 519.02 293.38 533.57 306.35 C 544.56 315.99 553.75 328.85 554.86 343.85 C 555.59 344.07 557.05 344.52 557.78 344.75 L 557.76 344.75 C 557.26 344.68 556.25 344.53 555.75 344.46 C 549.57 366.54 544.23 388.85 538.37 411.01 C 538.22 410.43 537.93 409.28 537.79 408.71 C 536.97 410.79 536.24 412.91 535.58 415.05 C 516.19 415.21 496.81 415.10 477.42 415.43 C 477.46 416.30 477.52 418.04 477.56 418.91 C 496.37 418.89 515.18 418.70 533.99 418.67 C 533.44 420.43 532.80 422.15 532.07 423.84 C 513.30 423.87 494.53 424.02 475.77 424.10 C 475.73 428.84 475.73 433.59 475.87 438.33 C 492.87 438.22 509.86 438.14 526.86 438.08 C 516.50 464.06 506.32 490.13 495.04 515.73 C 492.51 513.14 489.98 510.56 487.48 507.96 C 492.39 494.42 496.32 479.25 491.73 465.08 C 486.92 452.18 475.20 442.62 462.22 438.65 C 447.10 434.00 430.86 435.15 415.55 438.27 C 407.16 440.16 398.71 442.27 390.86 445.86 C 389.68 445.87 388.50 445.88 387.33 445.89 C 388.34 443.75 389.01 441.48 389.62 439.21 C 392.96 437.67 396.76 437.63 400.16 436.22 C 416.12 430.41 428.86 418.58 440.47 406.58 C 452.25 397.27 468.48 394.78 482.94 397.98 C 493.04 400.03 502.26 404.87 510.94 410.27 C 513.06 409.16 516.21 407.85 515.77 404.90 C 515.05 401.58 512.02 399.49 509.48 397.58 C 502.08 392.67 493.93 388.48 485.03 387.33 C 468.52 385.07 451.96 388.75 436.02 392.79 C 427.06 394.90 418.26 398.11 409.05 398.92 C 401.97 398.63 395.00 397.18 387.98 396.29 C 387.69 394.66 387.40 393.04 387.12 391.43 C 388.31 389.98 389.50 388.53 390.68 387.08 C 386.56 375.28 382.50 363.44 378.29 351.67 C 376.62 346.85 372.42 343.75 368.37 341.00 C 366.14 338.21 363.62 335.15 359.94 334.40 C 356.37 333.71 352.77 333.13 349.36 331.85 C 350.49 328.04 351.70 324.25 352.98 320.49 C 358.32 322.33 364.30 322.78 369.61 320.59 C 376.67 317.95 381.75 311.39 383.24 304.09 C 384.44 302.98 385.58 301.75 386.00 300.13 C 388.23 292.96 387.46 284.44 382.59 278.49 C 378.37 273.23 371.54 271.13 365.07 270.52 C 376.11 258.17 377.11 238.97 368.87 224.86 M 471.95 283.83 L 471.57 285.01 L 472.20 285.81 C 481.00 289.08 489.99 292.08 498.09 296.94 C 499.62 298.48 500.98 295.12 499.31 294.69 C 491.11 289.74 482.03 286.46 472.97 283.50 L 471.95 283.83 M 502.54 299.89 C 509.76 304.82 514.53 312.23 519.10 319.47 C 520.28 319.09 521.27 317.95 520.28 316.79 C 516.44 309.91 511.66 303.33 505.19 298.71 C 504.01 297.59 502.80 298.52 502.54 299.89 M 391.90 315.89 C 390.24 317.69 392.85 318.52 394.17 318.81 C 402.69 321.22 411.02 324.28 419.23 327.61 C 420.71 328.82 422.43 326.32 420.70 325.51 C 411.71 321.61 402.42 318.32 392.95 315.79 L 391.90 315.89 M 522.32 323.31 C 520.61 324.22 522.38 326.04 522.81 327.20 C 525.24 331.48 527.47 335.87 530.12 340.01 C 530.52 339.93 531.31 339.77 531.71 339.68 L 532.09 338.93 C 529.69 333.55 526.45 328.50 523.60 323.34 C 523.28 323.33 522.64 323.32 522.32 323.31 M 432.42 331.38 C 431.96 332.43 432.25 333.17 433.28 333.60 C 441.07 337.31 448.74 341.32 455.97 346.04 C 457.02 346.79 459.30 348.23 459.64 345.89 C 459.10 344.60 457.69 344.08 456.64 343.31 C 449.27 338.73 441.67 334.48 433.71 331.02 C 433.39 331.11 432.74 331.29 432.42 331.38 M 533.38 343.32 C 533.22 343.67 532.91 344.37 532.75 344.72 C 535.91 350.46 539.02 356.24 542.06 362.06 C 542.51 362.01 543.41 361.92 543.86 361.87 L 544.11 360.85 C 541.46 354.78 538.19 348.93 534.73 343.28 C 534.39 343.29 533.72 343.31 533.38 343.32 M 468.25 354.28 C 468.08 354.71 467.74 355.56 467.57 355.99 C 476.31 362.48 484.71 369.48 492.19 377.42 C 494.02 378.07 494.58 375.69 493.27 374.80 C 486.60 367.75 479.21 361.41 471.40 355.66 C 470.43 355.07 469.51 353.97 468.25 354.28 M 445.08 420.73 C 452.77 420.96 460.48 421.57 468.18 421.41 C 468.12 420.86 467.99 419.75 467.93 419.20 C 460.33 418.52 452.67 418.47 445.05 418.21 C 443.08 417.44 443.13 421.34 445.08 420.73 Z" />
<path fill="#f0cbdf" opacity="1.00" d=" M 454.55 566.78 C 459.78 569.20 464.76 572.14 469.48 575.43 C 462.25 591.97 454.76 608.40 447.52 624.94 C 440.10 623.42 432.63 621.99 425.09 621.27 C 422.93 622.04 420.97 623.26 418.93 624.27 C 421.75 616.66 424.82 609.14 427.65 601.53 C 437.07 590.31 446.13 578.77 454.55 566.78 Z" />
</g>
<g id="#626a73ff">
<path fill="#626a73" opacity="1.00" d=" M 435.26 182.34 C 488.53 182.08 541.80 181.74 595.07 181.60 C 595.17 212.50 595.41 243.41 595.49 274.32 C 558.56 274.60 521.62 274.61 484.70 274.95 C 468.39 274.89 452.08 275.09 435.78 275.13 C 435.55 267.56 435.68 259.98 435.58 252.40 C 435.50 229.05 435.33 205.69 435.26 182.34 M 437.83 184.93 C 438.10 214.14 438.01 243.35 438.37 272.55 C 489.88 272.21 541.39 272.05 592.90 271.75 C 592.77 242.56 592.58 213.38 592.51 184.19 C 540.95 184.37 489.39 184.66 437.83 184.93 Z" />
<path fill="#626a73" opacity="1.00" d=" M 40.02 184.25 C 87.65 184.02 135.28 183.86 182.90 183.51 C 195.74 183.61 208.57 183.32 221.41 183.44 C 221.50 215.79 221.80 248.14 221.81 280.50 C 170.82 280.68 119.82 280.96 68.83 281.21 C 59.40 281.23 49.97 281.34 40.54 281.34 C 40.23 248.98 40.16 216.61 40.02 184.25 M 42.59 186.84 C 42.81 217.48 42.81 248.12 43.11 278.76 C 101.82 278.45 160.53 278.13 219.24 277.91 C 219.16 247.28 218.90 216.65 218.83 186.01 C 160.09 186.23 101.34 186.59 42.59 186.84 Z" />
<path fill="#626a73" opacity="1.00" d=" M 532.44 196.62 C 548.72 192.89 567.44 201.90 573.00 218.01 C 577.90 231.00 572.36 246.46 560.98 254.14 C 547.24 264.12 526.50 262.61 514.58 250.42 C 506.90 242.93 503.43 231.35 506.16 220.92 C 509.13 208.54 520.12 199.05 532.44 196.62 M 533.42 198.57 C 520.77 200.83 509.51 211.11 507.67 224.06 C 505.76 235.50 511.84 247.30 521.56 253.31 C 534.27 261.62 552.51 260.04 563.41 249.38 C 569.95 243.23 573.59 234.01 572.48 225.04 C 571.59 216.93 566.98 209.46 560.45 204.65 C 552.85 198.88 542.74 196.79 533.42 198.57 Z" />
<path fill="#626a73" opacity="1.00" d=" M 52.99 197.51 C 68.30 197.51 83.60 197.32 98.90 197.33 C 98.91 198.06 98.92 199.51 98.92 200.24 C 83.62 200.26 68.31 200.45 53.00 200.41 C 53.00 199.68 53.00 198.24 52.99 197.51 Z" />
<path fill="#626a73" opacity="1.00" d=" M 794.63 199.52 C 854.42 206.13 914.18 213.01 973.96 219.62 C 973.99 220.82 972.73 221.33 972.00 222.06 C 948.95 240.48 926.00 259.00 902.95 277.42 C 890.74 269.63 878.63 261.69 866.39 253.95 C 861.02 259.56 855.59 265.10 850.19 270.68 C 846.73 255.83 843.27 240.98 839.85 226.11 C 824.84 217.16 809.59 208.58 794.63 199.52 M 806.58 203.47 C 818.01 210.37 829.60 217.05 841.16 223.73 C 864.09 223.31 887.05 222.21 909.99 221.52 C 924.09 220.86 938.25 220.90 952.32 219.81 C 903.73 214.44 855.17 208.86 806.58 203.47 M 842.60 226.46 C 845.62 239.40 848.58 252.35 851.62 265.29 C 856.62 260.70 860.90 255.30 866.03 250.91 C 897.77 241.46 929.49 231.95 961.20 222.41 C 921.66 223.66 882.13 225.09 842.60 226.46 M 869.59 252.63 C 880.48 260.08 891.74 267.01 902.82 274.19 C 923.62 257.44 944.52 240.81 965.27 224.00 C 933.36 233.46 901.48 243.05 869.59 252.63 Z" />
<path fill="#626a73" opacity="1.00" d=" M 533.51 212.66 C 543.38 208.72 556.29 215.04 557.73 225.92 C 559.55 236.12 549.96 245.49 539.97 245.02 C 530.77 245.37 521.76 237.52 522.10 228.06 C 522.09 221.15 527.10 214.91 533.51 212.66 M 534.38 214.60 C 527.78 216.78 522.95 223.91 524.45 230.90 C 525.97 239.04 534.89 244.25 542.82 242.71 C 550.77 241.63 557.45 233.54 555.51 225.44 C 553.65 216.36 542.78 211.34 534.38 214.60 Z" />
<path fill="#626a73" opacity="1.00" d=" M 161.37 218.33 C 176.88 218.25 192.39 218.24 207.90 218.07 C 207.91 218.78 207.92 220.19 207.93 220.89 C 192.37 220.80 176.80 221.29 161.25 220.91 C 161.28 220.27 161.34 218.98 161.37 218.33 Z" />
<path fill="#626a73" opacity="1.00" d=" M 445.14 222.29 C 459.01 222.25 472.93 221.81 486.78 222.29 C 486.65 222.76 486.38 223.71 486.24 224.19 C 472.66 224.17 459.08 224.19 445.50 224.41 C 445.41 223.88 445.23 222.82 445.14 222.29 Z" />
<path fill="#626a73" opacity="1.00" d=" M 794.90 237.14 C 806.62 236.61 818.34 236.03 830.06 235.46 C 832.12 235.40 834.24 235.02 836.28 235.64 C 836.17 236.13 835.94 237.12 835.83 237.62 C 822.27 238.69 808.63 238.96 795.05 239.77 C 793.59 239.71 790.98 240.53 791.07 238.22 C 791.81 236.82 793.62 237.37 794.90 237.14 Z" />
<path fill="#626a73" opacity="1.00" d=" M 738.00 240.04 C 753.62 238.59 769.34 238.33 785.01 237.61 C 786.62 237.14 788.19 237.99 787.76 239.82 C 783.23 240.65 778.57 240.28 774.00 240.64 C 761.98 240.95 749.96 242.00 737.97 242.23 C 737.97 241.68 737.99 240.59 738.00 240.04 Z" />
<path fill="#626a73" opacity="1.00" d=" M 699.62 246.96 C 709.98 242.02 721.63 240.75 732.96 240.21 C 734.51 239.55 735.51 242.27 733.85 242.68 C 725.33 243.25 716.72 243.87 708.50 246.35 C 705.55 247.14 702.82 248.58 699.83 249.23 C 699.78 248.66 699.67 247.53 699.62 246.96 Z" />
<path fill="#626a73" opacity="1.00" d=" M 681.82 260.65 C 685.31 257.11 688.56 253.01 693.06 250.56 C 694.62 249.71 695.46 252.42 694.07 252.94 C 690.93 255.11 687.99 257.57 685.57 260.54 C 689.03 260.65 692.54 260.60 695.96 261.26 C 697.30 261.63 696.86 263.17 695.90 263.69 C 691.75 263.45 687.59 262.89 683.44 263.29 C 681.16 267.13 679.17 271.41 679.35 275.98 C 679.27 277.71 679.99 279.58 679.10 281.21 C 676.67 281.25 676.90 278.67 676.75 276.96 C 676.44 272.18 678.02 267.54 680.29 263.41 C 670.77 264.26 661.49 266.91 652.74 270.71 C 651.29 271.88 649.76 269.17 651.42 268.53 C 660.96 264.08 671.33 261.51 681.82 260.65 Z" />
<path fill="#626a73" opacity="1.00" d=" M 58.60 253.62 C 60.60 252.34 62.71 255.45 60.85 256.84 C 58.81 258.68 56.19 254.96 58.60 253.62 Z" />
<path fill="#626a73" opacity="1.00" d=" M 65.36 253.62 C 67.32 251.74 70.22 255.44 67.92 256.95 C 65.89 258.82 63.00 255.13 65.36 253.62 Z" />
<path fill="#626a73" opacity="1.00" d=" M 72.57 253.43 C 74.89 251.89 77.40 255.70 74.92 257.04 C 72.75 258.55 70.24 254.98 72.57 253.43 Z" />
<path fill="#626a73" opacity="1.00" d=" M 701.99 262.76 C 703.67 261.97 705.39 263.41 706.99 263.92 C 714.68 267.30 721.53 275.03 720.23 283.94 C 719.91 285.64 719.54 289.87 716.78 288.07 C 717.18 284.95 718.41 281.79 717.41 278.65 C 715.52 271.44 708.71 267.01 702.05 264.72 C 702.03 264.23 702.01 263.25 701.99 262.76 Z" />
<path fill="#626a73" opacity="1.00" d=" M 643.27 272.24 C 644.54 270.99 647.85 270.92 646.64 273.45 C 635.16 279.03 624.32 285.85 614.09 293.46 C 611.54 292.73 613.42 290.50 614.81 289.82 C 623.68 283.04 633.28 277.23 643.27 272.24 Z" />
<path fill="#626a73" opacity="1.00" d=" M 471.95 283.83 L 472.97 283.50 C 482.03 286.46 491.11 289.74 499.31 294.69 C 500.98 295.12 499.62 298.48 498.09 296.94 C 489.99 292.08 481.00 289.08 472.20 285.81 L 471.57 285.01 L 471.95 283.83 Z" />
<path fill="#626a73" opacity="1.00" d=" M 679.44 286.60 C 678.32 285.37 679.35 283.88 680.84 283.95 C 686.80 295.65 703.52 299.24 713.93 291.38 L 715.00 292.06 C 715.49 294.75 711.54 295.52 709.69 296.62 C 698.97 300.75 685.34 296.65 679.44 286.60 Z" />
<path fill="#626a73" opacity="1.00" d=" M 172.40 288.33 C 173.99 287.94 174.37 289.83 175.22 290.74 C 179.51 297.24 186.19 301.80 193.34 304.67 C 195.23 304.95 193.66 308.32 192.06 306.89 C 183.56 303.71 175.98 297.71 171.49 289.76 C 171.72 289.40 172.17 288.69 172.40 288.33 Z" />
<path fill="#626a73" opacity="1.00" d=" M 607.30 296.07 C 608.17 294.44 610.70 296.16 609.46 297.52 C 604.71 302.06 599.93 306.61 595.72 311.67 C 594.95 313.00 592.96 314.17 592.34 311.94 C 596.58 306.03 601.95 300.97 607.30 296.07 Z" />
<path fill="#626a73" opacity="1.00" d=" M 502.54 299.89 C 502.80 298.52 504.01 297.59 505.19 298.71 C 511.66 303.33 516.44 309.91 520.28 316.79 C 521.27 317.95 520.28 319.09 519.10 319.47 C 514.53 312.23 509.76 304.82 502.54 299.89 Z" />
<path fill="#626a73" opacity="1.00" d=" M 198.22 308.79 C 197.66 306.94 199.28 305.95 200.88 306.79 C 209.48 308.88 218.36 308.30 227.08 308.84 C 226.98 309.37 226.76 310.41 226.65 310.93 C 217.17 311.54 207.47 311.13 198.22 308.79 Z" />
<path fill="#626a73" opacity="1.00" d=" M 235.99 308.33 C 251.99 308.15 267.99 306.81 283.98 307.35 C 283.97 307.95 283.94 309.15 283.92 309.75 C 267.23 309.60 250.58 310.86 233.90 310.85 C 233.31 309.31 234.32 307.81 235.99 308.33 Z" />
<path fill="#626a73" opacity="1.00" d=" M 296.02 309.73 C 294.06 310.47 294.08 306.49 295.98 307.22 C 306.30 307.11 316.63 306.71 326.94 307.11 C 326.90 307.69 326.83 308.85 326.80 309.43 C 316.54 309.65 306.27 309.63 296.02 309.73 Z" />
<path fill="#626a73" opacity="1.00" d=" M 692.21 310.53 C 705.98 308.08 719.96 306.66 733.95 306.45 C 734.48 306.54 735.55 306.71 736.09 306.80 C 736.53 309.92 732.90 308.84 730.99 309.12 C 717.89 309.24 704.91 311.33 691.95 312.86 C 691.87 312.39 691.71 311.45 691.63 310.97 L 692.21 310.53 Z" />
<path fill="#626a73" opacity="1.00" d=" M 738.89 306.63 C 752.74 306.31 766.63 308.54 780.03 312.02 C 781.72 312.10 782.45 313.44 781.54 314.90 C 767.60 311.41 753.34 309.23 738.97 308.86 C 738.95 308.31 738.91 307.19 738.89 306.63 Z" />
<path fill="#626a73" opacity="1.00" d=" M 650.73 320.93 C 661.45 316.69 672.74 314.09 684.01 311.84 C 685.46 311.00 689.15 311.62 687.13 313.84 C 675.81 316.07 664.54 318.68 653.65 322.52 C 652.16 323.41 650.75 322.70 650.73 320.93 Z" />
<path fill="#626a73" opacity="1.00" d=" M 785.85 313.88 C 797.89 317.33 809.46 322.62 820.02 329.36 C 821.76 329.94 819.70 332.74 818.51 331.38 C 808.21 324.87 796.90 320.22 785.50 316.11 C 785.58 315.55 785.76 314.44 785.85 313.88 Z" />
<path fill="#626a73" opacity="1.00" d=" M 391.90 315.89 L 392.95 315.79 C 402.42 318.32 411.71 321.61 420.70 325.51 C 422.43 326.32 420.71 328.82 419.23 327.61 C 411.02 324.28 402.69 321.22 394.17 318.81 C 392.85 318.52 390.24 317.69 391.90 315.89 Z" />
<path fill="#626a73" opacity="1.00" d=" M 588.31 316.93 L 589.04 316.19 C 589.45 316.61 590.26 317.44 590.67 317.86 C 586.20 323.81 582.85 330.50 579.04 336.81 L 577.74 336.27 L 577.36 335.24 C 580.30 328.76 583.96 322.57 588.31 316.93 Z" />
<path fill="#626a73" opacity="1.00" d=" M 522.32 323.31 C 522.64 323.32 523.28 323.33 523.60 323.34 C 526.45 328.50 529.69 333.55 532.09 338.93 L 531.71 339.68 C 531.31 339.77 530.52 339.93 530.12 340.01 C 527.47 335.87 525.24 331.48 522.81 327.20 C 522.38 326.04 520.61 324.22 522.32 323.31 Z" />
<path fill="#626a73" opacity="1.00" d=" M 616.05 337.12 C 625.28 331.00 635.60 326.54 645.94 322.62 C 646.26 322.96 646.91 323.65 647.23 323.99 L 646.83 324.84 C 636.66 328.89 626.83 333.73 617.21 338.93 C 616.92 338.48 616.34 337.58 616.05 337.12 Z" />
<path fill="#626a73" opacity="1.00" d=" M 432.42 331.38 C 432.74 331.29 433.39 331.11 433.71 331.02 C 441.67 334.48 449.27 338.73 456.64 343.31 C 457.69 344.08 459.10 344.60 459.64 345.89 C 459.30 348.23 457.02 346.79 455.97 346.04 C 448.74 341.32 441.07 337.31 433.28 333.60 C 432.25 333.17 431.96 332.43 432.42 331.38 Z" />
<path fill="#626a73" opacity="1.00" d=" M 823.86 332.98 L 824.90 332.57 C 830.99 336.75 836.80 341.46 841.72 346.98 C 841.30 347.40 840.46 348.23 840.04 348.64 C 834.81 343.35 828.87 338.84 823.20 334.09 L 823.86 332.98 Z" />
<path fill="#626a73" opacity="1.00" d=" M 610.39 340.41 C 612.17 338.61 614.03 342.01 611.65 342.68 C 602.22 348.80 593.98 356.48 586.09 364.40 C 585.71 364.02 584.94 363.27 584.55 362.89 C 591.80 354.02 600.95 346.82 610.39 340.41 Z" />
<path fill="#626a73" opacity="1.00" d=" M 533.38 343.32 C 533.72 343.31 534.39 343.29 534.73 343.28 C 538.19 348.93 541.46 354.78 544.11 360.85 L 543.86 361.87 C 543.41 361.92 542.51 362.01 542.06 362.06 C 539.02 356.24 535.91 350.46 532.75 344.72 C 532.91 344.37 533.22 343.67 533.38 343.32 Z" />
<path fill="#626a73" opacity="1.00" d=" M 538.37 411.01 C 544.23 388.85 549.57 366.54 555.75 344.46 C 556.25 344.53 557.26 344.68 557.76 344.75 L 558.60 345.18 L 558.96 345.95 C 552.59 370.17 546.41 394.44 540.06 418.66 C 538.03 418.66 536.01 418.67 533.99 418.67 C 515.18 418.70 496.37 418.89 477.56 418.91 C 477.52 418.04 477.46 416.30 477.42 415.43 C 496.81 415.10 516.19 415.21 535.58 415.05 C 536.02 415.00 536.90 414.89 537.34 414.83 C 537.70 413.56 538.05 412.28 538.37 411.01 Z" />
<path fill="#626a73" opacity="1.00" d=" M 468.25 354.28 C 469.51 353.97 470.43 355.07 471.40 355.66 C 479.21 361.41 486.60 367.75 493.27 374.80 C 494.58 375.69 494.02 378.07 492.19 377.42 C 484.71 369.48 476.31 362.48 467.57 355.99 C 467.74 355.56 468.08 354.71 468.25 354.28 Z" />
<path fill="#626a73" opacity="1.00" d=" M 716.31 361.00 C 784.48 360.55 852.66 360.34 920.83 359.93 C 921.01 398.86 921.15 437.80 921.42 476.73 C 853.26 477.07 785.09 477.34 716.93 477.76 C 716.70 438.84 716.59 399.92 716.31 361.00 M 719.06 363.47 C 718.97 400.63 719.45 437.79 719.46 474.95 C 733.31 475.28 747.18 474.84 761.04 474.92 C 813.61 474.62 866.18 474.43 918.75 474.12 C 918.63 436.94 918.37 399.77 918.24 362.60 C 851.85 362.79 785.45 363.33 719.06 363.47 Z" />
<path fill="#626a73" opacity="1.00" d=" M 234.54 376.24 C 235.05 376.24 236.07 376.26 236.58 376.27 C 235.91 408.19 236.17 440.15 238.41 472.00 C 239.63 488.28 241.27 504.58 244.65 520.56 C 246.41 528.50 248.49 536.47 252.29 543.71 C 254.32 547.45 257.05 551.27 261.29 552.64 C 276.05 557.84 291.25 561.64 306.42 565.42 C 327.39 570.56 348.49 575.16 369.63 579.59 L 369.41 581.56 C 347.46 577.31 325.68 572.22 303.94 567.01 C 314.97 590.68 326.05 614.32 337.05 638.00 C 336.60 638.24 335.68 638.72 335.22 638.96 C 323.90 614.81 312.58 590.66 301.40 566.45 C 287.80 562.81 274.12 559.41 260.82 554.76 L 260.33 554.94 C 239.98 583.17 219.90 611.60 199.49 639.79 C 199.10 639.50 198.30 638.91 197.91 638.62 C 217.95 610.28 238.28 582.14 258.43 553.87 C 253.60 550.83 250.65 545.72 248.47 540.60 C 244.77 531.78 242.73 522.37 241.03 512.99 C 237.85 494.50 236.39 475.77 235.39 457.05 C 234.08 430.14 233.84 403.17 234.54 376.24 Z" />
<path fill="#626a73" opacity="1.00" d=" M 800.17 384.02 C 806.69 384.04 813.22 383.91 819.74 383.93 C 819.83 407.97 820.02 432.00 820.07 456.03 C 813.59 456.20 807.11 455.93 800.64 456.20 C 800.18 432.15 800.31 408.08 800.17 384.02 M 802.24 386.12 C 802.32 408.70 802.50 431.28 802.53 453.86 C 807.67 454.14 812.82 453.99 817.97 453.94 C 817.93 431.31 817.70 408.69 817.70 386.06 C 812.54 386.08 807.39 386.06 802.24 386.12 Z" />
<path fill="#626a73" opacity="1.00" d=" M 731.67 417.01 C 742.78 417.06 753.90 417.21 765.02 417.23 C 766.39 417.39 769.95 416.51 768.54 419.35 C 756.26 419.28 743.98 419.24 731.70 419.05 C 731.69 418.54 731.68 417.52 731.67 417.01 Z" />
<path fill="#626a73" opacity="1.00" d=" M 445.08 420.73 C 443.13 421.34 443.08 417.44 445.05 418.21 C 452.67 418.47 460.33 418.52 467.93 419.20 C 467.99 419.75 468.12 420.86 468.18 421.41 C 460.48 421.57 452.77 420.96 445.08 420.73 Z" />
<path fill="#626a73" opacity="1.00" d=" M 257.14 419.30 C 259.02 419.12 264.33 417.02 262.89 420.80 C 254.79 422.45 246.62 423.89 238.77 426.54 L 237.72 426.41 L 237.19 425.11 L 237.85 424.23 C 244.07 421.87 250.63 420.58 257.14 419.30 Z" />
<path fill="#626a73" opacity="1.00" d=" M 859.80 428.24 C 866.30 428.30 872.81 428.19 879.32 428.17 C 879.39 437.63 879.39 447.10 879.48 456.56 C 872.97 456.61 866.47 456.68 859.98 456.70 C 859.72 447.22 859.71 437.73 859.80 428.24 M 861.92 430.33 C 861.71 438.41 861.94 446.50 861.99 454.59 C 867.10 454.59 872.22 454.53 877.35 454.44 C 877.37 446.37 877.25 438.31 877.23 430.25 C 872.12 430.40 867.02 430.31 861.92 430.33 Z" />
<path fill="#626a73" opacity="1.00" d=" M 202.40 438.29 C 209.33 434.64 216.42 431.12 223.91 428.78 L 225.19 428.90 C 225.16 429.39 225.08 430.38 225.04 430.88 C 217.17 433.91 209.48 437.40 202.04 441.39 C 199.87 441.13 200.78 438.52 202.40 438.29 Z" />
<path fill="#626a73" opacity="1.00" d=" M 731.27 432.94 C 732.56 431.82 734.39 432.37 735.94 432.23 C 739.89 432.31 743.83 432.16 747.78 432.23 C 747.73 432.75 747.62 433.78 747.56 434.30 C 742.50 434.33 737.43 434.40 732.37 434.30 C 732.10 433.96 731.55 433.28 731.27 432.94 Z" />
<path fill="#626a73" opacity="1.00" d=" M 193.40 444.27 C 194.47 442.68 196.81 445.18 195.14 446.11 C 186.53 452.77 179.18 461.47 175.83 471.97 C 175.73 473.92 172.34 472.89 173.39 471.22 C 176.72 460.27 184.38 451.10 193.40 444.27 Z" />
<path fill="#626a73" opacity="1.00" d=" M 579.41 451.93 C 579.93 451.93 580.97 451.92 581.49 451.92 C 581.13 502.62 580.50 553.32 580.07 604.02 C 579.55 603.92 578.51 603.71 577.99 603.61 C 578.41 553.05 579.01 502.49 579.41 451.93 Z" />
<path fill="#626a73" opacity="1.00" d=" M 51.72 475.18 C 104.14 474.84 156.57 474.66 209.00 474.37 C 213.60 474.30 218.21 474.33 222.82 474.34 C 222.94 505.26 223.19 536.19 223.23 567.11 C 217.48 567.24 211.73 567.10 205.99 567.20 C 154.71 567.43 103.43 567.76 52.15 567.92 C 52.02 537.01 51.84 506.09 51.72 475.18 M 54.56 477.68 C 54.39 478.76 54.30 479.85 54.31 480.95 C 54.50 509.07 54.58 537.20 54.76 565.32 C 110.06 565.10 165.35 564.82 220.65 564.51 C 220.55 535.31 220.36 506.12 220.24 476.93 C 165.01 477.14 109.79 477.53 54.56 477.68 Z" />
<path fill="#626a73" opacity="1.00" d=" M 799.87 643.88 C 796.66 638.85 792.78 634.24 790.06 628.90 C 793.59 633.78 797.03 638.74 800.54 643.64 C 802.52 643.64 804.58 644.08 806.54 643.60 C 809.18 641.49 811.31 638.82 813.78 636.52 C 813.89 636.74 814.02 636.96 814.17 637.19 C 811.85 639.19 809.52 641.23 807.85 643.82 C 811.80 644.07 815.76 644.00 819.72 643.99 C 835.02 644.03 850.32 643.97 865.62 644.02 C 866.24 644.03 867.49 644.04 868.12 644.04 C 880.58 644.16 893.04 644.06 905.50 644.08 C 920.27 644.06 935.04 644.19 949.82 644.19 C 950.17 645.80 949.62 646.48 948.15 646.24 C 694.09 645.93 440.03 645.46 185.98 645.18 C 184.14 644.95 180.67 646.20 181.00 643.15 C 181.69 643.12 183.06 643.07 183.75 643.04 C 268.84 643.11 353.94 643.43 439.03 643.31 C 535.53 643.70 632.03 643.63 728.53 643.84 C 742.48 643.74 756.42 643.97 770.37 643.91 C 771.05 643.91 772.41 643.91 773.09 643.91 C 775.21 643.91 777.35 643.91 779.48 643.92 C 786.28 643.89 793.07 643.96 799.87 643.88 Z" />
</g>
<g id="#d5e7faff">
<path fill="#d5e7fa" opacity="1.00" d=" M 437.83 184.93 C 489.39 184.66 540.95 184.37 592.51 184.19 C 592.58 213.38 592.77 242.56 592.90 271.75 C 541.39 272.05 489.88 272.21 438.37 272.55 C 438.01 243.35 438.10 214.14 437.83 184.93 M 532.44 196.62 C 520.12 199.05 509.13 208.54 506.16 220.92 C 503.43 231.35 506.90 242.93 514.58 250.42 C 526.50 262.61 547.24 264.12 560.98 254.14 C 572.36 246.46 577.90 231.00 573.00 218.01 C 567.44 201.90 548.72 192.89 532.44 196.62 M 445.13 202.10 C 445.13 202.63 445.14 203.69 445.14 204.23 C 462.06 204.04 479.00 204.22 495.91 203.84 C 496.01 202.55 495.44 201.92 494.20 201.95 C 477.85 201.87 461.49 202.06 445.13 202.10 M 445.09 212.06 C 445.11 212.56 445.17 213.57 445.19 214.07 C 455.66 214.14 466.12 213.95 476.59 213.99 C 476.58 213.45 476.58 212.37 476.58 211.83 C 466.08 211.98 455.58 211.90 445.09 212.06 M 445.14 222.29 C 445.23 222.82 445.41 223.88 445.50 224.41 C 459.08 224.19 472.66 224.17 486.24 224.19 C 486.38 223.71 486.65 222.76 486.78 222.29 C 472.93 221.81 459.01 222.25 445.14 222.29 Z" />
<path fill="#d5e7fa" opacity="1.00" d=" M 42.59 186.84 C 101.34 186.59 160.09 186.23 218.83 186.01 C 218.90 216.65 219.16 247.28 219.24 277.91 C 160.53 278.13 101.82 278.45 43.11 278.76 C 42.81 248.12 42.81 217.48 42.59 186.84 M 47.99 199.01 C 48.18 201.93 49.78 204.47 51.12 206.99 C 52.88 205.79 54.78 204.64 57.01 204.88 C 69.99 204.77 82.97 204.82 95.95 204.70 C 97.61 204.62 99.39 204.73 100.90 203.91 C 104.19 202.25 105.00 197.18 102.33 194.61 C 100.55 192.44 97.51 192.66 94.98 192.65 C 81.32 192.90 67.65 192.67 53.99 192.97 C 50.74 192.76 47.76 195.77 47.99 199.01 M 155.96 220.03 C 156.03 223.13 159.00 225.64 162.05 225.43 C 176.05 225.50 190.05 225.37 204.05 225.32 C 206.03 225.01 207.29 226.74 208.72 227.78 C 210.03 224.96 211.88 222.17 211.86 218.96 C 211.83 215.54 208.36 212.88 205.05 213.31 C 190.68 213.40 176.31 213.42 161.94 213.46 C 158.51 213.32 155.55 216.65 155.96 220.03 M 50.51 256.28 C 51.23 258.96 52.29 261.66 54.23 263.72 C 54.92 262.91 55.61 262.10 56.30 261.29 C 63.19 260.92 70.11 261.36 77.01 260.96 C 79.31 260.89 81.21 259.05 81.98 256.99 C 83.14 253.66 80.77 249.37 77.11 249.19 C 70.40 248.88 63.68 249.27 56.97 249.18 C 53.17 248.70 49.69 252.57 50.51 256.28 Z" />
<path fill="#d5e7fa" opacity="1.00" d=" M 534.38 214.60 C 542.78 211.34 553.65 216.36 555.51 225.44 C 557.45 233.54 550.77 241.63 542.82 242.71 C 534.89 244.25 525.97 239.04 524.45 230.90 C 522.95 223.91 527.78 216.78 534.38 214.60 Z" />
<path fill="#d5e7fa" opacity="1.00" d=" M 719.06 363.47 C 785.45 363.33 851.85 362.79 918.24 362.60 C 918.37 399.77 918.63 436.94 918.75 474.12 C 866.18 474.43 813.61 474.62 761.04 474.92 C 747.18 474.84 733.31 475.28 719.46 474.95 C 719.45 437.79 718.97 400.63 719.06 363.47 M 800.17 384.02 C 800.31 408.08 800.18 432.15 800.64 456.20 C 807.11 455.93 813.59 456.20 820.07 456.03 C 820.02 432.00 819.83 407.97 819.74 383.93 C 813.22 383.91 806.69 384.04 800.17 384.02 M 731.67 402.18 C 731.64 402.70 731.58 403.74 731.55 404.26 C 749.36 404.05 767.19 403.86 785.00 403.84 C 786.22 403.53 788.63 404.05 788.35 401.97 C 769.47 401.36 750.56 402.04 731.67 402.18 M 830.56 409.69 C 830.53 425.09 830.71 440.49 830.69 455.89 C 837.20 455.83 843.72 455.78 850.24 455.81 C 850.29 440.41 850.05 425.01 849.88 409.62 C 843.44 409.62 837.00 409.76 830.56 409.69 M 731.67 417.01 C 731.68 417.52 731.69 418.54 731.70 419.05 C 743.98 419.24 756.26 419.28 768.54 419.35 C 769.95 416.51 766.39 417.39 765.02 417.23 C 753.90 417.21 742.78 417.06 731.67 417.01 M 859.80 428.24 C 859.71 437.73 859.72 447.22 859.98 456.70 C 866.47 456.68 872.97 456.61 879.48 456.56 C 879.39 447.10 879.39 437.63 879.32 428.17 C 872.81 428.19 866.30 428.30 859.80 428.24 M 731.27 432.94 C 731.55 433.28 732.10 433.96 732.37 434.30 C 737.43 434.40 742.50 434.33 747.56 434.30 C 747.62 433.78 747.73 432.75 747.78 432.23 C 743.83 432.16 739.89 432.31 735.94 432.23 C 734.39 432.37 732.56 431.82 731.27 432.94 Z" />
<path fill="#d5e7fa" opacity="1.00" d=" M 54.56 477.68 C 109.79 477.53 165.01 477.14 220.24 476.93 C 220.36 506.12 220.55 535.31 220.65 564.51 C 165.35 564.82 110.06 565.10 54.76 565.32 C 54.58 537.20 54.50 509.07 54.31 480.95 C 54.30 479.85 54.39 478.76 54.56 477.68 M 58.68 481.09 C 58.66 484.34 58.66 487.58 58.69 490.84 C 88.54 490.73 118.39 490.56 148.24 490.41 C 148.26 487.16 148.26 483.91 148.24 480.67 C 118.39 480.82 88.53 481.01 58.68 481.09 M 58.77 498.60 C 58.73 501.84 58.73 505.08 58.77 508.32 C 98.45 508.12 138.13 507.91 177.81 507.75 C 177.85 504.51 177.84 501.27 177.84 498.03 C 138.15 498.16 98.46 498.38 58.77 498.60 M 58.89 516.10 C 58.78 519.31 58.74 522.52 58.99 525.73 C 88.77 525.63 118.56 525.56 148.34 525.27 C 148.47 522.06 148.46 518.84 148.34 515.64 C 118.52 515.76 88.70 515.85 58.89 516.10 M 59.24 533.36 C 58.79 536.59 58.81 539.85 59.07 543.10 C 73.96 543.20 88.88 543.25 103.77 542.83 C 103.85 539.66 103.83 536.49 103.69 533.32 C 88.87 533.22 74.05 533.51 59.24 533.36 Z" />
</g>
<g id="#f1bad1ff">
<path fill="#f1bad1" opacity="1.00" d=" M 533.42 198.57 C 542.74 196.79 552.85 198.88 560.45 204.65 C 566.98 209.46 571.59 216.93 572.48 225.04 C 573.59 234.01 569.95 243.23 563.41 249.38 C 552.51 260.04 534.27 261.62 521.56 253.31 C 511.84 247.30 505.76 235.50 507.67 224.06 C 509.51 211.11 520.77 200.83 533.42 198.57 M 533.51 212.66 C 527.10 214.91 522.09 221.15 522.10 228.06 C 521.76 237.52 530.77 245.37 539.97 245.02 C 549.96 245.49 559.55 236.12 557.73 225.92 C 556.29 215.04 543.38 208.72 533.51 212.66 Z" />
<path fill="#f1bad1" opacity="1.00" d=" M 861.92 430.33 C 867.02 430.31 872.12 430.40 877.23 430.25 C 877.25 438.31 877.37 446.37 877.35 454.44 C 872.22 454.53 867.10 454.59 861.99 454.59 C 861.94 446.50 861.71 438.41 861.92 430.33 Z" />
</g>
<g id="#656d76ff">
<path fill="#656d76" opacity="1.00" d=" M 445.13 202.10 C 461.49 202.06 477.85 201.87 494.20 201.95 C 495.44 201.92 496.01 202.55 495.91 203.84 C 479.00 204.22 462.06 204.04 445.14 204.23 C 445.14 203.69 445.13 202.63 445.13 202.10 Z" />
</g>
<g id="#180d6eff">
<path fill="#180d6e" opacity="1.00" d=" M 331.56 208.62 C 337.40 206.69 343.86 206.46 349.72 208.44 C 357.96 211.12 364.57 217.47 368.87 224.86 C 377.11 238.97 376.11 258.17 365.07 270.52 C 371.54 271.13 378.37 273.23 382.59 278.49 C 387.46 284.44 388.23 292.96 386.00 300.13 C 385.58 301.75 384.44 302.98 383.24 304.09 C 378.13 300.50 377.08 293.50 372.02 289.86 C 370.47 288.73 368.25 288.49 366.63 289.62 C 363.78 291.54 362.74 295.00 361.57 298.05 C 358.31 294.74 355.07 291.03 350.63 289.36 C 348.94 288.61 346.98 289.66 346.53 291.41 C 345.26 295.46 346.26 299.74 346.86 303.83 C 344.57 304.48 342.31 305.19 340.06 305.97 C 335.00 297.62 334.28 285.91 340.31 277.82 C 334.16 276.68 328.07 275.10 322.27 272.74 C 314.13 269.38 305.73 264.40 302.01 256.02 C 298.48 247.97 301.38 238.86 305.80 231.78 C 312.02 221.94 320.41 212.76 331.56 208.62 Z" />
</g>
<g id="#636b74ff">
<path fill="#636b74" opacity="1.00" d=" M 445.09 212.06 C 455.58 211.90 466.08 211.98 476.58 211.83 C 476.58 212.37 476.58 213.45 476.59 213.99 C 466.12 213.95 455.66 214.14 445.19 214.07 C 445.17 213.57 445.11 212.56 445.09 212.06 Z" />
</g>
<g id="#e97c7bff">
<path fill="#e97c7b" opacity="1.00" d=" M 346.53 291.41 C 346.98 289.66 348.94 288.61 350.63 289.36 C 355.07 291.03 358.31 294.74 361.57 298.05 C 362.74 295.00 363.78 291.54 366.63 289.62 C 368.25 288.49 370.47 288.73 372.02 289.86 C 377.08 293.50 378.13 300.50 383.24 304.09 C 381.75 311.39 376.67 317.95 369.61 320.59 C 364.30 322.78 358.32 322.33 352.98 320.49 C 351.70 324.25 350.49 328.04 349.36 331.85 C 342.98 329.49 337.17 325.04 334.41 318.67 C 337.61 317.03 340.68 315.16 343.92 313.59 C 342.69 311.02 341.56 308.40 340.06 305.97 C 342.31 305.19 344.57 304.48 346.86 303.83 C 346.26 299.74 345.26 295.46 346.53 291.41 Z" />
<path fill="#e97c7b" opacity="1.00" d=" M 436.02 392.79 C 451.96 388.75 468.52 385.07 485.03 387.33 C 493.93 388.48 502.08 392.67 509.48 397.58 C 512.02 399.49 515.05 401.58 515.77 404.90 C 516.21 407.85 513.06 409.16 510.94 410.27 C 502.26 404.87 493.04 400.03 482.94 397.98 C 468.48 394.78 452.25 397.27 440.47 406.58 C 428.86 418.58 416.12 430.41 400.16 436.22 C 396.76 437.63 392.96 437.67 389.62 439.21 C 385.05 438.54 380.32 438.74 375.93 437.13 C 369.30 435.00 363.74 430.43 359.55 424.96 C 366.92 415.55 374.88 406.63 382.46 397.40 C 383.67 395.48 386.12 396.23 387.98 396.29 C 395.00 397.18 401.97 398.63 409.05 398.92 C 418.26 398.11 427.06 394.90 436.02 392.79 Z" />
<path fill="#e97c7b" opacity="1.00" d=" M 529.32 594.29 C 533.90 590.38 536.71 584.69 537.47 578.75 C 543.05 587.01 548.51 595.35 554.12 603.60 C 545.26 608.00 536.32 612.37 526.90 615.44 C 520.22 611.40 513.49 607.45 506.81 603.42 C 514.86 602.24 523.07 599.72 529.32 594.29 Z" />
<path fill="#e97c7b" opacity="1.00" d=" M 390.93 605.69 C 403.31 607.24 415.64 604.20 427.65 601.53 C 424.82 609.14 421.75 616.66 418.93 624.27 C 410.94 628.25 402.87 632.10 394.47 635.13 C 393.32 625.31 392.02 615.51 390.93 605.69 Z" />
</g>
<g id="#c2415bff">
<path fill="#c2415b" opacity="1.00" d=" M 291.48 335.50 C 302.73 324.24 318.75 319.04 334.41 318.67 C 337.17 325.04 342.98 329.49 349.36 331.85 C 352.77 333.13 356.37 333.71 359.94 334.40 C 363.62 335.15 366.14 338.21 368.37 341.00 C 356.48 338.43 343.28 341.08 333.81 348.87 C 325.76 355.39 321.31 365.35 319.39 375.33 C 318.59 379.28 320.23 383.29 322.95 386.13 C 328.05 391.65 333.52 396.84 338.52 402.47 C 345.32 410.15 352.96 417.07 359.55 424.96 C 363.74 430.43 369.30 435.00 375.93 437.13 C 380.32 438.74 385.05 438.54 389.62 439.21 C 389.01 441.48 388.34 443.75 387.33 445.89 C 385.70 448.15 383.33 449.65 380.94 450.97 C 364.23 460.72 346.80 469.51 328.25 475.16 C 315.77 478.89 302.54 481.29 289.53 479.30 C 283.16 478.37 277.11 475.88 271.70 472.44 C 266.70 445.00 264.43 416.77 268.20 389.02 C 270.98 369.64 277.20 349.58 291.48 335.50 Z" />
</g>
<g id="#e54d5cff">
<path fill="#e54d5c" opacity="1.00" d=" M 333.81 348.87 C 343.28 341.08 356.48 338.43 368.37 341.00 C 372.42 343.75 376.62 346.85 378.29 351.67 C 382.50 363.44 386.56 375.28 390.68 387.08 C 389.50 388.53 388.31 389.98 387.12 391.43 C 387.40 393.04 387.69 394.66 387.98 396.29 C 386.12 396.23 383.67 395.48 382.46 397.40 C 374.88 406.63 366.92 415.55 359.55 424.96 C 352.96 417.07 345.32 410.15 338.52 402.47 C 333.52 396.84 328.05 391.65 322.95 386.13 C 320.23 383.29 318.59 379.28 319.39 375.33 C 321.31 365.35 325.76 355.39 333.81 348.87 Z" />
</g>
<g id="#8ec9d9ff">
<path fill="#8ec9d9" opacity="1.00" d=" M 611.77 360.63 C 624.76 360.28 637.80 360.31 650.80 360.41 C 652.29 362.18 651.18 365.03 651.41 367.22 C 638.03 367.27 624.64 367.26 611.26 367.41 C 611.51 365.22 610.61 362.55 611.77 360.63 Z" />
</g>
<g id="#7cb0bfff">
<path fill="#7cb0bf" opacity="1.00" d=" M 601.30 367.48 C 604.61 367.39 607.94 367.41 611.26 367.41 C 624.64 367.26 638.03 367.27 651.41 367.22 C 654.79 367.16 658.18 367.08 661.57 367.28 C 661.79 370.73 661.83 374.18 661.63 377.64 C 658.17 378.33 654.62 377.89 651.12 378.00 C 637.97 378.07 624.81 378.15 611.65 378.20 C 608.16 378.15 604.63 378.57 601.18 377.93 C 601.08 374.44 600.89 370.95 601.30 367.48 Z" />
</g>
<g id="#5998a2ff">
<path fill="#5998a2" opacity="1.00" d=" M 611.65 378.20 C 624.81 378.15 637.97 378.07 651.12 378.00 C 648.73 393.03 646.23 408.04 643.80 423.06 C 647.93 423.16 652.08 423.13 656.22 423.24 C 643.45 423.93 630.65 424.65 617.87 423.47 C 615.83 408.37 613.65 393.30 611.65 378.20 Z" />
</g>
<g id="#7bb9eaff">
<path fill="#7bb9ea" opacity="1.00" d=" M 802.24 386.12 C 807.39 386.06 812.54 386.08 817.70 386.06 C 817.70 408.69 817.93 431.31 817.97 453.94 C 812.82 453.99 807.67 454.14 802.53 453.86 C 802.50 431.28 802.32 408.70 802.24 386.12 Z" />
</g>
<g id="#68707aff">
<path fill="#68707a" opacity="1.00" d=" M 731.67 402.18 C 750.56 402.04 769.47 401.36 788.35 401.97 C 788.63 404.05 786.22 403.53 785.00 403.84 C 767.19 403.86 749.36 404.05 731.55 404.26 C 731.58 403.74 731.64 402.70 731.67 402.18 Z" />
</g>
<g id="#6f3187ff">
<path fill="#6f3187" opacity="1.00" d=" M 830.56 409.69 C 837.00 409.76 843.44 409.62 849.88 409.62 C 850.05 425.01 850.29 440.41 850.24 455.81 C 843.72 455.78 837.20 455.83 830.69 455.89 C 830.71 440.49 830.53 425.09 830.56 409.69 Z" />
</g>
<g id="#276185ff">
<path fill="#276185" opacity="1.00" d=" M 532.07 423.84 C 560.67 423.68 589.27 423.45 617.87 423.47 C 630.65 424.65 643.45 423.93 656.22 423.24 C 666.53 423.13 676.85 423.07 687.16 423.09 C 687.17 427.80 687.17 432.51 687.16 437.22 C 662.92 437.52 638.67 437.40 614.42 437.69 C 614.55 442.37 614.49 447.05 614.49 451.73 C 603.49 451.88 592.49 451.89 581.49 451.92 C 580.97 451.92 579.93 451.93 579.41 451.93 C 568.47 452.00 557.54 452.10 546.60 452.07 C 546.60 447.38 546.49 442.70 546.50 438.02 C 539.95 437.95 533.41 438.03 526.86 438.08 C 509.86 438.14 492.87 438.22 475.87 438.33 C 475.73 433.59 475.73 428.84 475.77 424.10 C 494.53 424.02 513.30 423.87 532.07 423.84 Z" />
</g>
<g id="#485558ff">
<path fill="#485558" opacity="1.00" d=" M 415.55 438.27 C 430.86 435.15 447.10 434.00 462.22 438.65 C 475.20 442.62 486.92 452.18 491.73 465.08 C 496.32 479.25 492.39 494.42 487.48 507.96 C 473.39 494.13 458.72 480.79 442.55 469.43 C 427.05 458.42 409.84 448.98 390.86 445.86 C 398.71 442.27 407.16 440.16 415.55 438.27 Z" />
<path fill="#485558" opacity="1.00" d=" M 416.13 561.15 C 429.09 557.96 442.67 561.38 454.55 566.78 C 446.13 578.77 437.07 590.31 427.65 601.53 C 415.64 604.20 403.31 607.24 390.93 605.69 C 388.68 605.03 386.12 604.39 384.75 602.31 C 383.52 600.53 383.83 598.25 384.51 596.34 C 388.13 586.07 390.95 575.55 393.77 565.05 C 401.28 564.08 408.74 562.80 416.13 561.15 Z" />
</g>
<g id="#3b7879ff">
<path fill="#3b7879" opacity="1.00" d=" M 387.33 445.89 C 388.50 445.88 389.68 445.87 390.86 445.86 C 409.84 448.98 427.05 458.42 442.55 469.43 C 458.72 480.79 473.39 494.13 487.48 507.96 C 489.98 510.56 492.51 513.14 495.04 515.73 C 509.26 530.67 522.93 546.17 535.48 562.54 C 537.64 567.58 537.83 573.34 537.47 578.75 C 536.71 584.69 533.90 590.38 529.32 594.29 C 523.07 599.72 514.86 602.24 506.81 603.42 C 504.32 603.78 501.81 603.92 499.30 603.97 C 490.70 593.19 480.79 583.36 469.48 575.43 C 464.76 572.14 459.78 569.20 454.55 566.78 C 442.67 561.38 429.09 557.96 416.13 561.15 C 408.74 562.80 401.28 564.08 393.77 565.05 C 371.13 567.85 347.48 567.90 325.77 560.08 C 310.81 554.74 297.34 544.98 288.23 531.89 C 276.18 514.68 271.19 493.25 271.70 472.44 C 277.11 475.88 283.16 478.37 289.53 479.30 C 302.54 481.29 315.77 478.89 328.25 475.16 C 346.80 469.51 364.23 460.72 380.94 450.97 C 383.33 449.65 385.70 448.15 387.33 445.89 Z" />
</g>
<g id="#6e3087ff">
<path fill="#6e3087" opacity="1.00" d=" M 58.68 481.09 C 88.53 481.01 118.39 480.82 148.24 480.67 C 148.26 483.91 148.26 487.16 148.24 490.41 C 118.39 490.56 88.54 490.73 58.69 490.84 C 58.66 487.58 58.66 484.34 58.68 481.09 Z" />
<path fill="#6e3087" opacity="1.00" d=" M 882.34 521.27 C 887.37 517.64 894.50 518.28 899.67 521.28 C 904.33 524.03 905.61 529.91 905.14 534.95 C 904.19 546.63 898.58 557.17 895.22 568.23 C 899.44 564.89 904.30 561.20 910.02 561.69 C 912.89 561.85 915.30 564.20 915.76 567.01 C 916.49 571.18 914.93 575.35 912.93 578.95 C 909.38 585.19 904.23 590.33 898.71 594.84 C 902.29 593.40 907.13 592.88 909.87 596.18 C 912.38 599.42 910.74 603.84 908.97 607.03 C 905.14 613.93 899.97 619.97 894.35 625.47 C 897.80 623.39 901.87 621.60 905.98 622.68 C 910.11 623.60 912.60 628.05 912.09 632.11 C 911.55 636.80 908.36 640.55 905.50 644.08 C 893.04 644.06 880.58 644.16 868.12 644.04 C 868.97 640.46 869.58 636.83 870.41 633.25 C 880.36 626.47 889.52 618.48 897.48 609.46 C 888.29 616.16 879.69 623.70 870.91 630.95 C 872.32 622.98 874.08 615.08 875.51 607.11 C 875.70 605.41 876.55 603.92 877.77 602.75 C 883.78 596.38 889.07 589.38 894.30 582.36 C 896.08 579.94 898.13 577.65 899.22 574.81 C 891.44 583.22 884.54 592.45 876.88 600.98 C 880.40 580.78 884.49 560.67 888.39 540.54 C 889.23 535.61 890.81 530.76 890.76 525.71 C 885.40 549.94 879.73 574.10 874.47 598.35 C 869.98 587.04 864.56 576.14 860.08 564.83 C 863.14 577.39 867.88 589.57 873.85 601.02 C 872.00 611.17 869.75 621.26 867.86 631.41 C 859.41 622.70 850.05 614.61 843.67 604.16 C 843.03 603.22 842.36 602.32 841.68 601.45 C 847.11 614.12 856.80 624.60 867.53 633.07 C 866.93 636.72 866.25 640.37 865.62 644.02 C 850.32 643.97 835.02 644.03 819.72 643.99 C 817.70 641.86 815.77 639.64 814.17 637.19 C 814.02 636.96 813.89 636.74 813.78 636.52 C 811.49 632.43 810.67 627.24 812.97 622.98 C 814.67 619.80 818.68 618.90 822.02 619.04 C 827.07 619.21 831.35 622.19 835.44 624.85 C 831.51 620.18 827.97 615.17 825.22 609.71 C 823.75 606.89 822.52 603.96 821.46 600.98 C 819.95 596.69 818.67 592.30 818.22 587.77 C 817.69 583.35 818.64 578.20 822.45 575.43 C 827.24 572.02 833.85 572.60 838.94 575.04 C 845.07 578.06 849.05 583.82 852.90 589.24 C 849.76 578.73 846.01 568.08 846.32 556.97 C 846.42 552.06 848.46 546.50 853.40 544.62 C 856.42 543.13 859.95 544.49 862.13 546.81 C 866.93 551.66 869.21 558.27 871.63 564.50 C 871.81 554.20 871.79 543.71 874.68 533.74 C 876.10 529.04 878.27 524.24 882.34 521.27 Z" />
</g>
<g id="#846ed7ff">
<path fill="#846ed7" opacity="1.00" d=" M 58.77 498.60 C 98.46 498.38 138.15 498.16 177.84 498.03 C 177.84 501.27 177.85 504.51 177.81 507.75 C 138.13 507.91 98.45 508.12 58.77 508.32 C 58.73 505.08 58.73 501.84 58.77 498.60 Z" />
<path fill="#846ed7" opacity="1.00" d=" M 694.93 527.94 C 695.80 520.76 704.51 516.17 711.07 518.86 C 715.81 520.76 719.24 524.82 722.13 528.88 C 729.07 538.99 733.15 550.64 737.56 561.98 C 737.03 555.34 736.70 548.50 738.47 542.01 C 739.23 539.40 740.90 536.36 743.95 536.20 C 749.44 536.10 753.43 540.79 755.55 545.38 C 760.94 556.98 761.37 569.99 763.22 582.44 C 764.30 576.46 765.42 570.12 769.24 565.19 C 772.60 560.82 778.93 558.44 784.13 560.81 C 788.27 562.63 790.58 566.82 792.10 570.86 C 789.49 580.19 792.47 589.77 793.80 599.05 C 791.39 597.21 789.34 594.20 786.08 594.05 C 783.51 594.05 782.42 596.88 782.43 599.06 C 782.15 605.55 785.57 611.37 788.92 616.67 C 786.66 616.43 783.36 616.06 782.81 619.05 C 781.89 625.46 785.78 631.24 788.27 636.88 C 786.16 636.63 783.71 635.31 781.78 636.74 C 779.48 638.36 779.67 641.42 779.48 643.92 C 777.35 643.91 775.21 643.91 773.09 643.91 C 771.31 640.36 769.20 636.97 767.57 633.34 C 766.99 632.32 767.86 631.26 768.19 630.32 C 774.27 618.46 777.55 605.12 777.66 591.80 C 776.57 596.74 776.14 601.81 774.69 606.68 C 772.40 614.68 769.26 622.41 766.44 630.23 C 765.64 629.47 764.84 628.68 764.34 627.70 C 760.28 620.10 756.09 612.58 751.81 605.10 C 750.67 602.99 749.00 600.88 749.38 598.34 C 750.19 587.77 749.67 577.15 748.46 566.64 C 746.90 576.79 747.99 587.15 747.75 597.39 C 738.84 582.80 730.64 567.77 721.89 553.08 C 718.51 547.66 715.79 541.81 711.89 536.73 C 713.27 540.57 715.53 544.00 717.48 547.57 C 726.47 563.90 735.39 580.27 744.35 596.62 C 745.00 597.90 745.56 599.21 746.14 600.54 C 736.54 594.47 728.21 586.54 718.56 580.57 C 721.13 583.64 724.40 585.99 727.44 588.57 C 733.64 593.74 739.94 598.81 746.62 603.35 C 749.81 605.36 751.07 609.08 752.89 612.19 C 756.09 618.35 759.86 624.22 762.72 630.56 C 753.18 626.32 744.34 620.55 734.59 616.79 C 742.66 622.97 751.79 627.76 761.07 631.90 C 766.49 633.46 767.67 639.67 770.37 643.91 C 756.42 643.97 742.48 643.74 728.53 643.84 C 726.74 640.21 725.81 635.17 728.94 632.00 C 732.07 629.01 736.67 630.07 740.43 630.97 C 732.87 626.28 725.73 620.78 719.82 614.10 C 717.46 611.27 715.12 607.38 716.63 603.62 C 717.98 600.45 721.79 599.87 724.84 600.12 C 715.77 594.98 706.38 588.93 701.45 579.40 C 699.71 576.11 698.78 570.91 702.54 568.65 C 707.77 566.20 713.39 569.23 718.16 571.41 C 712.12 562.03 704.58 553.63 699.29 543.76 C 696.74 538.91 694.30 533.55 694.93 527.94 Z" />
</g>
<g id="#af99ffff">
<path fill="#af99ff" opacity="1.00" d=" M 58.89 516.10 C 88.70 515.85 118.52 515.76 148.34 515.64 C 148.46 518.84 148.47 522.06 148.34 525.27 C 118.56 525.56 88.77 525.63 58.99 525.73 C 58.74 522.52 58.78 519.31 58.89 516.10 Z" />
<path fill="#af99ff" opacity="1.00" d=" M 792.10 570.86 C 794.57 565.19 803.57 565.38 805.85 571.10 C 809.69 579.97 807.85 589.93 807.18 599.24 C 809.57 595.01 811.14 589.33 816.06 587.40 C 816.60 587.50 817.68 587.68 818.22 587.77 C 818.67 592.30 819.95 596.69 821.46 600.98 C 819.45 606.43 817.95 612.06 815.82 617.48 C 818.55 614.45 821.34 611.30 825.22 609.71 C 827.97 615.17 831.51 620.18 835.44 624.85 C 831.35 622.19 827.07 619.21 822.02 619.04 C 818.68 618.90 814.67 619.80 812.97 622.98 C 810.67 627.24 811.49 632.43 813.78 636.52 C 811.31 638.82 809.18 641.49 806.54 643.60 C 804.58 644.08 802.52 643.64 800.54 643.64 C 797.03 638.74 793.59 633.78 790.06 628.90 C 792.78 634.24 796.66 638.85 799.87 643.88 C 793.07 643.96 786.28 643.89 779.48 643.92 C 779.67 641.42 779.48 638.36 781.78 636.74 C 783.71 635.31 786.16 636.63 788.27 636.88 C 785.78 631.24 781.89 625.46 782.81 619.05 C 783.36 616.06 786.66 616.43 788.92 616.67 C 785.57 611.37 782.15 605.55 782.43 599.06 C 782.42 596.88 783.51 594.05 786.08 594.05 C 789.34 594.20 791.39 597.21 793.80 599.05 C 792.47 589.77 789.49 580.19 792.10 570.86 Z" />
<path fill="#af99ff" opacity="1.00" d=" M 807.85 643.82 C 809.52 641.23 811.85 639.19 814.17 637.19 C 815.77 639.64 817.70 641.86 819.72 643.99 C 815.76 644.00 811.80 644.07 807.85 643.82 Z" />
</g>
<g id="#b750e0ff">
<path fill="#b750e0" opacity="1.00" d=" M 874.47 598.35 C 879.73 574.10 885.40 549.94 890.76 525.71 C 890.81 530.76 889.23 535.61 888.39 540.54 C 884.49 560.67 880.40 580.78 876.88 600.98 C 884.54 592.45 891.44 583.22 899.22 574.81 C 898.13 577.65 896.08 579.94 894.30 582.36 C 889.07 589.38 883.78 596.38 877.77 602.75 C 876.55 603.92 875.70 605.41 875.51 607.11 C 874.08 615.08 872.32 622.98 870.91 630.95 C 879.69 623.70 888.29 616.16 897.48 609.46 C 889.52 618.48 880.36 626.47 870.41 633.25 C 869.58 636.83 868.97 640.46 868.12 644.04 C 867.49 644.04 866.24 644.03 865.62 644.02 C 866.25 640.37 866.93 636.72 867.53 633.07 C 856.80 624.60 847.11 614.12 841.68 601.45 C 842.36 602.32 843.03 603.22 843.67 604.16 C 850.05 614.61 859.41 622.70 867.86 631.41 C 869.75 621.26 872.00 611.17 873.85 601.02 C 867.88 589.57 863.14 577.39 860.08 564.83 C 864.56 576.14 869.98 587.04 874.47 598.35 Z" />
</g>
<g id="#cdbfffff">
<path fill="#cdbfff" opacity="1.00" d=" M 59.24 533.36 C 74.05 533.51 88.87 533.22 103.69 533.32 C 103.83 536.49 103.85 539.66 103.77 542.83 C 88.88 543.25 73.96 543.20 59.07 543.10 C 58.81 539.85 58.79 536.59 59.24 533.36 Z" />
</g>
<g id="#6454a3ff">
<path fill="#6454a3" opacity="1.00" d=" M 711.89 536.73 C 715.79 541.81 718.51 547.66 721.89 553.08 C 730.64 567.77 738.84 582.80 747.75 597.39 C 747.99 587.15 746.90 576.79 748.46 566.64 C 749.67 577.15 750.19 587.77 749.38 598.34 C 749.00 600.88 750.67 602.99 751.81 605.10 C 756.09 612.58 760.28 620.10 764.34 627.70 C 764.84 628.68 765.64 629.47 766.44 630.23 C 769.26 622.41 772.40 614.68 774.69 606.68 C 776.14 601.81 776.57 596.74 777.66 591.80 C 777.55 605.12 774.27 618.46 768.19 630.32 C 767.86 631.26 766.99 632.32 767.57 633.34 C 769.20 636.97 771.31 640.36 773.09 643.91 C 772.41 643.91 771.05 643.91 770.37 643.91 C 767.67 639.67 766.49 633.46 761.07 631.90 C 751.79 627.76 742.66 622.97 734.59 616.79 C 744.34 620.55 753.18 626.32 762.72 630.56 C 759.86 624.22 756.09 618.35 752.89 612.19 C 751.07 609.08 749.81 605.36 746.62 603.35 C 739.94 598.81 733.64 593.74 727.44 588.57 C 724.40 585.99 721.13 583.64 718.56 580.57 C 728.21 586.54 736.54 594.47 746.14 600.54 C 745.56 599.21 745.00 597.90 744.35 596.62 C 735.39 580.27 726.47 563.90 717.48 547.57 C 715.53 544.00 713.27 540.57 711.89 536.73 Z" />
</g>
<g id="#3278a2ff">
<path fill="#3278a2" opacity="1.00" d=" M 554.12 603.60 C 556.02 602.64 557.86 601.53 559.88 600.82 C 565.96 601.36 571.98 602.53 577.99 603.61 C 578.51 603.71 579.55 603.92 580.07 604.02 C 587.08 605.54 594.21 607.12 600.64 610.41 C 602.83 611.65 605.49 613.22 605.80 616.00 C 605.70 617.99 604.01 619.39 602.37 620.25 C 598.35 622.37 593.62 621.78 589.25 622.18 C 596.80 627.62 604.47 632.91 611.90 638.51 C 611.60 638.89 610.98 639.66 610.67 640.04 C 602.31 634.18 594.17 628.00 585.70 622.32 C 581.31 622.28 576.89 622.26 572.51 622.56 C 564.82 628.16 557.40 634.16 549.70 639.78 C 548.42 640.82 547.20 638.23 548.89 637.86 C 555.64 632.72 562.41 627.60 569.15 622.43 C 552.08 622.53 535.02 622.37 517.96 622.21 C 507.95 621.96 497.87 622.43 487.93 620.98 C 486.42 620.72 484.70 620.60 483.78 619.19 C 498.01 616.71 512.84 619.11 526.90 615.44 C 536.32 612.37 545.26 608.00 554.12 603.60 Z" />
<path fill="#3278a2" opacity="1.00" d=" M 418.93 624.27 C 420.97 623.26 422.93 622.04 425.09 621.27 C 432.63 621.99 440.10 623.42 447.52 624.94 C 454.07 626.43 460.74 628.02 466.67 631.29 C 468.70 632.51 471.22 634.27 471.00 636.97 C 469.99 640.31 466.15 641.66 463.01 642.10 C 455.42 642.81 447.79 642.69 440.18 642.86 C 439.89 642.97 439.32 643.20 439.03 643.31 C 436.41 642.57 433.68 642.97 431.01 642.92 C 414.01 642.94 397.01 642.79 380.01 642.62 C 370.81 642.42 361.55 642.78 352.43 641.30 C 351.21 641.01 349.67 640.91 349.12 639.59 C 356.66 638.27 364.35 638.54 371.97 638.14 C 379.52 637.72 387.30 637.89 394.47 635.13 C 402.87 632.10 410.94 628.25 418.93 624.27 Z" />
</g>
</svg>
