<?xml version="1.0" encoding="UTF-8" ?>
<!DOCTYPE svg PUBLIC "-//W3C//DTD SVG 1.1//EN" "http://www.w3.org/Graphics/SVG/1.1/DTD/svg11.dtd">
<svg width="460pt" height="90pt" viewBox="0 0 460 90" version="1.1" xmlns="http://www.w3.org/2000/svg">
<g id="#e00214fd">
<path fill="#e00214" opacity="1.00" d=" M 44.89 6.97 C 46.13 3.24 50.03 0.52 53.95 0.60 C 66.98 0.60 80.01 0.59 93.04 0.61 C 95.71 0.55 98.25 1.89 100.05 3.80 C 103.10 9.76 102.16 16.57 102.32 23.00 C 102.26 25.32 102.53 27.89 100.95 29.82 C 99.85 23.41 101.61 16.79 99.84 10.48 C 99.40 8.96 98.78 7.50 98.08 6.09 C 97.06 4.82 95.89 3.37 94.09 3.47 C 82.74 3.08 71.37 3.54 60.02 3.29 C 57.19 3.28 54.21 2.98 51.57 4.24 C 48.61 5.68 47.02 8.83 46.93 12.04 C 46.63 18.06 46.94 24.09 46.78 30.12 C 46.02 30.16 44.50 30.24 43.73 30.28 C 43.79 23.15 43.32 15.99 44.00 8.89 C 44.22 8.41 44.66 7.45 44.89 6.97 Z" />
<path fill="#e00214" opacity="1.00" d=" M 3.16 35.77 C 4.56 36.45 5.95 37.13 7.32 37.85 L 8.12 38.33 C 8.14 38.57 8.20 39.05 8.22 39.29 C 8.30 39.72 8.46 40.58 8.54 41.01 L 7.12 41.22 C 5.97 41.51 4.24 41.40 4.30 43.05 C 3.73 45.74 3.85 49.14 6.13 51.04 C 7.49 51.69 8.88 51.19 10.11 50.56 L 11.06 50.10 C 12.02 49.71 12.65 49.01 12.96 48.00 C 13.28 47.39 13.90 46.16 14.21 45.54 C 14.59 45.72 15.33 46.07 15.70 46.24 L 16.33 46.57 C 14.82 47.56 14.07 49.24 13.23 50.76 C 12.57 52.11 11.05 52.60 9.88 53.36 C 8.69 53.04 7.48 52.94 6.25 53.06 L 5.11 53.07 C 3.66 51.20 2.15 49.30 1.36 47.04 C 1.97 43.29 3.22 39.63 3.16 35.77 Z" />
<path fill="#e00214" opacity="1.00" d=" M 35.88 37.59 C 36.67 37.74 38.25 38.02 39.04 38.16 C 39.50 39.80 39.97 41.43 40.45 43.06 C 38.98 42.37 37.50 41.66 35.92 41.28 C 35.72 41.73 35.31 42.62 35.11 43.06 C 34.42 44.62 33.75 46.20 32.88 47.67 C 31.15 50.26 29.33 53.86 25.60 52.82 C 25.44 52.48 25.13 51.80 24.97 51.47 C 23.74 48.84 22.50 46.21 21.13 43.64 L 20.69 42.85 L 20.27 42.15 C 18.75 42.70 17.51 43.78 16.83 45.29 C 16.42 44.82 16.01 44.35 15.60 43.88 C 16.44 42.53 17.25 41.16 18.10 39.83 C 19.01 38.33 21.08 38.07 22.19 39.50 C 23.12 42.56 23.89 45.73 25.66 48.43 L 26.23 49.07 C 26.50 49.33 27.06 49.86 27.34 50.12 C 28.86 48.93 30.03 47.38 30.93 45.69 C 31.41 44.84 31.93 44.02 32.50 43.24 C 33.47 42.00 34.45 40.75 35.07 39.30 C 35.27 38.87 35.68 38.02 35.88 37.59 Z" />
<path fill="#e00214" opacity="1.00" d=" M 44.00 39.59 C 44.65 39.67 45.95 39.82 46.60 39.90 C 46.83 41.92 46.84 43.97 46.59 45.99 C 45.93 46.07 44.61 46.23 43.95 46.30 C 43.96 44.07 43.98 41.83 44.00 39.59 Z" />
<path fill="#e00214" opacity="1.00" d=" M 99.98 46.49 C 99.74 44.13 99.69 41.77 99.69 39.40 C 100.45 39.54 101.98 39.82 102.75 39.97 C 102.75 41.92 102.76 43.88 102.77 45.84 C 102.07 46.00 100.68 46.33 99.98 46.49 Z" />
<path fill="#e00214" opacity="1.00" d=" M 43.99 47.91 C 44.64 47.97 45.93 48.10 46.58 48.16 C 46.84 50.18 46.82 52.23 46.60 54.26 C 45.95 54.33 44.64 54.46 43.98 54.53 C 43.97 52.32 43.98 50.12 43.99 47.91 Z" />
<path fill="#e00214" opacity="1.00" d=" M 100.07 48.33 C 100.71 48.21 102.00 47.95 102.64 47.82 C 102.72 50.11 102.73 52.39 102.69 54.68 C 98.59 55.30 99.97 50.83 100.07 48.33 Z" />
</g>
<g id="#ba1925d0">
<path fill="#ba1925" opacity="0.82" d=" M 51.57 4.24 C 54.21 2.98 57.19 3.28 60.02 3.29 C 71.37 3.54 82.74 3.08 94.09 3.47 C 95.89 3.37 97.06 4.82 98.08 6.09 C 94.87 3.64 90.74 4.38 87.00 4.31 C 75.19 4.27 63.38 4.42 51.57 4.24 Z" />
<path fill="#ba1925" opacity="0.82" d=" M 100.05 3.80 C 101.62 5.34 102.68 7.36 102.93 9.56 C 103.23 16.52 102.92 23.50 103.00 30.47 C 102.18 30.39 100.55 30.23 99.73 30.16 C 99.73 23.60 99.56 17.03 99.84 10.48 C 101.61 16.79 99.85 23.41 100.95 29.82 C 102.53 27.89 102.26 25.32 102.32 23.00 C 102.16 16.57 103.10 9.76 100.05 3.80 Z" />
<path fill="#ba1925" opacity="0.82" d=" M 44.10 35.32 C 45.08 34.04 47.82 35.35 46.63 36.88 C 45.65 38.23 42.83 36.85 44.10 35.32 Z" />
<path fill="#ba1925" opacity="0.82" d=" M 100.18 35.35 C 101.11 34.14 104.03 35.27 102.82 36.83 C 101.86 38.08 98.93 36.94 100.18 35.35 Z" />
<path fill="#ba1925" opacity="0.82" d=" M 4.30 43.05 C 4.24 41.40 5.97 41.51 7.12 41.22 C 6.64 41.52 5.68 42.10 5.19 42.40 C 5.04 45.19 4.14 49.01 7.10 50.71 C 7.86 50.67 9.36 50.60 10.11 50.56 C 8.88 51.19 7.49 51.69 6.13 51.04 C 3.85 49.14 3.73 45.74 4.30 43.05 Z" />
</g>
<g id="#4c383468">
<path fill="#4c3834" opacity="0.41" d=" M 43.99 7.11 L 44.89 6.97 C 44.66 7.45 44.22 8.41 44.00 8.89 L 43.54 8.09 L 43.99 7.11 Z" />
<path fill="#4c3834" opacity="0.41" d=" M 102.93 9.56 C 103.34 9.81 104.17 10.31 104.58 10.55 C 105.00 16.92 104.89 23.36 104.65 29.74 C 104.24 29.92 103.41 30.29 103.00 30.47 C 102.92 23.50 103.23 16.52 102.93 9.56 Z" />
<path fill="#4c3834" opacity="0.41" d=" M 2.36 34.87 C 4.47 35.00 6.08 36.23 7.32 37.85 C 5.95 37.13 4.56 36.45 3.16 35.77 C 3.22 39.63 1.97 43.29 1.36 47.04 C 2.15 49.30 3.66 51.20 5.11 53.07 C 0.78 51.40 0.04 46.19 1.48 42.27 C 2.43 39.91 2.45 37.37 2.36 34.87 Z" />
<path fill="#4c3834" opacity="0.41" d=" M 35.88 37.59 C 39.86 35.58 41.40 40.76 40.79 43.74 C 40.26 43.67 39.22 43.52 38.70 43.45 C 38.29 43.05 37.46 42.24 37.05 41.84 C 36.57 42.14 35.60 42.76 35.11 43.06 C 35.31 42.62 35.72 41.73 35.92 41.28 C 37.50 41.66 38.98 42.37 40.45 43.06 C 39.97 41.43 39.50 39.80 39.04 38.16 C 38.25 38.02 36.67 37.74 35.88 37.59 Z" />
<path fill="#4c3834" opacity="0.41" d=" M 8.12 38.33 C 10.53 37.03 11.16 42.08 8.54 41.01 C 8.46 40.58 8.30 39.72 8.22 39.29 C 8.20 39.05 8.14 38.57 8.12 38.33 Z" />
<path fill="#4c3834" opacity="0.41" d=" M 32.50 43.24 C 31.19 41.71 33.07 38.26 35.07 39.30 C 34.45 40.75 33.47 42.00 32.50 43.24 Z" />
<path fill="#4c3834" opacity="0.41" d=" M 43.26 39.33 C 44.57 39.29 45.88 39.24 47.19 39.20 C 47.52 44.37 47.07 49.57 47.49 54.74 C 46.07 54.76 44.64 54.78 43.21 54.79 C 43.38 49.64 43.31 44.49 43.26 39.33 M 44.00 39.59 C 43.98 41.83 43.96 44.07 43.95 46.30 C 44.61 46.23 45.93 46.07 46.59 45.99 C 46.84 43.97 46.83 41.92 46.60 39.90 C 45.95 39.82 44.65 39.67 44.00 39.59 M 43.99 47.91 C 43.98 50.12 43.97 52.32 43.98 54.53 C 44.64 54.46 45.95 54.33 46.60 54.26 C 46.82 52.23 46.84 50.18 46.58 48.16 C 45.93 48.10 44.64 47.97 43.99 47.91 Z" />
<path fill="#4c3834" opacity="0.41" d=" M 99.69 39.40 C 101.33 39.50 103.49 38.72 104.74 40.09 C 104.91 41.96 104.83 43.85 104.82 45.73 C 104.23 46.25 103.64 46.78 103.05 47.30 C 106.06 48.51 104.46 52.22 104.76 54.69 C 102.98 54.72 101.20 54.75 99.42 54.78 C 99.50 52.05 99.55 49.31 99.60 46.58 L 99.98 46.49 C 100.68 46.33 102.07 46.00 102.77 45.84 C 102.76 43.88 102.75 41.92 102.75 39.97 C 101.98 39.82 100.45 39.54 99.69 39.40 M 100.07 48.33 C 99.97 50.83 98.59 55.30 102.69 54.68 C 102.73 52.39 102.72 50.11 102.64 47.82 C 102.00 47.95 100.71 48.21 100.07 48.33 Z" />
<path fill="#4c3834" opacity="0.41" d=" M 14.21 45.54 C 15.26 43.49 16.04 41.11 18.10 39.83 C 17.25 41.16 16.44 42.53 15.60 43.88 C 16.01 44.35 16.42 44.82 16.83 45.29 C 17.51 43.78 18.75 42.70 20.27 42.15 L 20.69 42.85 C 18.82 43.51 17.49 44.97 16.39 46.56 L 15.70 46.24 C 15.33 46.07 14.59 45.72 14.21 45.54 Z" />
<path fill="#4c3834" opacity="0.41" d=" M 22.19 39.50 C 24.44 41.92 24.65 45.43 25.66 48.43 C 23.89 45.73 23.12 42.56 22.19 39.50 Z" />
<path fill="#4c3834" opacity="0.41" d=" M 21.13 43.64 C 22.50 46.21 23.74 48.84 24.97 51.47 C 22.55 49.58 21.76 46.49 21.13 43.64 Z" />
<path fill="#4c3834" opacity="0.41" d=" M 26.23 49.07 C 28.18 48.55 29.57 47.07 30.93 45.69 C 30.03 47.38 28.86 48.93 27.34 50.12 C 27.06 49.86 26.50 49.33 26.23 49.07 Z" />
<path fill="#4c3834" opacity="0.41" d=" M 13.23 50.76 C 14.07 49.24 14.82 47.56 16.33 46.57 C 16.80 48.32 15.35 51.43 13.23 50.76 Z" />
<path fill="#4c3834" opacity="0.41" d=" M 11.06 50.10 C 10.60 48.37 11.24 47.67 12.96 48.00 C 12.65 49.01 12.02 49.71 11.06 50.10 Z" />
<path fill="#4c3834" opacity="0.41" d=" M 25.60 52.82 C 29.33 53.86 31.15 50.26 32.88 47.67 C 32.18 50.80 29.23 55.60 25.60 52.82 Z" />
<path fill="#4c3834" opacity="0.41" d=" M 6.25 53.06 C 7.48 52.94 8.69 53.04 9.88 53.36 C 9.87 55.03 5.98 54.75 6.25 53.06 Z" />
</g>
<g id="#0d3082ff">
<path fill="#0d3082" opacity="1.00" d=" M 65.42 13.42 C 68.01 11.03 70.49 8.51 72.99 6.03 C 75.49 8.52 77.98 11.02 80.54 13.45 C 78.25 16.24 75.65 18.75 73.02 21.23 C 70.38 18.74 67.74 16.23 65.42 13.42 Z" />
<path fill="#0d3082" opacity="1.00" d=" M 55.98 23.04 C 58.27 20.37 60.97 18.09 63.37 15.53 C 66.05 17.95 68.61 20.49 71.17 23.02 C 68.77 25.44 66.35 27.83 63.91 30.21 L 63.37 30.74 C 61.07 28.01 58.26 25.78 55.98 23.04 Z" />
<path fill="#0d3082" opacity="1.00" d=" M 74.86 23.05 C 77.38 20.50 79.93 17.97 82.65 15.63 C 85.07 18.14 87.82 20.33 90.03 23.05 C 87.90 25.92 84.94 28.06 82.65 30.80 L 81.96 30.11 C 79.58 27.77 77.21 25.42 74.86 23.05 Z" />
<path fill="#0d3082" opacity="1.00" d=" M 46.09 32.42 C 48.85 30.06 51.20 27.24 54.04 24.96 C 56.87 27.33 59.35 30.06 61.93 32.69 C 59.19 35.03 56.87 37.83 54.04 40.08 C 51.08 37.86 48.69 35.01 46.09 32.42 Z" />
<path fill="#0d3082" opacity="1.00" d=" M 65.70 32.07 C 68.16 29.69 70.59 27.30 73.02 24.89 C 75.65 27.37 78.26 29.88 80.58 32.67 C 78.19 34.95 75.84 37.27 73.49 39.57 C 72.06 38.24 70.52 37.04 68.94 35.91 C 68.68 35.70 68.17 35.30 67.91 35.09 C 67.13 34.12 66.44 33.08 65.70 32.07 Z" />
<path fill="#0d3082" opacity="1.00" d=" M 84.66 32.57 C 87.27 29.95 89.69 27.12 92.70 24.94 C 95.17 27.57 97.78 30.05 100.26 32.66 C 97.42 35.00 94.74 37.56 92.55 40.53 L 92.18 40.05 C 90.13 37.14 87.56 34.63 84.66 32.57 Z" />
<path fill="#0d3082" opacity="1.00" d=" M 55.42 41.83 C 57.98 39.21 60.66 36.71 63.14 34.01 C 65.84 36.54 69.12 38.77 70.96 42.01 C 68.58 44.72 65.89 47.12 63.26 49.58 C 60.76 46.89 58.14 44.31 55.42 41.83 Z" />
<path fill="#0d3082" opacity="1.00" d=" M 75.73 41.12 C 78.27 38.89 80.63 36.45 83.03 34.06 C 85.62 36.70 88.45 39.12 90.84 41.95 C 88.46 44.74 85.62 47.07 83.09 49.72 C 81.12 47.68 78.91 45.85 77.15 43.61 C 76.74 42.74 76.26 41.91 75.73 41.12 Z" />
<path fill="#0d3082" opacity="1.00" d=" M 73.24 43.70 C 76.19 46.03 78.91 48.66 81.26 51.60 C 78.53 54.15 75.90 56.80 73.20 59.38 C 73.75 60.14 74.27 60.92 74.77 61.71 C 71.44 58.98 66.98 59.73 63.00 59.65 C 57.62 59.91 52.28 59.08 46.90 59.24 C 55.51 59.35 64.14 58.83 72.74 59.37 C 71.49 55.91 67.29 54.53 65.91 51.11 C 68.20 48.49 70.90 46.27 73.24 43.70 Z" />
</g>
<g id="#17323554">
<path fill="#173235" opacity="0.33" d=" M 64.93 12.84 L 65.42 13.42 C 67.74 16.23 70.38 18.74 73.02 21.23 C 75.65 18.75 78.25 16.24 80.54 13.45 L 81.02 12.89 C 81.01 13.46 81.00 14.62 81.00 15.19 C 81.53 15.19 82.60 15.20 83.14 15.21 L 82.65 15.63 C 79.93 17.97 77.38 20.50 74.86 23.05 C 77.21 25.42 79.58 27.77 81.96 30.11 C 81.67 30.82 81.10 32.24 80.81 32.95 L 80.58 32.67 C 78.26 29.88 75.65 27.37 73.02 24.89 C 70.59 27.30 68.16 29.69 65.70 32.07 C 66.44 33.08 67.13 34.12 67.91 35.09 C 65.82 34.20 64.86 32.12 63.91 30.21 C 66.35 27.83 68.77 25.44 71.17 23.02 C 68.61 20.49 66.05 17.95 63.37 15.53 L 62.95 15.14 C 63.48 15.18 64.54 15.25 65.08 15.29 C 65.04 14.68 64.97 13.45 64.93 12.84 M 72.18 22.20 C 71.65 23.86 72.19 24.44 73.79 23.94 C 74.32 22.29 73.79 21.71 72.18 22.20 Z" />
<path fill="#173235" opacity="0.33" d=" M 92.55 40.53 C 94.74 37.56 97.42 35.00 100.26 32.66 L 100.15 34.10 C 102.23 34.53 105.44 34.15 105.33 37.19 C 103.39 37.65 101.41 37.87 99.42 37.82 C 99.37 37.02 99.27 35.41 99.22 34.61 C 97.06 36.65 95.00 38.82 92.55 40.53 M 100.18 35.35 C 98.93 36.94 101.86 38.08 102.82 36.83 C 104.03 35.27 101.11 34.14 100.18 35.35 Z" />
<path fill="#173235" opacity="0.33" d=" M 75.11 41.20 L 75.73 41.12 C 76.26 41.91 76.74 42.74 77.15 43.61 C 75.82 44.66 73.84 42.36 75.11 41.20 Z" />
<path fill="#173235" opacity="0.33" d=" M 273.32 45.76 L 273.99 45.39 L 274.67 45.76 C 274.67 46.58 274.68 48.23 274.68 49.05 C 274.34 49.05 273.68 49.05 273.34 49.06 C 273.34 48.23 273.33 46.59 273.32 45.76 Z" />
<path fill="#173235" opacity="0.33" d=" M 86.87 60.91 C 88.10 58.65 90.81 57.94 93.16 57.55 C 96.99 57.28 100.92 57.16 104.65 58.21 C 104.65 59.75 104.66 61.28 104.68 62.82 C 101.50 63.91 98.11 63.79 94.79 63.81 C 97.35 63.26 99.98 63.15 102.58 62.99 C 102.61 61.35 102.63 59.71 102.65 58.07 C 97.27 57.96 91.48 57.57 86.87 60.91 Z" />
</g>
<g id="#379ea8ff">
<path fill="#379ea8" opacity="1.00" d=" M 193.41 26.50 C 195.84 26.28 196.70 27.69 196.38 30.03 C 195.57 30.00 193.95 29.95 193.14 29.92 C 193.23 28.78 193.32 27.64 193.41 26.50 Z" />
<path fill="#379ea8" opacity="1.00" d=" M 221.56 26.50 C 222.52 26.49 223.48 26.49 224.45 26.49 C 224.49 27.64 224.54 28.80 224.59 29.95 C 223.51 29.92 222.44 29.89 221.37 29.85 C 221.43 28.73 221.49 27.62 221.56 26.50 Z" />
<path fill="#379ea8" opacity="1.00" d=" M 257.58 26.59 C 260.03 26.23 260.57 27.88 260.39 30.08 C 259.64 30.02 258.13 29.89 257.37 29.82 C 257.44 28.74 257.51 27.66 257.58 26.59 Z" />
<path fill="#379ea8" opacity="1.00" d=" M 261.39 26.64 C 262.26 26.70 263.14 26.77 264.02 26.83 C 264.01 27.64 264.00 29.24 263.99 30.05 C 263.27 30.00 261.83 29.92 261.11 29.87 C 261.20 28.80 261.29 27.72 261.39 26.64 Z" />
<path fill="#379ea8" opacity="1.00" d=" M 354.56 26.49 C 355.52 26.49 356.48 26.50 357.45 26.50 C 357.50 27.63 357.55 28.77 357.61 29.91 C 356.52 29.90 355.44 29.88 354.36 29.86 C 354.42 28.74 354.49 27.61 354.56 26.49 Z" />
<path fill="#379ea8" opacity="1.00" d=" M 122.68 29.99 C 122.57 28.00 122.70 25.98 125.45 26.56 C 125.47 27.42 125.49 29.15 125.50 30.01 C 124.79 30.01 123.38 30.00 122.68 29.99 Z" />
<path fill="#379ea8" opacity="1.00" d=" M 126.88 27.24 C 128.42 26.03 129.81 28.67 128.52 29.70 C 127.00 30.87 125.44 28.26 126.88 27.24 Z" />
<path fill="#379ea8" opacity="1.00" d=" M 172.21 27.04 C 173.40 27.04 174.59 27.04 175.79 27.04 C 175.72 32.77 175.75 38.49 175.77 44.21 C 160.52 44.30 145.27 44.21 130.02 44.26 C 127.33 44.25 124.62 44.27 121.98 43.74 C 117.66 41.70 117.65 33.90 122.08 31.97 C 125.06 31.57 128.10 31.66 131.10 31.84 C 132.06 34.71 131.26 37.98 131.50 41.00 C 135.35 41.00 139.21 41.00 143.07 41.00 C 142.99 39.07 143.08 37.10 142.57 35.22 C 140.40 34.40 137.98 34.84 135.71 34.68 C 135.72 34.10 135.74 32.95 135.75 32.37 C 138.98 32.14 143.39 30.36 145.87 33.25 C 146.63 35.73 146.14 38.40 146.21 40.96 C 148.06 40.98 149.92 40.99 151.77 40.99 C 151.75 37.99 151.75 35.00 151.75 32.00 C 152.63 32.00 154.39 32.00 155.27 32.00 C 155.24 32.79 155.18 34.36 155.15 35.15 C 157.46 32.81 160.50 30.88 163.93 31.84 C 167.70 33.02 167.58 37.67 167.48 40.88 C 169.07 40.95 170.66 41.00 172.25 41.05 C 172.25 36.38 172.27 31.71 172.21 27.04 M 123.29 35.43 C 122.10 36.81 122.09 39.25 123.53 40.48 C 125.05 40.97 126.67 40.95 128.24 41.14 C 128.25 39.06 128.25 36.97 128.26 34.89 C 126.61 34.97 124.81 34.60 123.29 35.43 M 154.77 40.81 C 157.88 41.04 161.00 41.03 164.11 41.00 C 164.33 38.25 163.65 35.59 160.86 34.50 C 158.07 35.75 156.14 38.16 154.77 40.81 Z" />
<path fill="#379ea8" opacity="1.00" d=" M 179.00 27.00 C 179.88 27.00 181.62 27.00 182.50 27.00 C 182.50 32.67 182.50 38.33 182.50 44.00 C 181.62 44.00 179.87 44.00 179.00 44.00 C 179.00 38.33 179.00 32.67 179.00 27.00 Z" />
<path fill="#379ea8" opacity="1.00" d=" M 197.44 29.78 C 196.20 28.85 197.28 25.98 198.89 27.14 C 200.29 28.06 199.04 30.87 197.44 29.78 Z" />
<path fill="#379ea8" opacity="1.00" d=" M 212.75 27.00 C 213.56 27.00 215.19 27.00 216.00 27.00 C 216.00 32.67 216.00 38.33 216.00 44.00 C 215.19 44.00 213.56 44.00 212.75 44.00 C 212.75 38.33 212.75 32.67 212.75 27.00 Z" />
<path fill="#379ea8" opacity="1.00" d=" M 243.75 27.00 C 244.56 27.00 246.19 27.00 247.00 27.00 C 247.00 32.75 247.00 38.50 247.00 44.25 C 244.02 44.25 241.04 44.25 238.07 44.25 C 237.48 46.34 237.03 48.85 234.79 49.80 C 232.73 50.26 230.57 50.03 228.54 49.56 C 228.51 48.81 228.44 47.31 228.41 46.55 C 230.70 46.57 234.19 47.91 234.64 44.51 C 232.08 43.96 228.57 44.58 227.21 41.75 C 226.20 38.17 226.24 33.53 229.85 31.41 C 232.57 31.47 235.29 31.56 238.00 31.87 C 238.00 34.91 238.00 37.96 238.00 41.01 C 239.92 41.00 241.85 40.99 243.77 40.97 C 243.73 36.31 243.75 31.66 243.75 27.00 M 230.22 38.03 C 229.87 40.63 232.54 41.30 234.58 40.99 C 234.52 38.81 234.48 36.62 234.40 34.44 C 232.30 34.45 229.56 35.36 230.22 38.03 Z" />
<path fill="#379ea8" opacity="1.00" d=" M 305.45 27.10 C 306.63 27.05 307.81 27.00 309.00 26.96 C 309.00 31.64 309.00 36.32 309.00 41.00 C 310.60 41.00 312.20 41.00 313.81 41.01 C 313.40 38.80 312.73 36.24 314.17 34.26 C 316.09 31.32 320.35 30.99 323.25 32.56 C 323.27 33.35 323.32 34.92 323.35 35.70 C 321.45 35.42 319.23 34.07 317.54 35.60 C 315.99 37.21 317.21 39.35 317.89 41.05 C 319.92 41.01 321.96 41.00 324.00 40.99 C 324.00 41.80 324.00 43.43 324.00 44.25 C 314.74 44.22 305.49 44.32 296.24 44.19 C 296.23 43.42 296.20 41.87 296.19 41.09 C 296.96 41.06 298.49 40.98 299.25 40.95 C 299.24 37.37 299.24 33.80 299.26 30.22 C 300.34 30.24 301.43 30.27 302.52 30.29 C 302.49 33.86 302.49 37.43 302.51 41.01 C 303.26 41.00 304.75 41.00 305.50 41.00 C 305.49 36.36 305.53 31.73 305.45 27.10 Z" />
<path fill="#379ea8" opacity="1.00" d=" M 334.75 27.00 C 335.63 27.00 337.37 27.00 338.25 27.00 C 338.25 32.67 338.25 38.33 338.25 44.00 C 333.91 44.00 329.58 44.01 325.25 43.98 C 325.23 43.26 325.21 41.81 325.19 41.08 C 325.96 41.05 327.49 40.99 328.25 40.95 C 328.25 37.38 328.25 33.81 328.25 30.24 C 329.42 30.25 330.58 30.25 331.75 30.25 C 331.75 33.85 331.75 37.44 331.76 41.04 C 332.52 41.01 334.04 40.95 334.79 40.92 C 334.72 36.28 334.75 31.64 334.75 27.00 Z" />
<path fill="#379ea8" opacity="1.00" d=" M 341.22 27.03 C 342.40 27.03 343.59 27.03 344.78 27.03 C 344.73 32.68 344.74 38.33 344.77 43.99 C 343.58 43.97 342.39 43.96 341.21 43.94 C 341.28 38.30 341.26 32.67 341.22 27.03 Z" />
<path fill="#379ea8" opacity="1.00" d=" M 361.94 32.86 C 363.23 30.56 364.62 28.32 366.13 26.17 C 366.86 26.47 368.32 27.07 369.04 27.38 C 368.14 29.00 367.22 30.60 366.32 32.22 C 368.58 32.38 371.01 31.87 373.18 32.70 C 376.58 35.50 375.26 40.42 375.49 44.25 C 369.65 44.25 363.82 44.25 357.99 44.25 C 357.62 45.74 357.36 47.29 356.67 48.69 C 355.53 50.29 353.40 49.92 351.72 50.13 C 351.75 49.34 351.80 47.75 351.83 46.95 C 352.39 46.75 353.50 46.34 354.05 46.14 C 354.39 41.45 354.24 36.74 354.21 32.05 C 355.40 32.04 356.59 32.03 357.78 32.03 C 357.75 35.02 357.74 38.01 357.75 41.00 C 362.63 40.99 367.52 41.02 372.40 40.98 C 371.97 39.30 372.50 36.96 370.99 35.79 C 368.62 35.26 366.16 35.54 363.76 35.50 C 363.14 34.62 362.54 33.74 361.94 32.86 Z" />
<path fill="#379ea8" opacity="1.00" d=" M 192.21 32.14 C 195.38 31.29 198.75 31.88 202.00 31.85 C 202.00 35.90 202.00 39.95 202.00 43.99 C 198.10 43.51 192.84 45.57 190.15 41.74 C 189.00 38.62 188.70 33.89 192.21 32.14 M 192.96 37.95 C 192.67 41.12 196.33 41.00 198.49 41.15 C 198.50 39.03 198.50 36.91 198.49 34.79 C 196.25 34.70 192.48 34.67 192.96 37.95 Z" />
<path fill="#379ea8" opacity="1.00" d=" M 206.22 32.03 C 207.41 32.03 208.59 32.03 209.79 32.04 C 209.47 37.10 210.32 42.28 209.30 47.26 C 208.84 49.94 205.89 50.16 203.72 50.14 C 203.75 49.40 203.81 47.91 203.84 47.17 C 205.28 46.65 206.52 45.79 206.20 44.05 C 206.36 40.05 206.21 36.04 206.22 32.03 Z" />
<path fill="#379ea8" opacity="1.00" d=" M 221.22 32.02 C 222.41 32.03 223.60 32.04 224.79 32.05 C 224.49 37.11 225.29 42.27 224.30 47.27 C 223.84 49.99 220.80 50.16 218.62 50.13 C 218.39 48.23 219.08 46.52 221.01 45.93 C 221.45 41.30 221.20 36.66 221.22 32.02 Z" />
<path fill="#379ea8" opacity="1.00" d=" M 254.26 34.27 C 256.97 30.21 262.49 32.04 266.56 31.97 C 266.49 34.98 266.49 37.99 266.51 41.00 C 268.42 41.00 270.33 41.00 272.25 41.00 C 272.25 38.01 272.25 35.01 272.23 32.02 C 273.41 32.03 274.59 32.03 275.79 32.04 C 275.75 35.03 275.74 38.02 275.75 41.00 C 278.06 41.00 280.38 41.00 282.69 41.00 C 282.33 38.08 282.67 35.16 283.32 32.31 C 286.13 31.82 289.09 31.31 291.89 32.15 C 295.79 34.90 294.19 40.22 294.49 44.25 C 283.35 44.21 272.21 44.33 261.07 44.20 C 259.37 43.94 257.34 44.33 255.94 43.13 C 253.11 41.20 253.52 37.17 254.26 34.27 M 257.37 38.06 C 256.89 41.36 260.88 40.79 262.99 41.14 C 263.00 39.05 263.00 36.96 263.01 34.87 C 260.71 34.70 256.67 34.62 257.37 38.06 M 286.04 34.91 C 286.02 36.92 286.03 38.92 286.08 40.93 C 287.74 40.97 289.40 41.00 291.07 41.02 C 290.97 39.42 291.12 37.77 290.72 36.20 C 289.87 34.34 287.65 34.91 286.04 34.91 Z" />
<path fill="#379ea8" opacity="1.00" d=" M 380.00 31.94 C 381.18 32.00 382.37 32.07 383.57 32.14 C 383.49 35.09 383.49 38.05 383.50 41.00 C 385.92 41.00 388.34 41.00 390.77 41.00 C 390.65 38.11 390.79 35.21 391.40 32.38 C 395.04 31.61 400.65 30.51 402.29 35.00 C 402.71 38.07 402.46 41.17 402.48 44.25 C 396.22 44.25 389.96 44.23 383.71 44.27 C 383.25 45.87 383.25 47.74 382.10 49.04 C 380.94 50.35 378.98 49.81 377.47 50.15 C 377.50 49.39 377.56 47.86 377.59 47.09 C 379.13 46.84 380.19 45.68 379.96 44.07 C 380.11 40.03 379.95 35.98 380.00 31.94 M 394.15 34.94 C 394.09 36.93 394.08 38.92 394.12 40.92 C 395.76 40.97 397.40 40.99 399.05 41.03 C 398.86 39.21 399.36 37.18 398.51 35.50 C 397.21 34.56 395.61 34.89 394.15 34.94 Z" />
<path fill="#379ea8" opacity="1.00" d=" M 273.34 49.06 C 269.74 50.62 269.72 44.17 273.32 45.76 C 273.33 46.59 273.34 48.23 273.34 49.06 Z" />
<path fill="#379ea8" opacity="1.00" d=" M 274.67 45.76 C 277.30 44.95 277.62 46.85 277.18 48.85 C 276.56 48.90 275.30 49.00 274.68 49.05 C 274.68 48.23 274.67 46.58 274.67 45.76 Z" />
<path fill="#379ea8" opacity="1.00" d=" M 327.69 47.46 C 328.14 45.26 332.08 45.23 332.29 47.64 C 331.62 47.71 330.29 47.86 329.63 47.93 L 329.68 49.57 C 330.45 49.47 331.99 49.29 332.76 49.20 C 332.82 49.59 332.94 50.38 333.00 50.77 C 331.12 51.14 329.25 51.51 327.38 51.88 C 327.50 50.41 327.47 48.92 327.69 47.46 Z" />
<path fill="#379ea8" opacity="1.00" d=" M 321.02 52.42 C 322.75 53.56 325.45 54.28 325.08 56.90 C 323.49 56.42 321.91 55.87 320.34 55.33 C 320.56 54.36 320.79 53.39 321.02 52.42 Z" />
<path fill="#379ea8" opacity="1.00" d=" M 414.07 56.93 C 413.53 54.27 416.37 53.57 418.06 52.38 C 418.28 53.35 418.50 54.32 418.72 55.30 C 417.17 55.85 415.63 56.42 414.07 56.93 Z" />
<path fill="#379ea8" opacity="1.00" d=" M 220.57 53.75 C 221.09 53.73 222.13 53.71 222.65 53.70 C 222.71 54.79 222.77 55.87 222.84 56.96 C 222.23 56.94 221.01 56.90 220.40 56.88 C 220.46 55.84 220.51 54.79 220.57 53.75 Z" />
<path fill="#379ea8" opacity="1.00" d=" M 258.51 53.76 C 259.06 53.74 260.14 53.70 260.68 53.69 C 260.80 59.28 260.75 64.88 260.72 70.47 C 258.46 70.20 254.95 71.86 253.95 68.93 C 253.22 66.07 253.17 62.90 254.05 60.07 C 254.55 58.00 256.93 58.38 258.52 58.21 C 258.51 56.73 258.51 55.24 258.51 53.76 M 256.02 67.87 C 256.64 67.84 257.86 67.77 258.48 67.73 C 258.31 65.51 259.03 63.01 258.05 60.96 C 254.43 60.67 255.71 65.56 256.02 67.87 Z" />
<path fill="#379ea8" opacity="1.00" d=" M 289.28 53.47 C 289.79 53.58 290.82 53.79 291.33 53.90 C 291.37 55.72 291.38 57.67 288.89 57.20 C 289.01 55.96 289.14 54.71 289.28 53.47 Z" />
<path fill="#379ea8" opacity="1.00" d=" M 302.33 53.42 C 302.83 53.55 303.83 53.82 304.32 53.96 C 304.45 55.76 304.30 57.65 301.88 57.23 C 302.01 55.95 302.16 54.69 302.33 53.42 Z" />
<path fill="#379ea8" opacity="1.00" d=" M 110.45 56.32 C 111.35 52.85 118.33 53.08 117.44 57.22 C 115.88 57.33 113.87 56.38 112.70 57.88 C 111.73 60.87 111.78 64.27 112.78 67.26 C 114.12 68.19 115.92 67.44 117.42 67.59 C 118.40 71.87 111.51 71.72 110.53 68.48 C 109.37 64.57 109.47 60.26 110.45 56.32 Z" />
<path fill="#379ea8" opacity="1.00" d=" M 159.49 54.30 C 160.05 54.28 161.16 54.23 161.72 54.20 C 161.76 59.65 161.77 65.10 161.71 70.56 C 161.16 70.53 160.05 70.49 159.50 70.47 C 159.50 65.08 159.52 59.69 159.49 54.30 Z" />
<path fill="#379ea8" opacity="1.00" d=" M 172.37 59.91 C 172.93 57.17 173.16 52.02 177.36 53.72 C 178.57 55.90 175.14 56.39 175.02 58.45 C 175.61 58.47 176.81 58.52 177.41 58.54 C 177.66 60.38 176.93 61.37 175.23 61.53 C 175.24 64.44 175.25 67.34 175.27 70.24 C 174.79 70.37 173.83 70.63 173.36 70.77 C 173.23 67.13 173.56 63.42 172.37 59.91 Z" />
<path fill="#379ea8" opacity="1.00" d=" M 275.26 54.19 C 276.49 54.21 277.73 54.26 278.97 54.34 C 279.90 57.86 280.15 61.52 280.92 65.07 C 282.08 61.56 282.28 57.83 283.05 54.23 C 284.35 54.23 285.65 54.23 286.95 54.22 C 287.04 59.64 286.98 65.07 287.00 70.50 C 286.38 70.49 285.12 70.48 284.49 70.47 C 284.48 66.30 284.52 62.13 284.56 57.96 C 283.63 61.21 283.17 64.57 282.53 67.89 C 282.65 69.46 281.27 69.89 279.99 70.01 C 279.16 65.94 278.61 61.81 277.50 57.80 C 277.43 62.07 277.54 66.35 277.49 70.62 L 275.56 70.49 C 274.81 65.12 275.46 59.61 275.26 54.19 Z" />
<path fill="#379ea8" opacity="1.00" d=" M 350.01 53.59 C 350.55 53.68 351.62 53.86 352.16 53.95 C 352.41 59.41 352.14 64.88 352.29 70.34 C 350.07 70.18 346.88 71.83 345.59 69.26 C 344.64 66.23 344.56 62.65 345.75 59.68 C 346.44 57.91 348.52 58.40 350.00 58.30 C 350.00 56.73 350.00 55.16 350.01 53.59 M 347.19 66.17 C 347.01 67.61 348.52 68.32 349.73 67.86 C 350.17 65.51 349.98 63.11 349.90 60.75 C 346.80 60.58 346.79 63.96 347.19 66.17 Z" />
<path fill="#379ea8" opacity="1.00" d=" M 365.75 53.76 C 366.31 53.76 367.44 53.75 368.00 53.75 C 367.94 59.27 368.11 64.80 367.94 70.32 C 367.39 70.39 366.29 70.53 365.74 70.60 C 365.76 64.99 365.75 59.37 365.75 53.76 Z" />
<path fill="#379ea8" opacity="1.00" d=" M 381.50 57.11 C 381.80 53.39 385.99 53.79 388.66 54.30 C 388.71 54.95 388.80 56.25 388.85 56.90 C 387.09 57.06 383.47 55.90 383.61 58.71 C 384.56 60.97 388.51 61.06 388.93 63.89 C 389.20 66.23 389.22 69.56 386.55 70.56 C 384.42 71.02 380.45 70.89 381.55 67.64 C 383.01 67.76 384.48 67.83 385.96 67.86 C 386.89 67.00 386.68 65.72 386.73 64.59 C 383.50 63.56 380.25 60.92 381.50 57.11 Z" />
<path fill="#379ea8" opacity="1.00" d=" M 136.18 55.00 C 136.70 55.00 137.73 55.00 138.24 55.00 C 138.24 56.09 138.25 57.19 138.25 58.28 C 141.11 57.77 140.93 61.92 138.22 61.55 C 138.24 63.55 138.24 65.54 138.25 67.54 C 141.73 67.45 140.20 72.31 137.42 70.49 C 134.87 67.79 136.79 63.26 135.30 59.95 C 135.66 58.31 135.95 56.66 136.18 55.00 Z" />
<path fill="#379ea8" opacity="1.00" d=" M 215.18 55.00 C 215.69 55.00 216.72 55.00 217.24 55.00 C 217.24 56.16 217.25 57.33 217.26 58.49 C 217.80 58.50 218.87 58.53 219.41 58.54 C 219.65 60.37 218.92 61.37 217.22 61.55 C 217.23 63.50 217.25 65.44 217.27 67.39 C 217.82 67.79 218.91 68.59 219.46 68.99 C 220.07 69.51 220.69 70.02 221.31 70.54 C 221.15 66.27 221.24 61.98 221.50 57.71 C 224.09 61.27 222.20 66.41 222.69 70.64 C 220.46 70.53 217.92 71.29 215.89 70.16 C 214.39 66.96 215.51 63.20 214.30 59.89 C 214.67 58.27 214.96 56.64 215.18 55.00 Z" />
<path fill="#379ea8" opacity="1.00" d=" M 314.15 55.00 C 314.67 55.00 315.72 55.00 316.24 55.00 C 316.24 56.17 316.25 57.33 316.27 58.50 C 316.80 58.51 317.86 58.52 318.39 58.53 C 318.66 60.37 317.94 61.37 316.23 61.53 C 316.24 63.54 316.24 65.55 316.25 67.56 C 318.01 67.78 318.67 68.75 318.24 70.49 C 316.82 71.02 314.68 70.89 314.39 69.05 C 314.06 64.37 312.89 59.65 314.15 55.00 Z" />
<path fill="#379ea8" opacity="1.00" d=" M 407.90 55.00 C 408.43 55.00 409.48 55.00 410.00 55.00 C 410.00 55.86 409.99 57.57 409.99 58.43 C 410.49 58.46 411.50 58.53 412.01 58.57 C 412.00 59.19 412.00 60.43 411.99 61.05 C 408.48 60.80 410.39 65.48 410.09 67.65 C 410.58 67.81 411.57 68.12 412.07 68.28 C 411.98 68.95 411.80 70.27 411.71 70.93 C 410.38 70.66 408.35 70.76 408.12 68.98 C 407.81 64.32 406.69 59.63 407.90 55.00 Z" />
<path fill="#379ea8" opacity="1.00" d=" M 119.15 60.14 C 119.86 57.93 123.21 57.50 124.51 59.39 C 125.89 61.29 125.36 63.79 125.56 65.98 C 123.81 65.99 122.06 66.02 120.32 66.05 C 120.72 68.72 123.65 67.78 125.54 68.17 C 125.52 71.34 121.19 71.45 119.40 69.72 C 117.95 66.78 118.03 63.17 119.15 60.14 M 120.28 63.48 C 121.42 63.48 122.55 63.48 123.68 63.48 C 123.15 62.70 123.47 60.67 122.04 61.06 C 120.54 60.56 120.85 62.67 120.28 63.48 Z" />
<path fill="#379ea8" opacity="1.00" d=" M 127.09 58.49 C 129.27 58.86 132.95 57.13 133.69 60.16 C 134.51 63.57 134.21 67.12 134.26 70.59 C 133.71 70.53 132.61 70.39 132.06 70.32 C 131.94 67.27 132.03 64.21 131.77 61.16 C 131.16 61.16 129.94 61.15 129.33 61.14 C 129.23 64.29 129.24 67.44 129.26 70.60 C 128.71 70.53 127.61 70.39 127.06 70.32 C 126.88 66.38 127.00 62.43 127.09 58.49 Z" />
<path fill="#379ea8" opacity="1.00" d=" M 142.46 58.20 C 142.98 58.49 144.00 59.07 144.51 59.36 C 145.04 59.05 146.10 58.41 146.63 58.10 C 146.83 60.10 146.40 62.10 144.12 62.45 C 144.02 65.25 144.00 68.05 143.76 70.85 C 143.26 70.70 142.24 70.39 141.73 70.24 C 142.13 66.26 140.90 61.94 142.46 58.20 Z" />
<path fill="#379ea8" opacity="1.00" d=" M 147.91 60.07 C 148.65 57.89 152.07 57.55 153.30 59.45 C 154.63 61.31 154.11 63.76 154.32 65.90 C 152.39 65.96 150.44 65.96 148.63 66.72 C 150.17 68.19 152.30 67.98 154.23 68.11 C 154.57 71.34 149.89 71.47 148.20 69.73 C 146.59 66.82 146.85 63.12 147.91 60.07 M 149.04 63.44 C 149.78 63.48 151.26 63.57 152.00 63.61 C 151.95 62.99 151.86 61.76 151.81 61.14 C 149.88 60.23 149.48 62.01 149.04 63.44 Z" />
<path fill="#379ea8" opacity="1.00" d=" M 180.44 58.43 C 182.40 57.62 184.56 59.11 184.95 61.08 C 185.64 63.79 185.75 66.92 184.26 69.38 C 182.84 71.68 179.16 70.91 178.46 68.41 C 177.49 65.19 177.07 60.36 180.44 58.43 M 180.62 61.47 C 179.83 63.43 179.17 67.55 181.93 68.11 C 183.53 66.96 183.29 64.57 183.06 62.83 C 183.14 61.49 181.67 60.13 180.62 61.47 Z" />
<path fill="#379ea8" opacity="1.00" d=" M 192.75 58.51 C 196.06 58.54 199.37 58.71 202.67 58.34 C 204.17 58.81 204.36 60.75 204.47 62.08 C 204.59 64.91 204.48 67.73 204.46 70.56 L 202.52 70.46 C 202.56 67.24 202.55 64.00 202.04 60.81 C 201.51 60.94 200.46 61.21 199.94 61.34 C 199.57 64.40 199.78 67.48 199.72 70.55 C 199.17 70.53 198.06 70.49 197.50 70.47 C 197.54 67.21 197.57 63.94 197.24 60.69 C 196.73 60.86 195.69 61.20 195.18 61.37 C 194.81 64.34 195.12 67.34 194.94 70.33 C 194.40 70.40 193.30 70.55 192.75 70.62 C 192.74 66.58 192.76 62.55 192.75 58.51 Z" />
<path fill="#379ea8" opacity="1.00" d=" M 206.24 60.80 C 206.19 57.25 212.83 57.27 212.63 60.89 C 212.80 64.15 212.75 67.44 213.34 70.67 C 211.14 69.80 208.26 71.67 206.56 69.69 C 205.76 67.93 205.56 65.49 206.79 63.88 C 208.24 63.18 209.79 62.73 211.28 62.11 C 209.78 61.14 208.10 60.70 206.24 60.80 M 208.38 65.36 C 208.34 66.01 208.24 67.31 208.19 67.96 C 208.77 67.92 209.93 67.85 210.50 67.81 C 210.51 67.17 210.52 65.89 210.52 65.24 C 209.99 65.27 208.92 65.33 208.38 65.36 Z" />
<path fill="#379ea8" opacity="1.00" d=" M 233.28 58.47 C 233.84 58.48 234.94 58.50 235.50 58.52 C 235.47 61.77 235.45 65.02 235.69 68.27 C 236.21 68.10 237.24 67.77 237.76 67.61 C 238.25 64.66 237.86 61.66 238.05 58.70 C 238.60 58.62 239.70 58.46 240.25 58.39 C 240.25 62.39 240.24 66.40 240.26 70.40 C 238.52 70.45 236.80 70.62 235.07 70.61 C 233.61 70.17 233.42 68.37 233.29 67.10 C 233.15 64.22 233.26 61.34 233.28 58.47 Z" />
<path fill="#379ea8" opacity="1.00" d=" M 242.73 59.97 C 243.55 57.71 247.20 57.62 248.25 59.73 C 249.32 61.61 248.87 63.90 249.07 65.97 C 247.26 66.00 245.46 66.03 243.66 66.12 C 244.44 68.50 247.03 67.97 248.99 68.21 C 248.84 68.79 248.56 69.95 248.41 70.52 C 246.51 70.50 243.84 71.41 242.71 69.32 C 241.45 66.41 241.55 62.89 242.73 59.97 M 243.95 63.55 C 244.68 63.56 246.13 63.57 246.86 63.58 C 246.81 62.93 246.70 61.63 246.65 60.97 C 244.78 60.74 243.95 61.76 243.95 63.55 Z" />
<path fill="#379ea8" opacity="1.00" d=" M 262.77 59.87 C 262.24 58.59 264.49 57.46 264.89 58.98 C 265.16 61.85 264.88 64.75 265.06 67.63 C 265.65 67.64 266.83 67.65 267.42 67.66 C 267.60 64.62 267.50 61.58 267.50 58.53 C 268.05 58.51 269.15 58.46 269.71 58.44 C 269.77 62.51 269.79 66.58 269.67 70.65 C 268.90 70.53 268.14 70.42 267.37 70.30 C 266.07 70.51 264.11 71.34 263.43 69.65 C 262.20 66.58 262.86 63.11 262.77 59.87 Z" />
<path fill="#379ea8" opacity="1.00" d=" M 293.10 58.49 C 295.26 58.86 298.87 57.14 299.67 60.09 C 300.52 63.54 300.21 67.14 300.24 70.66 C 299.69 70.57 298.60 70.39 298.06 70.30 C 297.88 67.54 298.19 64.76 297.78 62.01 C 298.08 60.55 294.87 60.64 295.32 62.01 C 295.14 64.75 295.35 67.50 295.18 70.24 C 294.64 70.35 293.56 70.57 293.03 70.68 C 292.98 66.61 292.95 62.55 293.10 58.49 Z" />
<path fill="#379ea8" opacity="1.00" d=" M 305.67 61.05 C 305.66 57.13 313.36 57.15 312.17 61.42 C 310.66 61.31 309.15 61.21 307.65 61.14 C 308.11 63.78 312.32 62.99 312.18 65.97 C 312.89 68.54 310.83 71.62 307.95 70.72 C 306.01 70.91 305.46 69.41 305.54 67.72 C 307.09 67.44 309.94 68.93 310.13 66.46 C 307.42 66.08 304.62 64.15 305.67 61.05 Z" />
<path fill="#379ea8" opacity="1.00" d=" M 319.10 64.16 C 319.13 61.64 319.82 58.01 323.06 58.16 C 326.64 58.63 326.29 63.06 326.27 65.76 C 324.52 65.75 322.78 65.76 321.04 65.78 C 321.28 68.75 324.17 67.84 326.24 67.87 C 326.70 70.89 323.47 71.10 321.35 70.62 C 318.99 69.46 319.15 66.39 319.10 64.16 M 321.07 63.57 C 322.21 63.50 323.35 63.42 324.50 63.33 C 324.27 62.79 323.80 61.70 323.56 61.16 C 321.76 59.81 321.44 62.46 321.07 63.57 Z" />
<path fill="#379ea8" opacity="1.00" d=" M 333.93 60.04 C 334.68 57.87 338.10 57.57 339.33 59.47 C 340.62 61.35 340.11 63.80 340.31 65.95 C 338.74 66.44 335.89 65.02 335.17 66.92 C 336.17 68.69 338.56 67.68 340.19 68.09 C 340.69 71.33 335.84 71.49 334.17 69.69 C 332.61 66.77 332.83 63.09 333.93 60.04 M 335.05 63.46 C 335.80 63.49 337.31 63.55 338.06 63.57 C 337.99 62.96 337.85 61.73 337.77 61.11 C 335.84 60.25 335.50 62.05 335.05 63.46 Z" />
<path fill="#379ea8" opacity="1.00" d=" M 354.30 60.32 C 354.94 58.05 358.25 57.46 359.69 59.28 C 361.13 61.15 360.60 63.70 360.88 65.90 C 359.08 65.97 357.29 66.01 355.51 66.11 C 355.97 68.70 358.81 67.79 360.68 68.13 C 361.11 71.23 356.88 71.27 354.99 70.05 C 353.00 67.30 353.39 63.41 354.30 60.32 M 355.93 63.59 C 356.68 63.56 358.16 63.50 358.91 63.47 C 358.63 62.65 358.34 61.84 358.03 61.04 C 355.96 60.38 355.96 62.06 355.93 63.59 Z" />
<path fill="#379ea8" opacity="1.00" d=" M 369.78 60.95 C 369.35 57.28 376.41 57.20 376.14 60.95 C 376.29 64.20 376.27 67.47 376.84 70.69 C 375.02 70.27 373.19 70.50 371.36 70.64 C 369.11 69.88 369.33 66.90 369.67 65.02 C 370.00 62.33 374.56 64.18 374.24 61.08 C 372.75 61.04 371.26 60.99 369.78 60.95 M 371.98 67.95 C 374.52 68.85 373.90 66.40 373.88 64.77 C 372.35 65.11 371.00 66.39 371.98 67.95 Z" />
<path fill="#379ea8" opacity="1.00" d=" M 390.23 60.79 C 390.22 57.27 396.78 57.26 396.63 60.86 C 396.79 64.13 396.75 67.42 397.34 70.66 C 395.11 69.79 392.16 71.73 390.49 69.60 C 389.80 67.81 389.53 65.39 390.85 63.82 C 392.27 63.15 393.81 62.75 395.28 62.16 C 393.79 61.13 392.11 60.67 390.23 60.79 M 392.40 65.34 C 392.35 66.00 392.24 67.31 392.19 67.96 C 392.77 67.92 393.93 67.85 394.51 67.81 C 394.51 67.17 394.52 65.89 394.52 65.25 C 393.99 65.27 392.93 65.32 392.40 65.34 Z" />
<path fill="#379ea8" opacity="1.00" d=" M 413.30 60.97 C 413.62 58.74 416.38 57.42 418.26 58.65 C 420.50 60.30 419.86 63.35 420.03 65.75 C 418.29 65.76 416.55 65.76 414.82 65.77 C 415.06 66.32 415.55 67.41 415.80 67.95 C 417.15 67.95 418.50 68.00 419.86 68.12 C 420.58 71.09 416.45 71.21 414.63 70.37 C 412.11 68.04 412.78 64.00 413.30 60.97 M 414.91 63.53 C 415.69 63.54 417.25 63.56 418.02 63.57 C 417.98 62.45 417.60 61.54 416.89 60.82 C 415.21 60.70 415.20 62.33 414.91 63.53 Z" />
<path fill="#379ea8" opacity="1.00" d=" M 163.74 58.58 C 165.84 58.94 169.24 57.13 170.28 59.80 C 171.40 63.35 171.01 67.17 170.79 70.82 C 170.27 70.68 169.25 70.38 168.74 70.24 C 168.73 67.50 168.92 64.75 168.55 62.04 C 168.76 60.76 165.49 60.33 166.12 61.99 C 165.86 64.76 166.09 67.54 165.95 70.32 C 165.40 70.39 164.30 70.54 163.75 70.62 C 163.74 66.61 163.76 62.59 163.74 58.58 Z" />
<path fill="#379ea8" opacity="1.00" d=" M 187.00 58.54 C 188.68 58.69 190.36 58.69 192.04 58.55 C 192.16 60.55 191.19 62.00 189.29 62.63 C 189.24 65.30 189.25 67.97 189.24 70.65 C 188.69 70.56 187.60 70.38 187.06 70.29 C 186.89 66.38 187.05 62.46 187.00 58.54 Z" />
<path fill="#379ea8" opacity="1.00" d=" M 224.59 60.48 C 225.51 57.42 229.14 58.36 231.50 58.47 C 231.49 64.18 231.50 69.90 231.50 75.61 C 228.03 76.53 229.63 72.29 229.24 70.55 C 227.66 70.66 225.42 71.15 224.80 69.15 C 223.88 66.39 224.03 63.29 224.59 60.48 M 226.94 68.05 C 227.51 67.94 228.66 67.71 229.23 67.60 C 229.25 65.40 229.28 63.21 229.32 61.01 C 225.24 60.41 226.12 65.56 226.94 68.05 Z" />
<path fill="#379ea8" opacity="1.00" d=" M 289.06 58.70 C 289.61 58.61 290.69 58.43 291.24 58.34 C 291.26 62.38 291.24 66.42 291.26 70.47 C 290.69 70.47 289.56 70.49 289.00 70.50 C 289.05 66.56 288.88 62.63 289.06 58.70 Z" />
<path fill="#379ea8" opacity="1.00" d=" M 302.06 58.69 C 302.61 58.62 303.71 58.47 304.26 58.40 C 304.24 62.46 304.24 66.53 304.26 70.60 C 303.71 70.53 302.61 70.39 302.06 70.32 C 301.93 66.45 301.94 62.57 302.06 58.69 Z" />
<path fill="#379ea8" opacity="1.00" d=" M 327.75 58.53 C 329.43 58.73 331.11 58.73 332.79 58.53 C 332.78 60.42 332.11 62.11 330.08 62.50 C 329.99 65.10 330.06 67.70 329.94 70.29 C 329.39 70.38 328.30 70.54 327.75 70.63 C 327.74 66.59 327.76 62.56 327.75 58.53 Z" />
<path fill="#379ea8" opacity="1.00" d=" M 398.50 58.57 C 400.66 58.96 404.23 57.05 405.12 59.99 C 406.07 63.40 405.68 67.02 405.72 70.53 C 405.17 70.52 404.06 70.50 403.51 70.49 C 403.55 67.26 403.56 64.02 403.15 60.81 C 402.60 60.95 401.49 61.21 400.94 61.34 C 400.53 64.39 400.81 67.49 400.71 70.56 L 398.51 70.47 C 398.50 66.51 398.50 62.54 398.50 58.57 Z" />
</g>
<g id="#276c77b8">
<path fill="#276c77" opacity="0.72" d=" M 84.66 32.57 C 87.56 34.63 90.13 37.14 92.18 40.05 C 89.37 37.89 86.82 35.38 84.66 32.57 Z" />
<path fill="#276c77" opacity="0.72" d=" M 68.94 35.91 C 70.52 37.04 72.06 38.24 73.49 39.57 L 74.04 40.09 C 71.68 39.68 70.35 37.60 68.94 35.91 Z" />
<path fill="#276c77" opacity="0.72" d=" M 219.46 68.99 C 221.62 65.54 218.75 60.83 221.50 57.71 C 221.24 61.98 221.15 66.27 221.31 70.54 C 220.69 70.02 220.07 69.51 219.46 68.99 Z" />
</g>
<g id="#42a62aff">
<path fill="#42a62a" opacity="1.00" d=" M 3.29 65.24 C 6.17 58.90 14.29 56.48 20.61 58.51 C 20.53 60.92 20.50 63.34 20.44 65.75 C 16.40 65.01 11.38 66.59 10.48 71.09 C 9.28 75.53 13.29 78.71 16.80 80.42 C 18.14 80.33 19.48 80.26 20.82 80.19 C 20.79 82.61 20.73 85.03 20.58 87.45 C 15.50 87.69 10.09 87.40 6.02 83.96 C 1.61 79.02 -0.66 71.12 3.29 65.24 Z" />
<path fill="#42a62a" opacity="1.00" d=" M 86.87 60.91 C 91.48 57.57 97.27 57.96 102.65 58.07 C 102.63 59.71 102.61 61.35 102.58 62.99 C 99.98 63.15 97.35 63.26 94.79 63.81 C 93.87 64.49 92.99 65.21 92.14 65.97 C 94.55 69.09 97.88 71.37 100.21 74.54 C 101.00 77.29 101.54 80.98 99.20 83.16 C 97.29 85.15 94.74 86.39 92.20 87.37 C 89.24 87.55 86.27 87.42 83.32 87.59 C 83.02 85.71 81.95 83.09 83.30 81.54 C 86.91 81.17 91.63 81.99 93.65 78.11 C 92.06 73.58 86.73 72.21 84.98 67.84 C 83.74 65.39 85.12 62.69 86.87 60.91 Z" />
<path fill="#42a62a" opacity="1.00" d=" M 29.58 59.42 C 32.20 59.24 34.82 59.20 37.45 59.16 C 37.55 68.59 37.58 78.01 37.42 87.43 C 35.05 87.44 32.67 87.47 30.30 87.59 C 28.86 78.32 30.22 68.79 29.58 59.42 Z" />
<path fill="#42a62a" opacity="1.00" d=" M 46.26 59.24 L 46.90 59.24 C 52.28 59.08 57.62 59.91 63.00 59.65 C 66.98 59.73 71.44 58.98 74.77 61.71 L 75.18 61.93 C 75.87 63.52 76.60 65.16 76.42 66.95 C 76.41 73.81 76.35 80.66 76.44 87.52 C 73.70 87.57 70.96 87.60 68.21 87.66 C 67.34 80.67 68.53 73.59 67.36 66.64 C 62.80 66.15 58.20 66.23 53.63 66.47 C 53.75 73.47 53.78 80.47 53.61 87.48 C 51.23 87.46 48.85 87.46 46.47 87.50 C 46.03 78.09 46.38 68.66 46.26 59.24 Z" />
<path fill="#42a62a" opacity="1.00" d=" M 57.42 69.40 C 60.04 69.34 62.67 69.35 65.29 69.48 C 64.89 75.51 65.96 81.66 64.63 87.60 C 62.25 87.48 59.87 87.44 57.49 87.42 C 57.31 81.41 57.40 75.40 57.42 69.40 Z" />
</g>
</svg>
