<?xml version="1.0" encoding="UTF-8" ?>
<!DOCTYPE svg PUBLIC "-//W3C//DTD SVG 1.1//EN" "http://www.w3.org/Graphics/SVG/1.1/DTD/svg11.dtd">
<svg width="512pt" height="512pt" viewBox="0 0 512 512" version="1.1" xmlns="http://www.w3.org/2000/svg">
<g id="#000000ff">
<path fill="#000000" opacity="1.00" d=" M 98.96 36.09 C 112.60 31.26 127.96 30.38 141.69 35.33 C 151.73 38.86 160.58 45.61 166.66 54.36 C 179.81 72.87 192.94 91.39 206.08 109.90 C 213.30 120.25 221.42 130.23 225.82 142.21 C 230.28 153.26 230.18 166.14 224.97 176.92 C 218.03 191.81 205.15 202.53 194.18 214.35 C 213.00 242.35 236.01 267.38 261.20 289.74 C 272.65 299.80 284.70 309.23 297.55 317.45 C 308.93 306.48 319.49 293.91 334.07 287.07 C 344.66 281.79 357.35 281.44 368.40 285.50 C 379.87 289.36 389.64 296.70 399.39 303.65 C 416.92 316.12 434.49 328.54 452.02 341.01 C 457.55 345.01 463.49 348.64 467.88 353.97 C 478.16 365.92 481.36 382.70 479.02 398.01 C 476.47 415.02 467.32 430.28 456.09 443.00 C 445.10 456.27 430.43 466.31 414.31 472.29 C 392.61 480.33 368.80 481.72 346.06 478.08 C 329.25 475.29 312.89 470.25 297.07 463.98 C 251.65 445.48 210.92 417.03 174.30 384.70 C 155.28 367.74 137.37 349.53 120.80 330.17 C 94.20 298.94 70.66 264.79 53.59 227.39 C 40.03 197.25 30.42 164.33 32.58 130.98 C 34.01 107.17 42.84 83.64 58.73 65.70 C 70.00 53.36 82.89 41.63 98.96 36.09 M 114.37 64.53 C 109.75 65.74 105.46 67.95 101.46 70.52 C 86.86 80.21 74.68 94.16 68.99 110.90 C 61.76 131.61 63.66 154.26 68.89 175.19 C 74.67 197.99 84.37 219.61 95.89 240.04 C 114.56 272.86 137.94 302.83 163.90 330.18 C 185.93 353.26 209.95 374.47 235.85 393.12 C 255.71 407.31 276.68 420.05 298.98 430.05 C 321.36 439.92 345.29 447.56 369.95 447.95 C 388.28 448.30 407.15 443.39 421.60 431.77 C 431.57 423.56 440.51 413.46 445.10 401.22 C 447.54 394.62 448.88 387.12 446.49 380.30 C 445.18 376.40 442.31 373.26 438.97 370.95 C 419.32 357.02 399.67 343.08 380.03 329.13 C 373.66 324.71 367.54 319.77 360.38 316.64 C 356.30 314.88 351.28 313.72 347.23 316.18 C 337.56 321.42 330.49 330.08 322.65 337.57 C 318.54 341.48 314.83 346.23 309.26 348.12 C 299.37 351.81 287.89 349.62 279.31 343.73 C 254.65 327.70 232.60 307.97 212.17 286.89 C 195.75 269.71 180.36 251.44 167.25 231.58 C 160.56 221.22 159.55 206.50 167.25 196.38 C 175.07 187.52 183.95 179.61 191.45 170.45 C 194.17 166.83 197.22 162.75 196.94 157.97 C 196.43 152.86 193.49 148.46 190.77 144.26 C 175.03 120.22 157.62 97.33 141.20 73.77 C 135.11 65.76 124.17 61.54 114.37 64.53 Z" />
</g>
</svg>
