<?xml version="1.0" encoding="UTF-8" ?>
<!DOCTYPE svg PUBLIC "-//W3C//DTD SVG 1.1//EN" "http://www.w3.org/Graphics/SVG/1.1/DTD/svg11.dtd">
<svg width="512pt" height="512pt" viewBox="0 0 512 512" version="1.1" xmlns="http://www.w3.org/2000/svg">
<g id="#e60000ff">
<path fill="#e60000" opacity="1.00" d=" M 239.00 0.00 L 276.69 0.00 C 318.51 0.89 360.32 2.86 401.95 6.88 C 414.96 8.25 428.25 8.77 440.68 13.21 C 467.39 22.17 489.36 43.97 498.53 70.61 C 502.04 80.21 503.34 90.42 504.17 100.56 C 508.82 145.50 511.07 190.65 512.00 235.81 L 512.00 276.19 C 506.74 272.09 502.34 267.05 497.56 262.43 C 468.36 233.29 439.15 204.16 409.98 175.00 C 408.49 173.51 406.72 172.35 405.01 171.14 C 395.63 155.80 378.19 146.92 360.75 144.61 C 292.39 137.38 223.30 137.26 154.92 144.22 C 140.31 145.36 125.84 151.03 115.06 161.09 C 109.65 166.26 105.18 172.71 103.30 180.03 C 93.88 228.44 93.59 278.60 102.39 327.13 C 103.66 339.39 112.10 349.57 121.90 356.41 C 124.42 360.67 128.27 363.85 131.70 367.35 C 167.70 403.35 203.66 439.39 239.64 475.40 C 251.73 487.61 264.06 499.60 275.96 512.00 L 230.30 512.00 C 186.47 510.79 142.64 508.58 99.01 504.00 C 86.79 503.14 74.56 500.79 63.39 495.62 C 34.38 482.93 13.03 454.48 9.06 423.06 C 3.27 370.44 0.37 317.51 0.00 264.58 L 0.00 228.53 C 1.30 184.60 3.55 140.67 8.19 96.96 C 9.01 86.17 11.18 75.43 15.44 65.45 C 26.17 39.49 49.27 19.04 76.39 11.65 C 85.04 9.08 94.08 8.46 103.02 7.62 C 148.20 2.98 193.60 0.74 239.00 0.00 Z" />
</g>
<g id="#ffffffff">
<path fill="#ffffff" opacity="1.00" d=" M 154.92 144.22 C 223.30 137.26 292.39 137.38 360.75 144.61 C 378.19 146.92 395.63 155.80 405.01 171.14 C 406.45 173.98 408.01 176.84 408.68 179.98 C 418.44 230.32 418.45 282.56 408.49 332.86 C 405.48 342.80 398.23 351.00 389.71 356.70 C 381.12 362.43 371.15 366.03 360.94 367.40 C 292.54 374.63 223.39 374.76 154.96 367.80 C 143.19 366.96 131.71 362.93 121.90 356.41 C 112.10 349.57 103.66 339.39 102.39 327.13 C 93.59 278.60 93.88 228.44 103.30 180.03 C 105.18 172.71 109.65 166.26 115.06 161.09 C 125.84 151.03 140.31 145.36 154.92 144.22 M 217.73 194.69 C 217.68 235.47 217.75 276.24 217.70 317.01 C 219.91 316.38 221.68 314.77 223.68 313.68 C 255.10 294.50 286.32 274.99 317.85 256.00 C 284.34 235.80 251.15 215.05 217.73 194.69 Z" />
</g>
<g id="#b50000ff">
<path fill="#b50000" opacity="1.00" d=" M 405.01 171.14 C 406.72 172.35 408.49 173.51 409.98 175.00 C 439.15 204.16 468.36 233.29 497.56 262.43 C 502.34 267.05 506.74 272.09 512.00 276.19 L 512.00 288.21 C 510.92 329.13 508.60 370.01 504.42 410.72 C 503.76 416.87 503.37 423.06 502.08 429.12 C 498.87 445.15 491.31 460.29 480.43 472.49 C 465.31 489.72 443.61 500.97 420.81 503.39 C 376.16 508.22 331.31 510.91 286.40 512.00 L 275.96 512.00 C 264.06 499.60 251.73 487.61 239.64 475.40 C 203.66 439.39 167.70 403.35 131.70 367.35 C 128.27 363.85 124.42 360.67 121.90 356.41 C 131.71 362.93 143.19 366.96 154.96 367.80 C 223.39 374.76 292.54 374.63 360.94 367.40 C 371.15 366.03 381.12 362.43 389.71 356.70 C 398.23 351.00 405.48 342.80 408.49 332.86 C 418.45 282.56 418.44 230.32 408.68 179.98 C 408.01 176.84 406.45 173.98 405.01 171.14 Z" />
<path fill="#b50000" opacity="1.00" d=" M 217.73 194.69 C 251.15 215.05 284.34 235.80 317.85 256.00 C 286.32 274.99 255.10 294.50 223.68 313.68 C 221.68 314.77 219.91 316.38 217.70 317.01 C 217.75 276.24 217.68 235.47 217.73 194.69 Z" />
</g>
</svg>
